%TF.GenerationSoftware,KiCad,Pcbnew,10.0.3-10.0.3~ubuntu26.04.1*%
%TF.CreationDate,2026-06-21T13:42:18-07:00*%
%TF.ProjectId,clock,636c6f63-6b2e-46b6-9963-61645f706362,rev?*%
%TF.SameCoordinates,Original*%
%TF.FileFunction,Soldermask,Top*%
%TF.FilePolarity,Negative*%
%FSLAX46Y46*%
G04 Gerber Fmt 4.6, Leading zero omitted, Abs format (unit mm)*
G04 Created by KiCad (PCBNEW 10.0.3-10.0.3~ubuntu26.04.1) date 2026-06-21 13:42:18*
%MOMM*%
%LPD*%
G01*
G04 APERTURE LIST*
G04 Aperture macros list*
%AMRoundRect*
0 Rectangle with rounded corners*
0 $1 Rounding radius*
0 $2 $3 $4 $5 $6 $7 $8 $9 X,Y pos of 4 corners*
0 Add a 4 corners polygon primitive as box body*
4,1,4,$2,$3,$4,$5,$6,$7,$8,$9,$2,$3,0*
0 Add four circle primitives for the rounded corners*
1,1,$1+$1,$2,$3*
1,1,$1+$1,$4,$5*
1,1,$1+$1,$6,$7*
1,1,$1+$1,$8,$9*
0 Add four rect primitives between the rounded corners*
20,1,$1+$1,$2,$3,$4,$5,0*
20,1,$1+$1,$4,$5,$6,$7,0*
20,1,$1+$1,$6,$7,$8,$9,0*
20,1,$1+$1,$8,$9,$2,$3,0*%
G04 Aperture macros list end*
%ADD10C,2.000000*%
%ADD11C,1.600000*%
%ADD12RoundRect,0.250000X-0.550000X-0.550000X0.550000X-0.550000X0.550000X0.550000X-0.550000X0.550000X0*%
%ADD13R,3.500000X3.500000*%
%ADD14RoundRect,0.750000X-0.750000X-1.000000X0.750000X-1.000000X0.750000X1.000000X-0.750000X1.000000X0*%
%ADD15RoundRect,0.875000X-0.875000X-0.875000X0.875000X-0.875000X0.875000X0.875000X-0.875000X0.875000X0*%
%ADD16RoundRect,0.250000X0.550000X-0.550000X0.550000X0.550000X-0.550000X0.550000X-0.550000X-0.550000X0*%
%ADD17C,3.200000*%
%ADD18R,1.800000X1.800000*%
%ADD19C,1.800000*%
%ADD20C,4.400000*%
%ADD21RoundRect,0.250000X-0.550000X0.550000X-0.550000X-0.550000X0.550000X-0.550000X0.550000X0.550000X0*%
%ADD22R,1.600000X1.600000*%
%ADD23R,1.500000X1.500000*%
%ADD24R,1.700000X1.700000*%
%ADD25C,1.700000*%
G04 APERTURE END LIST*
D10*
%TO.C,SW2*%
X98450000Y-52756258D03*
X103450000Y-52756258D03*
X98450000Y-57756258D03*
X103450000Y-57756258D03*
%TD*%
D11*
%TO.C,R6*%
X91120000Y-46500000D03*
X83500000Y-46500000D03*
%TD*%
%TO.C,R7*%
X85310000Y-65500000D03*
X77690000Y-65500000D03*
%TD*%
D12*
%TO.C,C8*%
X33794888Y-59500000D03*
D11*
X36294888Y-59500000D03*
%TD*%
%TO.C,C1*%
X35250000Y-28500000D03*
X37750000Y-28500000D03*
%TD*%
%TO.C,C11*%
X76750000Y-29500000D03*
X79250000Y-29500000D03*
%TD*%
%TO.C,C4*%
X54750000Y-41500000D03*
X57250000Y-41500000D03*
%TD*%
%TO.C,R5*%
X91310000Y-28500000D03*
X83690000Y-28500000D03*
%TD*%
D13*
%TO.C,J2*%
X41500000Y-48500000D03*
D14*
X35500000Y-48500000D03*
D15*
X38500000Y-53200000D03*
%TD*%
D16*
%TO.C,U2*%
X71190000Y-41310000D03*
D11*
X73730000Y-41310000D03*
X76270000Y-41310000D03*
X78810000Y-41310000D03*
X78810000Y-33690000D03*
X76270000Y-33690000D03*
X73730000Y-33690000D03*
X71190000Y-33690000D03*
%TD*%
%TO.C,R2*%
X45000000Y-41310000D03*
X45000000Y-33690000D03*
%TD*%
%TO.C,C6*%
X88750000Y-65500000D03*
X91250000Y-65500000D03*
%TD*%
%TO.C,C2*%
X70750000Y-29500000D03*
X73250000Y-29500000D03*
%TD*%
D17*
%TO.C,H2*%
X105000000Y-27000000D03*
%TD*%
D12*
%TO.C,U4*%
X48500000Y-45460000D03*
D11*
X48500000Y-48000000D03*
X48500000Y-50540000D03*
X48500000Y-53080000D03*
X48500000Y-55620000D03*
X48500000Y-58160000D03*
X48500000Y-60700000D03*
X56120000Y-60700000D03*
X56120000Y-58160000D03*
X56120000Y-55620000D03*
X56120000Y-53080000D03*
X56120000Y-50540000D03*
X56120000Y-48000000D03*
X56120000Y-45460000D03*
%TD*%
%TO.C,C3*%
X84000000Y-36250000D03*
X84000000Y-38750000D03*
%TD*%
D17*
%TO.C,H1*%
X30000000Y-27000000D03*
%TD*%
D11*
%TO.C,C12*%
X96250000Y-29500000D03*
X98750000Y-29500000D03*
%TD*%
D16*
%TO.C,U3*%
X88690000Y-41310000D03*
D11*
X91230000Y-41310000D03*
X93770000Y-41310000D03*
X96310000Y-41310000D03*
X96310000Y-33690000D03*
X93770000Y-33690000D03*
X91230000Y-33690000D03*
X88690000Y-33690000D03*
%TD*%
D18*
%TO.C,D1*%
X41460000Y-58500000D03*
D19*
X44000000Y-58500000D03*
%TD*%
D11*
%TO.C,R1*%
X50000000Y-41000000D03*
X50000000Y-33380000D03*
%TD*%
D16*
%TO.C,U1*%
X32380000Y-41120000D03*
D11*
X34920000Y-41120000D03*
X37460000Y-41120000D03*
X40000000Y-41120000D03*
X40000000Y-33500000D03*
X37460000Y-33500000D03*
X34920000Y-33500000D03*
X32380000Y-33500000D03*
%TD*%
D12*
%TO.C,C9*%
X41794888Y-28500000D03*
D11*
X43794888Y-28500000D03*
%TD*%
D18*
%TO.C,D3*%
X68270000Y-65500000D03*
D19*
X65730000Y-65500000D03*
%TD*%
%TO.C,RV1*%
X53950000Y-33500000D03*
X53950000Y-31000000D03*
X53950000Y-28500000D03*
D20*
X60950000Y-26600000D03*
X60950000Y-35400000D03*
%TD*%
D18*
%TO.C,D2*%
X94460000Y-66000000D03*
D19*
X97000000Y-66000000D03*
%TD*%
D11*
%TO.C,R4*%
X59880000Y-41500000D03*
X67500000Y-41500000D03*
%TD*%
D21*
%TO.C,C7*%
X43000000Y-65544888D03*
D11*
X43000000Y-67544888D03*
%TD*%
%TO.C,R3*%
X72190000Y-46500000D03*
X79810000Y-46500000D03*
%TD*%
%TO.C,C10*%
X48000000Y-28500000D03*
X50500000Y-28500000D03*
%TD*%
%TO.C,C5*%
X74250000Y-65500000D03*
X71750000Y-65500000D03*
%TD*%
D17*
%TO.C,H3*%
X30000000Y-66500000D03*
%TD*%
D22*
%TO.C,Y1*%
X91310000Y-60310000D03*
D11*
X91310000Y-52690000D03*
X83690000Y-52690000D03*
X83690000Y-60310000D03*
%TD*%
D23*
%TO.C,SW3*%
X57960000Y-66000000D03*
D11*
X55420000Y-66000000D03*
X60500000Y-66000000D03*
%TD*%
D21*
%TO.C,U5*%
X76200000Y-52880000D03*
D11*
X73660000Y-52880000D03*
X71120000Y-52880000D03*
X68580000Y-52880000D03*
X66040000Y-52880000D03*
X63500000Y-52880000D03*
X60960000Y-52880000D03*
X60960000Y-60500000D03*
X63500000Y-60500000D03*
X66040000Y-60500000D03*
X68580000Y-60500000D03*
X71120000Y-60500000D03*
X73660000Y-60500000D03*
X76200000Y-60500000D03*
%TD*%
D23*
%TO.C,SW1*%
X64540000Y-46500000D03*
D11*
X62000000Y-46500000D03*
X67080000Y-46500000D03*
%TD*%
D17*
%TO.C,H4*%
X105000000Y-66500000D03*
%TD*%
D24*
%TO.C,J1*%
X105500000Y-45580000D03*
D25*
X105500000Y-43040000D03*
X105500000Y-40500000D03*
X105500000Y-37960000D03*
X105500000Y-35420000D03*
%TD*%
M02*
