%TF.GenerationSoftware,KiCad,Pcbnew,10.0.3-10.0.3~ubuntu26.04.1*%
%TF.CreationDate,2026-06-21T13:42:18-07:00*%
%TF.ProjectId,clock,636c6f63-6b2e-46b6-9963-61645f706362,rev?*%
%TF.SameCoordinates,Original*%
%TF.FileFunction,Copper,L1,Top*%
%TF.FilePolarity,Positive*%
%FSLAX46Y46*%
G04 Gerber Fmt 4.6, Leading zero omitted, Abs format (unit mm)*
G04 Created by KiCad (PCBNEW 10.0.3-10.0.3~ubuntu26.04.1) date 2026-06-21 13:42:18*
%MOMM*%
%LPD*%
G01*
G04 APERTURE LIST*
G04 Aperture macros list*
%AMRoundRect*
0 Rectangle with rounded corners*
0 $1 Rounding radius*
0 $2 $3 $4 $5 $6 $7 $8 $9 X,Y pos of 4 corners*
0 Add a 4 corners polygon primitive as box body*
4,1,4,$2,$3,$4,$5,$6,$7,$8,$9,$2,$3,0*
0 Add four circle primitives for the rounded corners*
1,1,$1+$1,$2,$3*
1,1,$1+$1,$4,$5*
1,1,$1+$1,$6,$7*
1,1,$1+$1,$8,$9*
0 Add four rect primitives between the rounded corners*
20,1,$1+$1,$2,$3,$4,$5,0*
20,1,$1+$1,$4,$5,$6,$7,0*
20,1,$1+$1,$6,$7,$8,$9,0*
20,1,$1+$1,$8,$9,$2,$3,0*%
G04 Aperture macros list end*
%TA.AperFunction,ComponentPad*%
%ADD10C,2.000000*%
%TD*%
%TA.AperFunction,ComponentPad*%
%ADD11C,1.600000*%
%TD*%
%TA.AperFunction,ComponentPad*%
%ADD12RoundRect,0.250000X-0.550000X-0.550000X0.550000X-0.550000X0.550000X0.550000X-0.550000X0.550000X0*%
%TD*%
%TA.AperFunction,ComponentPad*%
%ADD13R,3.500000X3.500000*%
%TD*%
%TA.AperFunction,ComponentPad*%
%ADD14RoundRect,0.750000X-0.750000X-1.000000X0.750000X-1.000000X0.750000X1.000000X-0.750000X1.000000X0*%
%TD*%
%TA.AperFunction,ComponentPad*%
%ADD15RoundRect,0.875000X-0.875000X-0.875000X0.875000X-0.875000X0.875000X0.875000X-0.875000X0.875000X0*%
%TD*%
%TA.AperFunction,ComponentPad*%
%ADD16RoundRect,0.250000X0.550000X-0.550000X0.550000X0.550000X-0.550000X0.550000X-0.550000X-0.550000X0*%
%TD*%
%TA.AperFunction,ComponentPad*%
%ADD17R,1.800000X1.800000*%
%TD*%
%TA.AperFunction,ComponentPad*%
%ADD18C,1.800000*%
%TD*%
%TA.AperFunction,ComponentPad*%
%ADD19C,4.400000*%
%TD*%
%TA.AperFunction,ComponentPad*%
%ADD20RoundRect,0.250000X-0.550000X0.550000X-0.550000X-0.550000X0.550000X-0.550000X0.550000X0.550000X0*%
%TD*%
%TA.AperFunction,ComponentPad*%
%ADD21R,1.600000X1.600000*%
%TD*%
%TA.AperFunction,ComponentPad*%
%ADD22R,1.500000X1.500000*%
%TD*%
%TA.AperFunction,ComponentPad*%
%ADD23R,1.700000X1.700000*%
%TD*%
%TA.AperFunction,ComponentPad*%
%ADD24C,1.700000*%
%TD*%
%TA.AperFunction,Conductor*%
%ADD25C,0.254000*%
%TD*%
G04 APERTURE END LIST*
D10*
%TO.P,SW2,1,1_1*%
%TO.N,GND*%
X98450000Y-52756258D03*
%TO.P,SW2,2,2_2*%
%TO.N,Net-(U3-TR)*%
X103450000Y-52756258D03*
%TO.P,SW2,3*%
%TO.N,N/C*%
X98450000Y-57756258D03*
%TO.P,SW2,4*%
X103450000Y-57756258D03*
%TD*%
D11*
%TO.P,R6,2*%
%TO.N,+5V*%
X91120000Y-46500000D03*
%TO.P,R6,1*%
%TO.N,Net-(U3-TR)*%
X83500000Y-46500000D03*
%TD*%
%TO.P,R7,1*%
%TO.N,Net-(Y1-OUT)*%
X85310000Y-65500000D03*
%TO.P,R7,2*%
%TO.N,+5V*%
X77690000Y-65500000D03*
%TD*%
D12*
%TO.P,C8,1*%
%TO.N,+5V*%
X33794888Y-59500000D03*
D11*
%TO.P,C8,2*%
%TO.N,GND*%
X36294888Y-59500000D03*
%TD*%
%TO.P,C1,1*%
%TO.N,+5V*%
X35250000Y-28500000D03*
%TO.P,C1,2*%
%TO.N,GND*%
X37750000Y-28500000D03*
%TD*%
%TO.P,C11,1*%
%TO.N,GND*%
X76750000Y-29500000D03*
%TO.P,C11,2*%
%TO.N,Net-(U2-CV)*%
X79250000Y-29500000D03*
%TD*%
%TO.P,C4,1*%
%TO.N,+5V*%
X54750000Y-41500000D03*
%TO.P,C4,2*%
%TO.N,GND*%
X57250000Y-41500000D03*
%TD*%
%TO.P,R5,1*%
%TO.N,Net-(U3-DIS)*%
X91310000Y-28500000D03*
%TO.P,R5,2*%
%TO.N,+5V*%
X83690000Y-28500000D03*
%TD*%
D13*
%TO.P,J2,1*%
%TO.N,+5V*%
X41500000Y-48500000D03*
D14*
%TO.P,J2,2*%
%TO.N,GND*%
X35500000Y-48500000D03*
D15*
%TO.P,J2,3*%
%TO.N,Net-(H5-Pad1)*%
X38500000Y-53200000D03*
%TD*%
D16*
%TO.P,U2,1,GND_1*%
%TO.N,GND*%
X71190000Y-41310000D03*
D11*
%TO.P,U2,2,TR_2*%
%TO.N,Net-(SW1-B)*%
X73730000Y-41310000D03*
%TO.P,U2,3,Q_3*%
%TO.N,Net-(U2-Q)*%
X76270000Y-41310000D03*
%TO.P,U2,4,R_4*%
%TO.N,Net-(SW1-C)*%
X78810000Y-41310000D03*
%TO.P,U2,5,CV_5*%
%TO.N,Net-(U2-CV)*%
X78810000Y-33690000D03*
%TO.P,U2,6,THR_6*%
%TO.N,GND*%
X76270000Y-33690000D03*
%TO.P,U2,7,DIS_7*%
%TO.N,unconnected-(U2-DIS-Pad7)*%
X73730000Y-33690000D03*
%TO.P,U2,8,VCC_8*%
%TO.N,+5V*%
X71190000Y-33690000D03*
%TD*%
%TO.P,R2,1*%
%TO.N,+5V*%
X45000000Y-41310000D03*
%TO.P,R2,2*%
%TO.N,Net-(U1-DIS)*%
X45000000Y-33690000D03*
%TD*%
%TO.P,C6,1*%
%TO.N,+5V*%
X88750000Y-65500000D03*
%TO.P,C6,2*%
%TO.N,GND*%
X91250000Y-65500000D03*
%TD*%
%TO.P,C2,1*%
%TO.N,+5V*%
X70750000Y-29500000D03*
%TO.P,C2,2*%
%TO.N,GND*%
X73250000Y-29500000D03*
%TD*%
D12*
%TO.P,U4,1*%
%TO.N,Net-(U2-Q)*%
X48500000Y-45460000D03*
D11*
%TO.P,U4,2*%
X48500000Y-48000000D03*
%TO.P,U4,3*%
%TO.N,Net-(U4-Pad13)*%
X48500000Y-50540000D03*
%TO.P,U4,4*%
%TO.N,Net-(U2-Q)*%
X48500000Y-53080000D03*
%TO.P,U4,5*%
%TO.N,Net-(U1-Q)*%
X48500000Y-55620000D03*
%TO.P,U4,6*%
%TO.N,Net-(U4-Pad10)*%
X48500000Y-58160000D03*
%TO.P,U4,7,GND_7*%
%TO.N,GND*%
X48500000Y-60700000D03*
%TO.P,U4,8*%
%TO.N,Net-(U4-Pad8)*%
X56120000Y-60700000D03*
%TO.P,U4,9*%
%TO.N,Net-(U4-Pad11)*%
X56120000Y-58160000D03*
%TO.P,U4,10*%
%TO.N,Net-(U4-Pad10)*%
X56120000Y-55620000D03*
%TO.P,U4,11*%
%TO.N,Net-(U4-Pad11)*%
X56120000Y-53080000D03*
%TO.P,U4,12*%
%TO.N,Net-(U4-Pad12)*%
X56120000Y-50540000D03*
%TO.P,U4,13*%
%TO.N,Net-(U4-Pad13)*%
X56120000Y-48000000D03*
%TO.P,U4,14,VCC_14*%
%TO.N,+5V*%
X56120000Y-45460000D03*
%TD*%
%TO.P,C3,1*%
%TO.N,+5V*%
X84000000Y-36250000D03*
%TO.P,C3,2*%
%TO.N,GND*%
X84000000Y-38750000D03*
%TD*%
%TO.P,C12,1*%
%TO.N,Net-(U3-CV)*%
X96250000Y-29500000D03*
%TO.P,C12,2*%
%TO.N,GND*%
X98750000Y-29500000D03*
%TD*%
D16*
%TO.P,U3,1,GND_1*%
%TO.N,GND*%
X88690000Y-41310000D03*
D11*
%TO.P,U3,2,TR_2*%
%TO.N,Net-(U3-TR)*%
X91230000Y-41310000D03*
%TO.P,U3,3,Q_3*%
%TO.N,Net-(U3-Q)*%
X93770000Y-41310000D03*
%TO.P,U3,4,R_4*%
%TO.N,+5V*%
X96310000Y-41310000D03*
%TO.P,U3,5,CV_5*%
%TO.N,Net-(U3-CV)*%
X96310000Y-33690000D03*
%TO.P,U3,6,THR_6*%
%TO.N,Net-(U3-DIS)*%
X93770000Y-33690000D03*
%TO.P,U3,7,DIS_7*%
X91230000Y-33690000D03*
%TO.P,U3,8,VCC_8*%
%TO.N,+5V*%
X88690000Y-33690000D03*
%TD*%
D17*
%TO.P,D1,1,K_1*%
%TO.N,GND*%
X41460000Y-58500000D03*
D18*
%TO.P,D1,2,A_2*%
%TO.N,+5V*%
X44000000Y-58500000D03*
%TD*%
D11*
%TO.P,R1,1*%
%TO.N,Net-(U1-THR)*%
X50000000Y-41000000D03*
%TO.P,R1,2*%
%TO.N,Net-(R1-Pad2)*%
X50000000Y-33380000D03*
%TD*%
D16*
%TO.P,U1,1,GND_1*%
%TO.N,GND*%
X32380000Y-41120000D03*
D11*
%TO.P,U1,2,TR_2*%
%TO.N,Net-(U1-THR)*%
X34920000Y-41120000D03*
%TO.P,U1,3,Q_3*%
%TO.N,Net-(U1-Q)*%
X37460000Y-41120000D03*
%TO.P,U1,4,R_4*%
%TO.N,+5V*%
X40000000Y-41120000D03*
%TO.P,U1,5,CV_5*%
%TO.N,Net-(U1-CV)*%
X40000000Y-33500000D03*
%TO.P,U1,6,THR_6*%
%TO.N,Net-(U1-THR)*%
X37460000Y-33500000D03*
%TO.P,U1,7,DIS_7*%
%TO.N,Net-(U1-DIS)*%
X34920000Y-33500000D03*
%TO.P,U1,8,VCC_8*%
%TO.N,+5V*%
X32380000Y-33500000D03*
%TD*%
D12*
%TO.P,C9,1*%
%TO.N,Net-(U1-THR)*%
X41794888Y-28500000D03*
D11*
%TO.P,C9,2*%
%TO.N,GND*%
X43794888Y-28500000D03*
%TD*%
D17*
%TO.P,D3,1,K_1*%
%TO.N,GND*%
X68270000Y-65500000D03*
D18*
%TO.P,D3,2,A_2*%
%TO.N,Net-(D3-A)*%
X65730000Y-65500000D03*
%TD*%
%TO.P,RV1,1,1_1*%
%TO.N,Net-(R1-Pad2)*%
X53950000Y-33500000D03*
%TO.P,RV1,2,2_2*%
%TO.N,Net-(U1-DIS)*%
X53950000Y-31000000D03*
%TO.P,RV1,3,3_3*%
%TO.N,unconnected-(RV1-Pad3)*%
X53950000Y-28500000D03*
D19*
%TO.P,RV1,MP,MountPin_MP*%
%TO.N,unconnected-(RV1-MountPin-PadMP)_1*%
X60950000Y-26600000D03*
%TO.N,unconnected-(RV1-MountPin-PadMP)*%
X60950000Y-35400000D03*
%TD*%
D17*
%TO.P,D2,1,K_1*%
%TO.N,GND*%
X94460000Y-66000000D03*
D18*
%TO.P,D2,2,A_2*%
%TO.N,/CLK*%
X97000000Y-66000000D03*
%TD*%
D11*
%TO.P,R4,1*%
%TO.N,+5V*%
X59880000Y-41500000D03*
%TO.P,R4,2*%
%TO.N,Net-(SW1-C)*%
X67500000Y-41500000D03*
%TD*%
D20*
%TO.P,C7,1*%
%TO.N,+5V*%
X43000000Y-65544888D03*
D11*
%TO.P,C7,2*%
%TO.N,GND*%
X43000000Y-67544888D03*
%TD*%
%TO.P,R3,1*%
%TO.N,Net-(SW1-B)*%
X72190000Y-46500000D03*
%TO.P,R3,2*%
%TO.N,+5V*%
X79810000Y-46500000D03*
%TD*%
%TO.P,C10,1*%
%TO.N,Net-(U1-CV)*%
X48000000Y-28500000D03*
%TO.P,C10,2*%
%TO.N,GND*%
X50500000Y-28500000D03*
%TD*%
%TO.P,C5,1*%
%TO.N,+5V*%
X74250000Y-65500000D03*
%TO.P,C5,2*%
%TO.N,GND*%
X71750000Y-65500000D03*
%TD*%
D21*
%TO.P,Y1,1,EN_1*%
%TO.N,Net-(D3-A)*%
X91310000Y-60310000D03*
D11*
%TO.P,Y1,4,GND_4*%
%TO.N,GND*%
X91310000Y-52690000D03*
%TO.P,Y1,5,OUT_5*%
%TO.N,Net-(Y1-OUT)*%
X83690000Y-52690000D03*
%TO.P,Y1,8,Vcc_8*%
%TO.N,+5V*%
X83690000Y-60310000D03*
%TD*%
D22*
%TO.P,SW3,1,A_1*%
%TO.N,Net-(D3-A)*%
X57960000Y-66000000D03*
D11*
%TO.P,SW3,2,B_2*%
%TO.N,+5V*%
X55420000Y-66000000D03*
%TO.P,SW3,3,C_3*%
%TO.N,GND*%
X60500000Y-66000000D03*
%TD*%
D20*
%TO.P,U5,1*%
%TO.N,Net-(U3-Q)*%
X76200000Y-52880000D03*
D11*
%TO.P,U5,2*%
X73660000Y-52880000D03*
%TO.P,U5,3*%
%TO.N,Net-(U5-Pad3)*%
X71120000Y-52880000D03*
%TO.P,U5,4*%
X68580000Y-52880000D03*
%TO.P,U5,5*%
%TO.N,Net-(Y1-OUT)*%
X66040000Y-52880000D03*
%TO.P,U5,6*%
%TO.N,Net-(U4-Pad12)*%
X63500000Y-52880000D03*
%TO.P,U5,7,GND_7*%
%TO.N,GND*%
X60960000Y-52880000D03*
%TO.P,U5,8*%
%TO.N,/CLK*%
X60960000Y-60500000D03*
%TO.P,U5,9*%
%TO.N,/~HLT*%
X63500000Y-60500000D03*
%TO.P,U5,10*%
%TO.N,Net-(U4-Pad8)*%
X66040000Y-60500000D03*
%TO.P,U5,11*%
%TO.N,/~CLK*%
X68580000Y-60500000D03*
%TO.P,U5,12*%
%TO.N,/CLK*%
X71120000Y-60500000D03*
%TO.P,U5,13*%
X73660000Y-60500000D03*
%TO.P,U5,14,VCC_14*%
%TO.N,+5V*%
X76200000Y-60500000D03*
%TD*%
D22*
%TO.P,SW1,1,A_1*%
%TO.N,GND*%
X64540000Y-46500000D03*
D11*
%TO.P,SW1,2,B_2*%
%TO.N,Net-(SW1-B)*%
X62000000Y-46500000D03*
%TO.P,SW1,3,C_3*%
%TO.N,Net-(SW1-C)*%
X67080000Y-46500000D03*
%TD*%
D23*
%TO.P,J1,1,Pin_1_1*%
%TO.N,/~CLK*%
X105500000Y-45580000D03*
D24*
%TO.P,J1,2,Pin_2_2*%
%TO.N,/CLK*%
X105500000Y-43040000D03*
%TO.P,J1,3,Pin_3_3*%
%TO.N,/~HLT*%
X105500000Y-40500000D03*
%TO.P,J1,4,Pin_4_4*%
%TO.N,GND*%
X105500000Y-37960000D03*
%TO.P,J1,5,Pin_5_5*%
%TO.N,+5V*%
X105500000Y-35420000D03*
%TD*%
%TO.N,/~HLT*%
D25*
X63500000Y-60500000D02*
X68619000Y-55381000D01*
X68619000Y-55381000D02*
X86080184Y-55381000D01*
X86080184Y-55381000D02*
X100961184Y-40500000D01*
X100961184Y-40500000D02*
X105500000Y-40500000D01*
%TO.N,/~CLK*%
X71080000Y-58000000D02*
X84000000Y-58000000D01*
X68580000Y-60500000D02*
X71080000Y-58000000D01*
X84000000Y-58000000D02*
X96420000Y-45580000D01*
X96420000Y-45580000D02*
X105500000Y-45580000D01*
%TO.N,Net-(Y1-OUT)*%
X66040000Y-52880000D02*
X68160000Y-55000000D01*
X68160000Y-55000000D02*
X81380000Y-55000000D01*
X81380000Y-55000000D02*
X83690000Y-52690000D01*
%TO.N,Net-(U3-Q)*%
X93770000Y-41310000D02*
X86080000Y-49000000D01*
X86080000Y-49000000D02*
X82500000Y-49000000D01*
X82500000Y-49000000D02*
X78620000Y-52880000D01*
X78620000Y-52880000D02*
X76200000Y-52880000D01*
%TO.N,Net-(U3-TR)*%
X83500000Y-46500000D02*
X86040000Y-46500000D01*
X86040000Y-46500000D02*
X91230000Y-41310000D01*
%TO.N,Net-(U3-Q)*%
X73660000Y-52880000D02*
X76200000Y-52880000D01*
%TO.N,Net-(U5-Pad3)*%
X68580000Y-52880000D02*
X71120000Y-52880000D01*
%TO.N,/CLK*%
X60960000Y-60500000D02*
X62960000Y-62500000D01*
X62960000Y-62500000D02*
X69120000Y-62500000D01*
X69120000Y-62500000D02*
X71120000Y-60500000D01*
X71120000Y-60500000D02*
X73660000Y-60500000D01*
%TO.N,Net-(D3-A)*%
X65730000Y-65500000D02*
X68230000Y-63000000D01*
X68230000Y-63000000D02*
X88620000Y-63000000D01*
X88620000Y-63000000D02*
X91310000Y-60310000D01*
X57960000Y-66000000D02*
X59960000Y-64000000D01*
X59960000Y-64000000D02*
X64230000Y-64000000D01*
X64230000Y-64000000D02*
X65730000Y-65500000D01*
%TO.N,Net-(U4-Pad10)*%
X48500000Y-58160000D02*
X53580000Y-58160000D01*
X53580000Y-58160000D02*
X56120000Y-55620000D01*
%TO.N,Net-(U4-Pad12)*%
X56120000Y-50540000D02*
X61160000Y-50540000D01*
X61160000Y-50540000D02*
X63500000Y-52880000D01*
%TO.N,Net-(U4-Pad13)*%
X48500000Y-50540000D02*
X53580000Y-50540000D01*
X53580000Y-50540000D02*
X56120000Y-48000000D01*
%TO.N,Net-(U2-Q)*%
X76270000Y-41310000D02*
X74080000Y-43500000D01*
X74080000Y-43500000D02*
X50460000Y-43500000D01*
X50460000Y-43500000D02*
X48500000Y-45460000D01*
%TO.N,Net-(SW1-C)*%
X78810000Y-41310000D02*
X77000000Y-39500000D01*
X77000000Y-39500000D02*
X69500000Y-39500000D01*
X69500000Y-39500000D02*
X67500000Y-41500000D01*
%TO.N,Net-(U3-DIS)*%
X91230000Y-33690000D02*
X93770000Y-33690000D01*
%TO.N,Net-(SW1-B)*%
X62000000Y-46500000D02*
X63500000Y-48000000D01*
X63500000Y-48000000D02*
X70690000Y-48000000D01*
X70690000Y-48000000D02*
X72190000Y-46500000D01*
%TO.N,Net-(U1-THR)*%
X50000000Y-41000000D02*
X48000000Y-39000000D01*
X48000000Y-39000000D02*
X37040000Y-39000000D01*
X37040000Y-39000000D02*
X34920000Y-41120000D01*
%TO.N,Net-(U1-DIS)*%
X45000000Y-33690000D02*
X43190000Y-35500000D01*
X43190000Y-35500000D02*
X36920000Y-35500000D01*
X36920000Y-35500000D02*
X34920000Y-33500000D01*
%TO.N,Net-(U1-CV)*%
X48000000Y-28500000D02*
X43000000Y-33500000D01*
X43000000Y-33500000D02*
X40000000Y-33500000D01*
%TO.N,Net-(U1-DIS)*%
X53950000Y-31000000D02*
X47690000Y-31000000D01*
X47690000Y-31000000D02*
X45000000Y-33690000D01*
%TO.N,Net-(R1-Pad2)*%
X50000000Y-33380000D02*
X53830000Y-33380000D01*
X53830000Y-33380000D02*
X53950000Y-33500000D01*
%TD*%
%TA.AperFunction,Conductor*%
%TO.N,+5V*%
G36*
X55427741Y-44147185D02*
G01*
X55473496Y-44199989D01*
X55483440Y-44269147D01*
X55454415Y-44332703D01*
X55433587Y-44351819D01*
X55394077Y-44380523D01*
X55394077Y-44380524D01*
X56073554Y-45060000D01*
X56067339Y-45060000D01*
X55965606Y-45087259D01*
X55874394Y-45139920D01*
X55799920Y-45214394D01*
X55747259Y-45305606D01*
X55720000Y-45407339D01*
X55720000Y-45413553D01*
X55040524Y-44734077D01*
X55040523Y-44734077D01*
X55008143Y-44778644D01*
X54915244Y-44960968D01*
X54852009Y-45155582D01*
X54820000Y-45357682D01*
X54820000Y-45562317D01*
X54852009Y-45764417D01*
X54915244Y-45959031D01*
X55008141Y-46141350D01*
X55008147Y-46141359D01*
X55040523Y-46185921D01*
X55040524Y-46185922D01*
X55720000Y-45506446D01*
X55720000Y-45512661D01*
X55747259Y-45614394D01*
X55799920Y-45705606D01*
X55874394Y-45780080D01*
X55965606Y-45832741D01*
X56067339Y-45860000D01*
X56073553Y-45860000D01*
X55394076Y-46539474D01*
X55438652Y-46571861D01*
X55531628Y-46619234D01*
X55582425Y-46667208D01*
X55599220Y-46735029D01*
X55576683Y-46801164D01*
X55531630Y-46840203D01*
X55438388Y-46887713D01*
X55272786Y-47008028D01*
X55128028Y-47152786D01*
X55007715Y-47318386D01*
X54914781Y-47500776D01*
X54851522Y-47695465D01*
X54819500Y-47897648D01*
X54819500Y-48102352D01*
X54819499Y-48102352D01*
X54852101Y-48308191D01*
X54843146Y-48377484D01*
X54817309Y-48415269D01*
X53356400Y-49876181D01*
X53295077Y-49909666D01*
X53268719Y-49912500D01*
X49714781Y-49912500D01*
X49647742Y-49892815D01*
X49614462Y-49861385D01*
X49612289Y-49858394D01*
X49612287Y-49858390D01*
X49491966Y-49692781D01*
X49347219Y-49548034D01*
X49347213Y-49548028D01*
X49181614Y-49427715D01*
X49175006Y-49424348D01*
X49088917Y-49380483D01*
X49038123Y-49332511D01*
X49021328Y-49264690D01*
X49043865Y-49198555D01*
X49088917Y-49159516D01*
X49181610Y-49112287D01*
X49202770Y-49096913D01*
X49347213Y-48991971D01*
X49347215Y-48991968D01*
X49347219Y-48991966D01*
X49491966Y-48847219D01*
X49491968Y-48847215D01*
X49491971Y-48847213D01*
X49562599Y-48750000D01*
X49612287Y-48681610D01*
X49705220Y-48499219D01*
X49768477Y-48304534D01*
X49800500Y-48102352D01*
X49800500Y-47897648D01*
X49768477Y-47695466D01*
X49705220Y-47500781D01*
X49705218Y-47500778D01*
X49705218Y-47500776D01*
X49638413Y-47369666D01*
X49612287Y-47318390D01*
X49597381Y-47297873D01*
X49491971Y-47152786D01*
X49347219Y-47008034D01*
X49318836Y-46987413D01*
X49253547Y-46939978D01*
X49210882Y-46884649D01*
X49204903Y-46815036D01*
X49237508Y-46753240D01*
X49287426Y-46721955D01*
X49369334Y-46694814D01*
X49518656Y-46602712D01*
X49642712Y-46478656D01*
X49734814Y-46329334D01*
X49789999Y-46162797D01*
X49800500Y-46060009D01*
X49800499Y-45098279D01*
X49820184Y-45031241D01*
X49836813Y-45010604D01*
X50683600Y-44163819D01*
X50744923Y-44130334D01*
X50771281Y-44127500D01*
X55360702Y-44127500D01*
X55427741Y-44147185D01*
G37*
%TD.AperFunction*%
%TA.AperFunction,Conductor*%
G36*
X55829474Y-42225921D02*
G01*
X55861859Y-42181349D01*
X55889233Y-42127624D01*
X55937207Y-42076827D01*
X56005028Y-42060031D01*
X56071163Y-42082567D01*
X56110203Y-42127621D01*
X56137713Y-42181611D01*
X56258028Y-42347213D01*
X56402786Y-42491971D01*
X56551477Y-42599999D01*
X56568390Y-42612287D01*
X56603513Y-42630183D01*
X56618884Y-42638015D01*
X56669680Y-42685990D01*
X56686475Y-42753811D01*
X56663937Y-42819946D01*
X56609222Y-42863397D01*
X56562589Y-42872500D01*
X55436311Y-42872500D01*
X55369272Y-42852815D01*
X55323517Y-42800011D01*
X55313573Y-42730853D01*
X55342598Y-42667297D01*
X55380017Y-42638015D01*
X55431346Y-42611861D01*
X55431347Y-42611861D01*
X55475921Y-42579474D01*
X54796447Y-41900000D01*
X54802661Y-41900000D01*
X54904394Y-41872741D01*
X54995606Y-41820080D01*
X55070080Y-41745606D01*
X55122741Y-41654394D01*
X55150000Y-41552661D01*
X55150000Y-41546447D01*
X55829474Y-42225921D01*
G37*
%TD.AperFunction*%
%TA.AperFunction,Conductor*%
G36*
X59480000Y-41552661D02*
G01*
X59507259Y-41654394D01*
X59559920Y-41745606D01*
X59634394Y-41820080D01*
X59725606Y-41872741D01*
X59827339Y-41900000D01*
X59833553Y-41900000D01*
X59154076Y-42579474D01*
X59198652Y-42611861D01*
X59249983Y-42638015D01*
X59300780Y-42685989D01*
X59317575Y-42753810D01*
X59295038Y-42819945D01*
X59240323Y-42863397D01*
X59193689Y-42872500D01*
X57937411Y-42872500D01*
X57870372Y-42852815D01*
X57824617Y-42800011D01*
X57814673Y-42730853D01*
X57843698Y-42667297D01*
X57881116Y-42638015D01*
X57931610Y-42612287D01*
X58030859Y-42540179D01*
X58097213Y-42491971D01*
X58097215Y-42491968D01*
X58097219Y-42491966D01*
X58241966Y-42347219D01*
X58241968Y-42347215D01*
X58241971Y-42347213D01*
X58362284Y-42181614D01*
X58362286Y-42181611D01*
X58362287Y-42181610D01*
X58454796Y-42000050D01*
X58502769Y-41949256D01*
X58570590Y-41932461D01*
X58636725Y-41954998D01*
X58675765Y-42000052D01*
X58768141Y-42181350D01*
X58768147Y-42181359D01*
X58800523Y-42225921D01*
X58800524Y-42225922D01*
X59480000Y-41546446D01*
X59480000Y-41552661D01*
G37*
%TD.AperFunction*%
%TA.AperFunction,Conductor*%
G36*
X39670687Y-39647185D02*
G01*
X39716442Y-39699989D01*
X39726386Y-39769147D01*
X39697361Y-39832703D01*
X39641967Y-39869431D01*
X39500968Y-39915244D01*
X39318644Y-40008143D01*
X39274077Y-40040523D01*
X39274077Y-40040524D01*
X39953554Y-40720000D01*
X39947339Y-40720000D01*
X39845606Y-40747259D01*
X39754394Y-40799920D01*
X39679920Y-40874394D01*
X39627259Y-40965606D01*
X39600000Y-41067339D01*
X39600000Y-41073553D01*
X38920524Y-40394077D01*
X38920523Y-40394077D01*
X38888143Y-40438644D01*
X38840765Y-40531630D01*
X38792790Y-40582426D01*
X38724969Y-40599221D01*
X38658834Y-40576683D01*
X38619795Y-40531630D01*
X38584715Y-40462782D01*
X38572287Y-40438390D01*
X38572285Y-40438387D01*
X38572284Y-40438385D01*
X38451971Y-40272786D01*
X38307213Y-40128028D01*
X38141613Y-40007715D01*
X38141612Y-40007714D01*
X38141610Y-40007713D01*
X38081898Y-39977288D01*
X37959223Y-39914781D01*
X37839060Y-39875738D01*
X37819648Y-39869430D01*
X37761974Y-39829993D01*
X37734776Y-39765634D01*
X37746691Y-39696788D01*
X37793935Y-39645312D01*
X37857968Y-39627500D01*
X39603648Y-39627500D01*
X39670687Y-39647185D01*
G37*
%TD.AperFunction*%
%TA.AperFunction,Conductor*%
G36*
X60484111Y-23720185D02*
G01*
X60529866Y-23772989D01*
X60539810Y-23842147D01*
X60510785Y-23905703D01*
X60452007Y-23943477D01*
X60444671Y-23945389D01*
X60404913Y-23954463D01*
X60201228Y-24000953D01*
X60201216Y-24000957D01*
X59914931Y-24101133D01*
X59641661Y-24232733D01*
X59384837Y-24394107D01*
X59147696Y-24583220D01*
X58933220Y-24797696D01*
X58744107Y-25034837D01*
X58582733Y-25291661D01*
X58451133Y-25564931D01*
X58350957Y-25851216D01*
X58350953Y-25851228D01*
X58283460Y-26146937D01*
X58283457Y-26146951D01*
X58249500Y-26448336D01*
X58249500Y-26751663D01*
X58283457Y-27053048D01*
X58283460Y-27053062D01*
X58350953Y-27348771D01*
X58350957Y-27348783D01*
X58451133Y-27635068D01*
X58582733Y-27908338D01*
X58582735Y-27908341D01*
X58744108Y-28165164D01*
X58855731Y-28305135D01*
X58933218Y-28402301D01*
X58933221Y-28402304D01*
X59147696Y-28616779D01*
X59384836Y-28805892D01*
X59641659Y-28967265D01*
X59914935Y-29098868D01*
X60129951Y-29174105D01*
X60201216Y-29199042D01*
X60201228Y-29199046D01*
X60496937Y-29266540D01*
X60496946Y-29266541D01*
X60496951Y-29266542D01*
X60697874Y-29289180D01*
X60798337Y-29300499D01*
X60798340Y-29300500D01*
X60798343Y-29300500D01*
X61101660Y-29300500D01*
X61101661Y-29300499D01*
X61201933Y-29289201D01*
X61375945Y-29269596D01*
X61403048Y-29266542D01*
X61403051Y-29266541D01*
X61403063Y-29266540D01*
X61698772Y-29199046D01*
X61985065Y-29098868D01*
X62258341Y-28967265D01*
X62515164Y-28805892D01*
X62752304Y-28616779D01*
X62966779Y-28402304D01*
X63155892Y-28165164D01*
X63317265Y-27908341D01*
X63448868Y-27635065D01*
X63514870Y-27446442D01*
X63521731Y-27426835D01*
X63521733Y-27426829D01*
X63535268Y-27388147D01*
X63549046Y-27348772D01*
X63616540Y-27053063D01*
X63635815Y-26881995D01*
X103199500Y-26881995D01*
X103199500Y-27118004D01*
X103199501Y-27118020D01*
X103229881Y-27348783D01*
X103230307Y-27352014D01*
X103252728Y-27435689D01*
X103291394Y-27579993D01*
X103381714Y-27798045D01*
X103381719Y-27798056D01*
X103440572Y-27899991D01*
X103499727Y-28002450D01*
X103499729Y-28002453D01*
X103499730Y-28002454D01*
X103643406Y-28189697D01*
X103643412Y-28189704D01*
X103810295Y-28356587D01*
X103810302Y-28356593D01*
X103869870Y-28402301D01*
X103997550Y-28500273D01*
X104088289Y-28552661D01*
X104201943Y-28618280D01*
X104201948Y-28618282D01*
X104201951Y-28618284D01*
X104420007Y-28708606D01*
X104647986Y-28769693D01*
X104881989Y-28800500D01*
X104881996Y-28800500D01*
X105118004Y-28800500D01*
X105118011Y-28800500D01*
X105352014Y-28769693D01*
X105579993Y-28708606D01*
X105798049Y-28618284D01*
X106002450Y-28500273D01*
X106189699Y-28356592D01*
X106356592Y-28189699D01*
X106500273Y-28002450D01*
X106618284Y-27798049D01*
X106708606Y-27579993D01*
X106769693Y-27352014D01*
X106800500Y-27118011D01*
X106800500Y-26881989D01*
X106769693Y-26647986D01*
X106708606Y-26420007D01*
X106618284Y-26201951D01*
X106618282Y-26201948D01*
X106618280Y-26201943D01*
X106576118Y-26128918D01*
X106500273Y-25997550D01*
X106356592Y-25810301D01*
X106356587Y-25810295D01*
X106189704Y-25643412D01*
X106189697Y-25643406D01*
X106002454Y-25499730D01*
X106002453Y-25499729D01*
X106002450Y-25499727D01*
X105920957Y-25452677D01*
X105798056Y-25381719D01*
X105798045Y-25381714D01*
X105579993Y-25291394D01*
X105352010Y-25230306D01*
X105118020Y-25199501D01*
X105118017Y-25199500D01*
X105118011Y-25199500D01*
X104881989Y-25199500D01*
X104881983Y-25199500D01*
X104881979Y-25199501D01*
X104647989Y-25230306D01*
X104420006Y-25291394D01*
X104201954Y-25381714D01*
X104201943Y-25381719D01*
X103997545Y-25499730D01*
X103810302Y-25643406D01*
X103810295Y-25643412D01*
X103643412Y-25810295D01*
X103643406Y-25810302D01*
X103499730Y-25997545D01*
X103381719Y-26201943D01*
X103381714Y-26201954D01*
X103291394Y-26420006D01*
X103230306Y-26647989D01*
X103199501Y-26881979D01*
X103199500Y-26881995D01*
X63635815Y-26881995D01*
X63635817Y-26881979D01*
X63637837Y-26864047D01*
X63637837Y-26864046D01*
X63650499Y-26751663D01*
X63650500Y-26751657D01*
X63650500Y-26448343D01*
X63616540Y-26146937D01*
X63549046Y-25851228D01*
X63448868Y-25564935D01*
X63317265Y-25291659D01*
X63155892Y-25034836D01*
X62966779Y-24797696D01*
X62752304Y-24583221D01*
X62515164Y-24394108D01*
X62258341Y-24232735D01*
X62258338Y-24232733D01*
X61985068Y-24101133D01*
X61698783Y-24000957D01*
X61698771Y-24000953D01*
X61504469Y-23956605D01*
X61455334Y-23945390D01*
X61394357Y-23911282D01*
X61361499Y-23849621D01*
X61367194Y-23779984D01*
X61409634Y-23724480D01*
X61475344Y-23700732D01*
X61482928Y-23700500D01*
X108175500Y-23700500D01*
X108242539Y-23720185D01*
X108288294Y-23772989D01*
X108299500Y-23824500D01*
X108299500Y-69675500D01*
X108279815Y-69742539D01*
X108227011Y-69788294D01*
X108175500Y-69799500D01*
X26824500Y-69799500D01*
X26757461Y-69779815D01*
X26711706Y-69727011D01*
X26700500Y-69675500D01*
X26700500Y-66381995D01*
X28199500Y-66381995D01*
X28199500Y-66618004D01*
X28199501Y-66618020D01*
X28229675Y-66847219D01*
X28230307Y-66852014D01*
X28267904Y-66992328D01*
X28291394Y-67079993D01*
X28381714Y-67298045D01*
X28381719Y-67298056D01*
X28440866Y-67400500D01*
X28499727Y-67502450D01*
X28499729Y-67502453D01*
X28499730Y-67502454D01*
X28643406Y-67689697D01*
X28643412Y-67689704D01*
X28810295Y-67856587D01*
X28810301Y-67856592D01*
X28997550Y-68000273D01*
X29073480Y-68044111D01*
X29201943Y-68118280D01*
X29201948Y-68118282D01*
X29201951Y-68118284D01*
X29420007Y-68208606D01*
X29647986Y-68269693D01*
X29881989Y-68300500D01*
X29881996Y-68300500D01*
X30118004Y-68300500D01*
X30118011Y-68300500D01*
X30352014Y-68269693D01*
X30579993Y-68208606D01*
X30798049Y-68118284D01*
X31002450Y-68000273D01*
X31189699Y-67856592D01*
X31356592Y-67689699D01*
X31500273Y-67502450D01*
X31534864Y-67442536D01*
X41699500Y-67442536D01*
X41699500Y-67647239D01*
X41731522Y-67849422D01*
X41794781Y-68044111D01*
X41887715Y-68226501D01*
X42008028Y-68392101D01*
X42152786Y-68536859D01*
X42307749Y-68649444D01*
X42318390Y-68657175D01*
X42434607Y-68716391D01*
X42500776Y-68750106D01*
X42500778Y-68750106D01*
X42500781Y-68750108D01*
X42605137Y-68784015D01*
X42695465Y-68813365D01*
X42796557Y-68829376D01*
X42897648Y-68845388D01*
X42897649Y-68845388D01*
X43102351Y-68845388D01*
X43102352Y-68845388D01*
X43304534Y-68813365D01*
X43499219Y-68750108D01*
X43681610Y-68657175D01*
X43774590Y-68589620D01*
X43847213Y-68536859D01*
X43847215Y-68536856D01*
X43847219Y-68536854D01*
X43991966Y-68392107D01*
X43991966Y-68392106D01*
X43991971Y-68392102D01*
X43991971Y-68392101D01*
X44080904Y-68269693D01*
X44112287Y-68226498D01*
X44205220Y-68044107D01*
X44268477Y-67849422D01*
X44300500Y-67647240D01*
X44300500Y-67442536D01*
X44268477Y-67240354D01*
X44268476Y-67240350D01*
X44268476Y-67240349D01*
X44213299Y-67070533D01*
X44213298Y-67070531D01*
X44205220Y-67045668D01*
X44137297Y-66912363D01*
X44112287Y-66863278D01*
X44060911Y-66792564D01*
X44037432Y-66726760D01*
X44053257Y-66658707D01*
X44073549Y-66632000D01*
X44142315Y-66563233D01*
X44234356Y-66414012D01*
X44234358Y-66414007D01*
X44289505Y-66247585D01*
X44289506Y-66247578D01*
X44299999Y-66144874D01*
X44300000Y-66144861D01*
X44300000Y-65794888D01*
X43315686Y-65794888D01*
X43320080Y-65790494D01*
X43372741Y-65699282D01*
X43400000Y-65597549D01*
X43400000Y-65492227D01*
X43372741Y-65390494D01*
X43320080Y-65299282D01*
X43315686Y-65294888D01*
X44299999Y-65294888D01*
X44299999Y-64944916D01*
X44299998Y-64944901D01*
X44289505Y-64842190D01*
X44234358Y-64675768D01*
X44234356Y-64675763D01*
X44142315Y-64526542D01*
X44018345Y-64402572D01*
X43869124Y-64310531D01*
X43869119Y-64310529D01*
X43702697Y-64255382D01*
X43702690Y-64255381D01*
X43599986Y-64244888D01*
X43250000Y-64244888D01*
X43250000Y-65229202D01*
X43245606Y-65224808D01*
X43154394Y-65172147D01*
X43052661Y-65144888D01*
X42947339Y-65144888D01*
X42845606Y-65172147D01*
X42754394Y-65224808D01*
X42750000Y-65229202D01*
X42750000Y-64244888D01*
X42400028Y-64244888D01*
X42400012Y-64244889D01*
X42297302Y-64255382D01*
X42130880Y-64310529D01*
X42130875Y-64310531D01*
X41981654Y-64402572D01*
X41857684Y-64526542D01*
X41765643Y-64675763D01*
X41765641Y-64675768D01*
X41710494Y-64842190D01*
X41710493Y-64842197D01*
X41700000Y-64944901D01*
X41700000Y-65294888D01*
X42684314Y-65294888D01*
X42679920Y-65299282D01*
X42627259Y-65390494D01*
X42600000Y-65492227D01*
X42600000Y-65597549D01*
X42627259Y-65699282D01*
X42679920Y-65790494D01*
X42684314Y-65794888D01*
X41700001Y-65794888D01*
X41700001Y-66144874D01*
X41710494Y-66247585D01*
X41765641Y-66414007D01*
X41765643Y-66414012D01*
X41857684Y-66563233D01*
X41926450Y-66631999D01*
X41959935Y-66693322D01*
X41954951Y-66763014D01*
X41939088Y-66792564D01*
X41887713Y-66863277D01*
X41887712Y-66863279D01*
X41794781Y-67045664D01*
X41731522Y-67240353D01*
X41699500Y-67442536D01*
X31534864Y-67442536D01*
X31618284Y-67298049D01*
X31708606Y-67079993D01*
X31769693Y-66852014D01*
X31800500Y-66618011D01*
X31800500Y-66381989D01*
X31769693Y-66147986D01*
X31708606Y-65920007D01*
X31618284Y-65701951D01*
X31618282Y-65701948D01*
X31618280Y-65701943D01*
X31565324Y-65610222D01*
X31500273Y-65497550D01*
X31417577Y-65389778D01*
X31356593Y-65310302D01*
X31356587Y-65310295D01*
X31189704Y-65143412D01*
X31189697Y-65143406D01*
X31055102Y-65040128D01*
X31002454Y-64999730D01*
X31002453Y-64999729D01*
X31002450Y-64999727D01*
X30898946Y-64939969D01*
X30798056Y-64881719D01*
X30798045Y-64881714D01*
X30579993Y-64791394D01*
X30515365Y-64774077D01*
X30352014Y-64730307D01*
X30352013Y-64730306D01*
X30352010Y-64730306D01*
X30118020Y-64699501D01*
X30118017Y-64699500D01*
X30118011Y-64699500D01*
X29881989Y-64699500D01*
X29881983Y-64699500D01*
X29881979Y-64699501D01*
X29647989Y-64730306D01*
X29420006Y-64791394D01*
X29201954Y-64881714D01*
X29201943Y-64881719D01*
X28997545Y-64999730D01*
X28810302Y-65143406D01*
X28810295Y-65143412D01*
X28643412Y-65310295D01*
X28643406Y-65310302D01*
X28499730Y-65497545D01*
X28499727Y-65497549D01*
X28499727Y-65497550D01*
X28497862Y-65500781D01*
X28381719Y-65701943D01*
X28381714Y-65701954D01*
X28291394Y-65920006D01*
X28230306Y-66147989D01*
X28199501Y-66381979D01*
X28199500Y-66381995D01*
X26700500Y-66381995D01*
X26700500Y-58900013D01*
X32494888Y-58900013D01*
X32494888Y-59250000D01*
X33479202Y-59250000D01*
X33474808Y-59254394D01*
X33422147Y-59345606D01*
X33394888Y-59447339D01*
X33394888Y-59552661D01*
X33422147Y-59654394D01*
X33474808Y-59745606D01*
X33479202Y-59750000D01*
X32494889Y-59750000D01*
X32494889Y-60099986D01*
X32505382Y-60202697D01*
X32560529Y-60369119D01*
X32560531Y-60369124D01*
X32652572Y-60518345D01*
X32776542Y-60642315D01*
X32925763Y-60734356D01*
X32925768Y-60734358D01*
X33092190Y-60789505D01*
X33092197Y-60789506D01*
X33194907Y-60799999D01*
X33544887Y-60799999D01*
X33544888Y-60799998D01*
X33544888Y-59815686D01*
X33549282Y-59820080D01*
X33640494Y-59872741D01*
X33742227Y-59900000D01*
X33847549Y-59900000D01*
X33949282Y-59872741D01*
X34040494Y-59820080D01*
X34044888Y-59815686D01*
X34044888Y-60799999D01*
X34394860Y-60799999D01*
X34394874Y-60799998D01*
X34497585Y-60789505D01*
X34664007Y-60734358D01*
X34664012Y-60734356D01*
X34813233Y-60642315D01*
X34937203Y-60518345D01*
X35029244Y-60369124D01*
X35029247Y-60369117D01*
X35043951Y-60324743D01*
X35083723Y-60267298D01*
X35148238Y-60240474D01*
X35217014Y-60252788D01*
X35261976Y-60290861D01*
X35302922Y-60347219D01*
X35447674Y-60491971D01*
X35602637Y-60604556D01*
X35613278Y-60612287D01*
X35695918Y-60654394D01*
X35795664Y-60705218D01*
X35795666Y-60705218D01*
X35795669Y-60705220D01*
X35885347Y-60734358D01*
X35990353Y-60768477D01*
X36091445Y-60784488D01*
X36192536Y-60800500D01*
X36192537Y-60800500D01*
X36397239Y-60800500D01*
X36397240Y-60800500D01*
X36599422Y-60768477D01*
X36794107Y-60705220D01*
X36976498Y-60612287D01*
X37069478Y-60544732D01*
X37142101Y-60491971D01*
X37142103Y-60491968D01*
X37142107Y-60491966D01*
X37286854Y-60347219D01*
X37286856Y-60347215D01*
X37286859Y-60347213D01*
X37339620Y-60274590D01*
X37407175Y-60181610D01*
X37500108Y-59999219D01*
X37563365Y-59804534D01*
X37595388Y-59602352D01*
X37595388Y-59397648D01*
X37579095Y-59294780D01*
X37563365Y-59195465D01*
X37521365Y-59066204D01*
X37500108Y-59000781D01*
X37500106Y-59000778D01*
X37500106Y-59000776D01*
X37425091Y-58853553D01*
X37407175Y-58818390D01*
X37384732Y-58787499D01*
X37286859Y-58652786D01*
X37142101Y-58508028D01*
X36976501Y-58387715D01*
X36976500Y-58387714D01*
X36976498Y-58387713D01*
X36917563Y-58357684D01*
X36794111Y-58294781D01*
X36599422Y-58231522D01*
X36424883Y-58203878D01*
X36397240Y-58199500D01*
X36192536Y-58199500D01*
X36168217Y-58203351D01*
X35990353Y-58231522D01*
X35795664Y-58294781D01*
X35613274Y-58387715D01*
X35447674Y-58508028D01*
X35302920Y-58652782D01*
X35261975Y-58709139D01*
X35206645Y-58751804D01*
X35137032Y-58757783D01*
X35075237Y-58725177D01*
X35043951Y-58675256D01*
X35029247Y-58630882D01*
X35029244Y-58630875D01*
X34937203Y-58481654D01*
X34813233Y-58357684D01*
X34664012Y-58265643D01*
X34664007Y-58265641D01*
X34497585Y-58210494D01*
X34497578Y-58210493D01*
X34394874Y-58200000D01*
X34044888Y-58200000D01*
X34044888Y-59184314D01*
X34040494Y-59179920D01*
X33949282Y-59127259D01*
X33847549Y-59100000D01*
X33742227Y-59100000D01*
X33640494Y-59127259D01*
X33549282Y-59179920D01*
X33544888Y-59184314D01*
X33544888Y-58200000D01*
X33194916Y-58200000D01*
X33194900Y-58200001D01*
X33092190Y-58210494D01*
X32925768Y-58265641D01*
X32925763Y-58265643D01*
X32776542Y-58357684D01*
X32652572Y-58481654D01*
X32560531Y-58630875D01*
X32560529Y-58630880D01*
X32505382Y-58797302D01*
X32505381Y-58797309D01*
X32494888Y-58900013D01*
X26700500Y-58900013D01*
X26700500Y-57552135D01*
X40059500Y-57552135D01*
X40059500Y-59447870D01*
X40059501Y-59447876D01*
X40065908Y-59507483D01*
X40116202Y-59642328D01*
X40116206Y-59642335D01*
X40202452Y-59757544D01*
X40202455Y-59757547D01*
X40317664Y-59843793D01*
X40317671Y-59843797D01*
X40452517Y-59894091D01*
X40452516Y-59894091D01*
X40459444Y-59894835D01*
X40512127Y-59900500D01*
X42407872Y-59900499D01*
X42467483Y-59894091D01*
X42602331Y-59843796D01*
X42717546Y-59757546D01*
X42803796Y-59642331D01*
X42818708Y-59602351D01*
X42834327Y-59560474D01*
X42853885Y-59508034D01*
X42854091Y-59507483D01*
X42860500Y-59447873D01*
X42860499Y-59337304D01*
X42880183Y-59270268D01*
X42896818Y-59249626D01*
X43557861Y-58588584D01*
X43580667Y-58673694D01*
X43639910Y-58776306D01*
X43723694Y-58860090D01*
X43826306Y-58919333D01*
X43911414Y-58942137D01*
X43202485Y-59651065D01*
X43202485Y-59651066D01*
X43266243Y-59697388D01*
X43462589Y-59797432D01*
X43672164Y-59865526D01*
X43889819Y-59900000D01*
X44110181Y-59900000D01*
X44327835Y-59865526D01*
X44537410Y-59797432D01*
X44733760Y-59697386D01*
X44797513Y-59651066D01*
X44797514Y-59651066D01*
X44088585Y-58942138D01*
X44173694Y-58919333D01*
X44276306Y-58860090D01*
X44360090Y-58776306D01*
X44419333Y-58673694D01*
X44442137Y-58588585D01*
X45151066Y-59297514D01*
X45151066Y-59297513D01*
X45197386Y-59233760D01*
X45297432Y-59037410D01*
X45365526Y-58827835D01*
X45400000Y-58610181D01*
X45400000Y-58389818D01*
X45365526Y-58172164D01*
X45297432Y-57962589D01*
X45197388Y-57766243D01*
X45151066Y-57702485D01*
X45151065Y-57702485D01*
X44442137Y-58411413D01*
X44419333Y-58326306D01*
X44360090Y-58223694D01*
X44276306Y-58139910D01*
X44173694Y-58080667D01*
X44088583Y-58057861D01*
X44797513Y-57348932D01*
X44733756Y-57302611D01*
X44537410Y-57202567D01*
X44327835Y-57134473D01*
X44110181Y-57100000D01*
X43889819Y-57100000D01*
X43672164Y-57134473D01*
X43462589Y-57202567D01*
X43266233Y-57302616D01*
X43202485Y-57348931D01*
X43202485Y-57348932D01*
X43911414Y-58057861D01*
X43826306Y-58080667D01*
X43723694Y-58139910D01*
X43639910Y-58223694D01*
X43580667Y-58326306D01*
X43557861Y-58411414D01*
X42896818Y-57750371D01*
X42863333Y-57689048D01*
X42860499Y-57662690D01*
X42860499Y-57552129D01*
X42860498Y-57552123D01*
X42860497Y-57552116D01*
X42854091Y-57492517D01*
X42848820Y-57478386D01*
X42834326Y-57439524D01*
X42803797Y-57357671D01*
X42803793Y-57357664D01*
X42717547Y-57242455D01*
X42717544Y-57242452D01*
X42602335Y-57156206D01*
X42602328Y-57156202D01*
X42467482Y-57105908D01*
X42467483Y-57105908D01*
X42407883Y-57099501D01*
X42407881Y-57099500D01*
X42407873Y-57099500D01*
X42407864Y-57099500D01*
X40512129Y-57099500D01*
X40512123Y-57099501D01*
X40452516Y-57105908D01*
X40317671Y-57156202D01*
X40317664Y-57156206D01*
X40202455Y-57242452D01*
X40202452Y-57242455D01*
X40116206Y-57357664D01*
X40116202Y-57357671D01*
X40065908Y-57492517D01*
X40061610Y-57532500D01*
X40059501Y-57552123D01*
X40059500Y-57552135D01*
X26700500Y-57552135D01*
X26700500Y-52231386D01*
X36249500Y-52231386D01*
X36249500Y-54168613D01*
X36249501Y-54168652D01*
X36252295Y-54221243D01*
X36252295Y-54221244D01*
X36289287Y-54412511D01*
X36296755Y-54451126D01*
X36318110Y-54507713D01*
X36379425Y-54670189D01*
X36497929Y-54872131D01*
X36497934Y-54872138D01*
X36648856Y-55051141D01*
X36648858Y-55051143D01*
X36827861Y-55202065D01*
X36827868Y-55202070D01*
X37029810Y-55320574D01*
X37248874Y-55403245D01*
X37478759Y-55447705D01*
X37531378Y-55450500D01*
X37531386Y-55450500D01*
X39468614Y-55450500D01*
X39468622Y-55450500D01*
X39521241Y-55447705D01*
X39751126Y-55403245D01*
X39970190Y-55320574D01*
X40172132Y-55202070D01*
X40351142Y-55051142D01*
X40502070Y-54872132D01*
X40620574Y-54670190D01*
X40703245Y-54451126D01*
X40747705Y-54221241D01*
X40750500Y-54168622D01*
X40750500Y-52231378D01*
X40747705Y-52178759D01*
X40703245Y-51948874D01*
X40620574Y-51729810D01*
X40502070Y-51527868D01*
X40502065Y-51527861D01*
X40351143Y-51348858D01*
X40351141Y-51348856D01*
X40172138Y-51197934D01*
X40172131Y-51197929D01*
X39970189Y-51079425D01*
X39863648Y-51039219D01*
X39751126Y-50996755D01*
X39745899Y-50995744D01*
X39683817Y-50963688D01*
X39648922Y-50903156D01*
X39652291Y-50833368D01*
X39692856Y-50776480D01*
X39757738Y-50750554D01*
X39769445Y-50750000D01*
X41250000Y-50750000D01*
X41250000Y-49933012D01*
X41307007Y-49965925D01*
X41434174Y-50000000D01*
X41565826Y-50000000D01*
X41692993Y-49965925D01*
X41750000Y-49933012D01*
X41750000Y-50750000D01*
X43297828Y-50750000D01*
X43297844Y-50749999D01*
X43357372Y-50743598D01*
X43357379Y-50743596D01*
X43492086Y-50693354D01*
X43492093Y-50693350D01*
X43607187Y-50607190D01*
X43607190Y-50607187D01*
X43693350Y-50492093D01*
X43693354Y-50492086D01*
X43743596Y-50357379D01*
X43743598Y-50357372D01*
X43749999Y-50297844D01*
X43750000Y-50297827D01*
X43750000Y-48750000D01*
X42000000Y-48750000D01*
X42000000Y-48250000D01*
X43750000Y-48250000D01*
X43750000Y-46702172D01*
X43749999Y-46702155D01*
X43743598Y-46642627D01*
X43743596Y-46642620D01*
X43693354Y-46507913D01*
X43693350Y-46507906D01*
X43607190Y-46392812D01*
X43607187Y-46392809D01*
X43492093Y-46306649D01*
X43492086Y-46306645D01*
X43357379Y-46256403D01*
X43357372Y-46256401D01*
X43297844Y-46250000D01*
X41750000Y-46250000D01*
X41750000Y-47066988D01*
X41692993Y-47034075D01*
X41565826Y-47000000D01*
X41434174Y-47000000D01*
X41307007Y-47034075D01*
X41250000Y-47066988D01*
X41250000Y-46250000D01*
X39702155Y-46250000D01*
X39642627Y-46256401D01*
X39642620Y-46256403D01*
X39507913Y-46306645D01*
X39507906Y-46306649D01*
X39392812Y-46392809D01*
X39392809Y-46392812D01*
X39306649Y-46507906D01*
X39306645Y-46507913D01*
X39256403Y-46642620D01*
X39256401Y-46642627D01*
X39250000Y-46702155D01*
X39250000Y-48250000D01*
X41000000Y-48250000D01*
X41000000Y-48750000D01*
X39250000Y-48750000D01*
X39250000Y-50297844D01*
X39256401Y-50357372D01*
X39256403Y-50357379D01*
X39306645Y-50492086D01*
X39306649Y-50492093D01*
X39392809Y-50607187D01*
X39392812Y-50607190D01*
X39507906Y-50693350D01*
X39507911Y-50693353D01*
X39556605Y-50711515D01*
X39612538Y-50753387D01*
X39636955Y-50818851D01*
X39622103Y-50887124D01*
X39572698Y-50936529D01*
X39506692Y-50951522D01*
X39468652Y-50949501D01*
X39468629Y-50949500D01*
X39468622Y-50949500D01*
X37531378Y-50949500D01*
X37531370Y-50949500D01*
X37531347Y-50949501D01*
X37478756Y-50952295D01*
X37478755Y-50952295D01*
X37248878Y-50996754D01*
X37248876Y-50996754D01*
X37248874Y-50996755D01*
X37174933Y-51024659D01*
X37029810Y-51079425D01*
X36827868Y-51197929D01*
X36827861Y-51197934D01*
X36648858Y-51348856D01*
X36648856Y-51348858D01*
X36497934Y-51527861D01*
X36497929Y-51527868D01*
X36379425Y-51729810D01*
X36336791Y-51842786D01*
X36296755Y-51948874D01*
X36296754Y-51948876D01*
X36296754Y-51948878D01*
X36252295Y-52178755D01*
X36252295Y-52178756D01*
X36249501Y-52231347D01*
X36249500Y-52231386D01*
X26700500Y-52231386D01*
X26700500Y-47435777D01*
X33499500Y-47435777D01*
X33499500Y-49564208D01*
X33499501Y-49564223D01*
X33509904Y-49696413D01*
X33509905Y-49696420D01*
X33564902Y-49914678D01*
X33564903Y-49914681D01*
X33657991Y-50119622D01*
X33657997Y-50119632D01*
X33786174Y-50304645D01*
X33786178Y-50304650D01*
X33786181Y-50304654D01*
X33945346Y-50463819D01*
X33945350Y-50463822D01*
X33945354Y-50463825D01*
X33986157Y-50492093D01*
X34130374Y-50592007D01*
X34335317Y-50685096D01*
X34335321Y-50685097D01*
X34553579Y-50740094D01*
X34553581Y-50740094D01*
X34553588Y-50740096D01*
X34685783Y-50750500D01*
X36314216Y-50750499D01*
X36446412Y-50740096D01*
X36664683Y-50685096D01*
X36869626Y-50592007D01*
X37054654Y-50463819D01*
X37213819Y-50304654D01*
X37342007Y-50119626D01*
X37435096Y-49914683D01*
X37490096Y-49696412D01*
X37500500Y-49564217D01*
X37500499Y-47435784D01*
X37490096Y-47303588D01*
X37470525Y-47225921D01*
X37435097Y-47085321D01*
X37435096Y-47085318D01*
X37428107Y-47069932D01*
X37342007Y-46880374D01*
X37323425Y-46853553D01*
X37265171Y-46769467D01*
X37213825Y-46695354D01*
X37213822Y-46695350D01*
X37213819Y-46695346D01*
X37054654Y-46536181D01*
X37054650Y-46536178D01*
X37054645Y-46536174D01*
X36869632Y-46407997D01*
X36869630Y-46407995D01*
X36869626Y-46407993D01*
X36846925Y-46397682D01*
X36664681Y-46314903D01*
X36664678Y-46314902D01*
X36446420Y-46259905D01*
X36446413Y-46259904D01*
X36401902Y-46256401D01*
X36314217Y-46249500D01*
X36314215Y-46249500D01*
X34685791Y-46249500D01*
X34685776Y-46249501D01*
X34553586Y-46259904D01*
X34553579Y-46259905D01*
X34335321Y-46314902D01*
X34335318Y-46314903D01*
X34130377Y-46407991D01*
X34130367Y-46407997D01*
X33945354Y-46536174D01*
X33945342Y-46536184D01*
X33786184Y-46695342D01*
X33786174Y-46695354D01*
X33657997Y-46880367D01*
X33657991Y-46880377D01*
X33564903Y-47085318D01*
X33564902Y-47085321D01*
X33509905Y-47303579D01*
X33509904Y-47303586D01*
X33499500Y-47435777D01*
X26700500Y-47435777D01*
X26700500Y-44859983D01*
X47199500Y-44859983D01*
X47199500Y-46060001D01*
X47199501Y-46060018D01*
X47210000Y-46162796D01*
X47210001Y-46162799D01*
X47265185Y-46329331D01*
X47265187Y-46329336D01*
X47283544Y-46359098D01*
X47357288Y-46478656D01*
X47481344Y-46602712D01*
X47630666Y-46694814D01*
X47712570Y-46721954D01*
X47770015Y-46761727D01*
X47796838Y-46826243D01*
X47784523Y-46895018D01*
X47746451Y-46939978D01*
X47652787Y-47008028D01*
X47652782Y-47008032D01*
X47508028Y-47152786D01*
X47387715Y-47318386D01*
X47294781Y-47500776D01*
X47231522Y-47695465D01*
X47199500Y-47897648D01*
X47199500Y-48102351D01*
X47231522Y-48304534D01*
X47294781Y-48499223D01*
X47387715Y-48681613D01*
X47508028Y-48847213D01*
X47652786Y-48991971D01*
X47807749Y-49104556D01*
X47818390Y-49112287D01*
X47909840Y-49158883D01*
X47911080Y-49159515D01*
X47961876Y-49207490D01*
X47978671Y-49275311D01*
X47956134Y-49341446D01*
X47911080Y-49380485D01*
X47818386Y-49427715D01*
X47652786Y-49548028D01*
X47508028Y-49692786D01*
X47387715Y-49858386D01*
X47294781Y-50040776D01*
X47231522Y-50235465D01*
X47199500Y-50437648D01*
X47199500Y-50642351D01*
X47231522Y-50844534D01*
X47294781Y-51039223D01*
X47347855Y-51143384D01*
X47375649Y-51197934D01*
X47387715Y-51221613D01*
X47508028Y-51387213D01*
X47652786Y-51531971D01*
X47788112Y-51630289D01*
X47818390Y-51652287D01*
X47908162Y-51698028D01*
X47911080Y-51699515D01*
X47961876Y-51747490D01*
X47978671Y-51815311D01*
X47956134Y-51881446D01*
X47911080Y-51920485D01*
X47818386Y-51967715D01*
X47652786Y-52088028D01*
X47508028Y-52232786D01*
X47387715Y-52398386D01*
X47294781Y-52580776D01*
X47231522Y-52775465D01*
X47199500Y-52977648D01*
X47199500Y-53182351D01*
X47231522Y-53384534D01*
X47294781Y-53579223D01*
X47347132Y-53681966D01*
X47373527Y-53733769D01*
X47387715Y-53761613D01*
X47508028Y-53927213D01*
X47652786Y-54071971D01*
X47785859Y-54168652D01*
X47818390Y-54192287D01*
X47894080Y-54230853D01*
X47911080Y-54239515D01*
X47961876Y-54287490D01*
X47978671Y-54355311D01*
X47956134Y-54421446D01*
X47911080Y-54460485D01*
X47818386Y-54507715D01*
X47652786Y-54628028D01*
X47508028Y-54772786D01*
X47387715Y-54938386D01*
X47294781Y-55120776D01*
X47231522Y-55315465D01*
X47199500Y-55517648D01*
X47199500Y-55722351D01*
X47231522Y-55924534D01*
X47294781Y-56119223D01*
X47342922Y-56213703D01*
X47383175Y-56292704D01*
X47387715Y-56301613D01*
X47508028Y-56467213D01*
X47652786Y-56611971D01*
X47807749Y-56724556D01*
X47818390Y-56732287D01*
X47909569Y-56778745D01*
X47911080Y-56779515D01*
X47961876Y-56827490D01*
X47978671Y-56895311D01*
X47956134Y-56961446D01*
X47911080Y-57000485D01*
X47818386Y-57047715D01*
X47652786Y-57168028D01*
X47508028Y-57312786D01*
X47387715Y-57478386D01*
X47294781Y-57660776D01*
X47231522Y-57855465D01*
X47199500Y-58057648D01*
X47199500Y-58262351D01*
X47231522Y-58464534D01*
X47294781Y-58659223D01*
X47341954Y-58751804D01*
X47380694Y-58827835D01*
X47387715Y-58841613D01*
X47508028Y-59007213D01*
X47652786Y-59151971D01*
X47787714Y-59250000D01*
X47818390Y-59272287D01*
X47909840Y-59318883D01*
X47911080Y-59319515D01*
X47961876Y-59367490D01*
X47978671Y-59435311D01*
X47956134Y-59501446D01*
X47911080Y-59540485D01*
X47818386Y-59587715D01*
X47652786Y-59708028D01*
X47508028Y-59852786D01*
X47387715Y-60018386D01*
X47294781Y-60200776D01*
X47231522Y-60395465D01*
X47199500Y-60597648D01*
X47199500Y-60802351D01*
X47231522Y-61004534D01*
X47294781Y-61199223D01*
X47387715Y-61381613D01*
X47508028Y-61547213D01*
X47652786Y-61691971D01*
X47769616Y-61776851D01*
X47818390Y-61812287D01*
X47897931Y-61852815D01*
X48000776Y-61905218D01*
X48000778Y-61905218D01*
X48000781Y-61905220D01*
X48105137Y-61939127D01*
X48195465Y-61968477D01*
X48296557Y-61984488D01*
X48397648Y-62000500D01*
X48397649Y-62000500D01*
X48602351Y-62000500D01*
X48602352Y-62000500D01*
X48804534Y-61968477D01*
X48999219Y-61905220D01*
X49181610Y-61812287D01*
X49294623Y-61730179D01*
X49347213Y-61691971D01*
X49347215Y-61691968D01*
X49347219Y-61691966D01*
X49491966Y-61547219D01*
X49491968Y-61547215D01*
X49491971Y-61547213D01*
X49566570Y-61444534D01*
X49612287Y-61381610D01*
X49705220Y-61199219D01*
X49768477Y-61004534D01*
X49800500Y-60802352D01*
X49800500Y-60597648D01*
X49768477Y-60395466D01*
X49759916Y-60369119D01*
X49706617Y-60205081D01*
X49705220Y-60200781D01*
X49705218Y-60200778D01*
X49705218Y-60200776D01*
X49635727Y-60064394D01*
X49612287Y-60018390D01*
X49599490Y-60000776D01*
X49491971Y-59852786D01*
X49347213Y-59708028D01*
X49181614Y-59587715D01*
X49174472Y-59584076D01*
X49088917Y-59540483D01*
X49038123Y-59492511D01*
X49021328Y-59424690D01*
X49043865Y-59358555D01*
X49088917Y-59319516D01*
X49181610Y-59272287D01*
X49212286Y-59250000D01*
X49347213Y-59151971D01*
X49347215Y-59151968D01*
X49347219Y-59151966D01*
X49491966Y-59007219D01*
X49612287Y-58841610D01*
X49612289Y-58841605D01*
X49614462Y-58838615D01*
X49669792Y-58795949D01*
X49714781Y-58787500D01*
X53641804Y-58787500D01*
X53641805Y-58787499D01*
X53763035Y-58763386D01*
X53843784Y-58729937D01*
X53877233Y-58716083D01*
X53980008Y-58647411D01*
X54067411Y-58560008D01*
X54125970Y-58501449D01*
X54125982Y-58501435D01*
X54607820Y-58019598D01*
X54669142Y-57986114D01*
X54738834Y-57991098D01*
X54794767Y-58032970D01*
X54819184Y-58098434D01*
X54819500Y-58107280D01*
X54819500Y-58262351D01*
X54851522Y-58464534D01*
X54914781Y-58659223D01*
X54961954Y-58751804D01*
X55000694Y-58827835D01*
X55007715Y-58841613D01*
X55128028Y-59007213D01*
X55272786Y-59151971D01*
X55407714Y-59250000D01*
X55438390Y-59272287D01*
X55529840Y-59318883D01*
X55531080Y-59319515D01*
X55581876Y-59367490D01*
X55598671Y-59435311D01*
X55576134Y-59501446D01*
X55531080Y-59540485D01*
X55438386Y-59587715D01*
X55272786Y-59708028D01*
X55128028Y-59852786D01*
X55007715Y-60018386D01*
X54914781Y-60200776D01*
X54851522Y-60395465D01*
X54819500Y-60597648D01*
X54819500Y-60802351D01*
X54851522Y-61004534D01*
X54914781Y-61199223D01*
X55007715Y-61381613D01*
X55128028Y-61547213D01*
X55272786Y-61691971D01*
X55389616Y-61776851D01*
X55438390Y-61812287D01*
X55517931Y-61852815D01*
X55620776Y-61905218D01*
X55620778Y-61905218D01*
X55620781Y-61905220D01*
X55725137Y-61939127D01*
X55815465Y-61968477D01*
X55916557Y-61984488D01*
X56017648Y-62000500D01*
X56017649Y-62000500D01*
X56222351Y-62000500D01*
X56222352Y-62000500D01*
X56424534Y-61968477D01*
X56619219Y-61905220D01*
X56801610Y-61812287D01*
X56914623Y-61730179D01*
X56967213Y-61691971D01*
X56967215Y-61691968D01*
X56967219Y-61691966D01*
X57111966Y-61547219D01*
X57111968Y-61547215D01*
X57111971Y-61547213D01*
X57186570Y-61444534D01*
X57232287Y-61381610D01*
X57325220Y-61199219D01*
X57388477Y-61004534D01*
X57420500Y-60802352D01*
X57420500Y-60597648D01*
X57388477Y-60395466D01*
X57379916Y-60369119D01*
X57326617Y-60205081D01*
X57325220Y-60200781D01*
X57325218Y-60200778D01*
X57325218Y-60200776D01*
X57255727Y-60064394D01*
X57232287Y-60018390D01*
X57219490Y-60000776D01*
X57111971Y-59852786D01*
X56967213Y-59708028D01*
X56801614Y-59587715D01*
X56794472Y-59584076D01*
X56708917Y-59540483D01*
X56658123Y-59492511D01*
X56641328Y-59424690D01*
X56663865Y-59358555D01*
X56708917Y-59319516D01*
X56801610Y-59272287D01*
X56832286Y-59250000D01*
X56967213Y-59151971D01*
X56967215Y-59151968D01*
X56967219Y-59151966D01*
X57111966Y-59007219D01*
X57111968Y-59007215D01*
X57111971Y-59007213D01*
X57189301Y-58900775D01*
X57232287Y-58841610D01*
X57325220Y-58659219D01*
X57388477Y-58464534D01*
X57420500Y-58262352D01*
X57420500Y-58057648D01*
X57388477Y-57855466D01*
X57325220Y-57660781D01*
X57325218Y-57660778D01*
X57325218Y-57660776D01*
X57269852Y-57552116D01*
X57232287Y-57478390D01*
X57207241Y-57443917D01*
X57111971Y-57312786D01*
X56967213Y-57168028D01*
X56801614Y-57047715D01*
X56795006Y-57044348D01*
X56708917Y-57000483D01*
X56658123Y-56952511D01*
X56641328Y-56884690D01*
X56663865Y-56818555D01*
X56708917Y-56779516D01*
X56801610Y-56732287D01*
X56822770Y-56716913D01*
X56967213Y-56611971D01*
X56967215Y-56611968D01*
X56967219Y-56611966D01*
X57111966Y-56467219D01*
X57111968Y-56467215D01*
X57111971Y-56467213D01*
X57185730Y-56365691D01*
X57232287Y-56301610D01*
X57325220Y-56119219D01*
X57388477Y-55924534D01*
X57420500Y-55722352D01*
X57420500Y-55517648D01*
X57388477Y-55315466D01*
X57325220Y-55120781D01*
X57325218Y-55120778D01*
X57325218Y-55120776D01*
X57289737Y-55051141D01*
X57232287Y-54938390D01*
X57224556Y-54927749D01*
X57111971Y-54772786D01*
X56967213Y-54628028D01*
X56801614Y-54507715D01*
X56795006Y-54504348D01*
X56708917Y-54460483D01*
X56658123Y-54412511D01*
X56641328Y-54344690D01*
X56663865Y-54278555D01*
X56708917Y-54239516D01*
X56801610Y-54192287D01*
X56886249Y-54130794D01*
X56967213Y-54071971D01*
X56967215Y-54071968D01*
X56967219Y-54071966D01*
X57111966Y-53927219D01*
X57111968Y-53927215D01*
X57111971Y-53927213D01*
X57164732Y-53854590D01*
X57232287Y-53761610D01*
X57325220Y-53579219D01*
X57388477Y-53384534D01*
X57420500Y-53182352D01*
X57420500Y-52977648D01*
X57391152Y-52792352D01*
X57388477Y-52775465D01*
X57359127Y-52685137D01*
X57325220Y-52580781D01*
X57325218Y-52580778D01*
X57325218Y-52580776D01*
X57262455Y-52457598D01*
X57232287Y-52398390D01*
X57187056Y-52336134D01*
X57111971Y-52232786D01*
X56967213Y-52088028D01*
X56801614Y-51967715D01*
X56764636Y-51948874D01*
X56708917Y-51920483D01*
X56658123Y-51872511D01*
X56641328Y-51804690D01*
X56663865Y-51738555D01*
X56708917Y-51699516D01*
X56801610Y-51652287D01*
X56831888Y-51630289D01*
X56967213Y-51531971D01*
X56967215Y-51531968D01*
X56967219Y-51531966D01*
X57111966Y-51387219D01*
X57232287Y-51221610D01*
X57232289Y-51221605D01*
X57234462Y-51218615D01*
X57289792Y-51175949D01*
X57334781Y-51167500D01*
X60848719Y-51167500D01*
X60878159Y-51176144D01*
X60908146Y-51182668D01*
X60913161Y-51186422D01*
X60915758Y-51187185D01*
X60936400Y-51203819D01*
X61100400Y-51367819D01*
X61133885Y-51429142D01*
X61128901Y-51498834D01*
X61087029Y-51554767D01*
X61021565Y-51579184D01*
X61012719Y-51579500D01*
X60857648Y-51579500D01*
X60833329Y-51583351D01*
X60655465Y-51611522D01*
X60460776Y-51674781D01*
X60278386Y-51767715D01*
X60112786Y-51888028D01*
X59968028Y-52032786D01*
X59847715Y-52198386D01*
X59754781Y-52380776D01*
X59691522Y-52575465D01*
X59659846Y-52775465D01*
X59659500Y-52777648D01*
X59659500Y-52982352D01*
X59661809Y-52996928D01*
X59691522Y-53184534D01*
X59754781Y-53379223D01*
X59807855Y-53483384D01*
X59838073Y-53542691D01*
X59847715Y-53561613D01*
X59968028Y-53727213D01*
X60112786Y-53871971D01*
X60267749Y-53984556D01*
X60278390Y-53992287D01*
X60371247Y-54039600D01*
X60460776Y-54085218D01*
X60460778Y-54085218D01*
X60460781Y-54085220D01*
X60537597Y-54110179D01*
X60655465Y-54148477D01*
X60756557Y-54164488D01*
X60857648Y-54180500D01*
X60857649Y-54180500D01*
X61062351Y-54180500D01*
X61062352Y-54180500D01*
X61264534Y-54148477D01*
X61459219Y-54085220D01*
X61641610Y-53992287D01*
X61734590Y-53924732D01*
X61807213Y-53871971D01*
X61807215Y-53871968D01*
X61807219Y-53871966D01*
X61951966Y-53727219D01*
X61951968Y-53727215D01*
X61951971Y-53727213D01*
X62056913Y-53582770D01*
X62072287Y-53561610D01*
X62119516Y-53468917D01*
X62167489Y-53418123D01*
X62235310Y-53401328D01*
X62301445Y-53423865D01*
X62340483Y-53468917D01*
X62375282Y-53537213D01*
X62387715Y-53561614D01*
X62508028Y-53727213D01*
X62652786Y-53871971D01*
X62807749Y-53984556D01*
X62818390Y-53992287D01*
X62911247Y-54039600D01*
X63000776Y-54085218D01*
X63000778Y-54085218D01*
X63000781Y-54085220D01*
X63077597Y-54110179D01*
X63195465Y-54148477D01*
X63296557Y-54164488D01*
X63397648Y-54180500D01*
X63397649Y-54180500D01*
X63602351Y-54180500D01*
X63602352Y-54180500D01*
X63804534Y-54148477D01*
X63999219Y-54085220D01*
X64181610Y-53992287D01*
X64274590Y-53924732D01*
X64347213Y-53871971D01*
X64347215Y-53871968D01*
X64347219Y-53871966D01*
X64491966Y-53727219D01*
X64491968Y-53727215D01*
X64491971Y-53727213D01*
X64596913Y-53582770D01*
X64612287Y-53561610D01*
X64659516Y-53468917D01*
X64707489Y-53418123D01*
X64775310Y-53401328D01*
X64841445Y-53423865D01*
X64880483Y-53468917D01*
X64915282Y-53537213D01*
X64927715Y-53561614D01*
X65048028Y-53727213D01*
X65192786Y-53871971D01*
X65347749Y-53984556D01*
X65358390Y-53992287D01*
X65451247Y-54039600D01*
X65540776Y-54085218D01*
X65540778Y-54085218D01*
X65540781Y-54085220D01*
X65617597Y-54110179D01*
X65735465Y-54148477D01*
X65836557Y-54164488D01*
X65937648Y-54180500D01*
X65937649Y-54180500D01*
X66142350Y-54180500D01*
X66142352Y-54180500D01*
X66344534Y-54148477D01*
X66344539Y-54148475D01*
X66348190Y-54147897D01*
X66417484Y-54156851D01*
X66455270Y-54182689D01*
X67604899Y-55332318D01*
X67638384Y-55393641D01*
X67633400Y-55463333D01*
X67604899Y-55507680D01*
X63915269Y-59197310D01*
X63853946Y-59230795D01*
X63808190Y-59232102D01*
X63749704Y-59222838D01*
X63602352Y-59199500D01*
X63397648Y-59199500D01*
X63373329Y-59203351D01*
X63195465Y-59231522D01*
X63000776Y-59294781D01*
X62818386Y-59387715D01*
X62652786Y-59508028D01*
X62508028Y-59652786D01*
X62387715Y-59818386D01*
X62340485Y-59911080D01*
X62292510Y-59961876D01*
X62224689Y-59978671D01*
X62158554Y-59956134D01*
X62119515Y-59911080D01*
X62113869Y-59900000D01*
X62072287Y-59818390D01*
X62040092Y-59774077D01*
X61951971Y-59652786D01*
X61807213Y-59508028D01*
X61641613Y-59387715D01*
X61641612Y-59387714D01*
X61641610Y-59387713D01*
X61584384Y-59358555D01*
X61459223Y-59294781D01*
X61264534Y-59231522D01*
X61089995Y-59203878D01*
X61062352Y-59199500D01*
X60857648Y-59199500D01*
X60833329Y-59203351D01*
X60655465Y-59231522D01*
X60460776Y-59294781D01*
X60278386Y-59387715D01*
X60112786Y-59508028D01*
X59968028Y-59652786D01*
X59847715Y-59818386D01*
X59754781Y-60000776D01*
X59691522Y-60195465D01*
X59664018Y-60369124D01*
X59659500Y-60397648D01*
X59659500Y-60602352D01*
X59670487Y-60671718D01*
X59691523Y-60804534D01*
X59691522Y-60804534D01*
X59754781Y-60999223D01*
X59818691Y-61124653D01*
X59847585Y-61181359D01*
X59847715Y-61181613D01*
X59968028Y-61347213D01*
X60112786Y-61491971D01*
X60233226Y-61579474D01*
X60278390Y-61612287D01*
X60386353Y-61667297D01*
X60460776Y-61705218D01*
X60460778Y-61705218D01*
X60460781Y-61705220D01*
X60565137Y-61739127D01*
X60655465Y-61768477D01*
X60756557Y-61784488D01*
X60857648Y-61800500D01*
X60857649Y-61800500D01*
X61062350Y-61800500D01*
X61062352Y-61800500D01*
X61264534Y-61768477D01*
X61264539Y-61768475D01*
X61268190Y-61767897D01*
X61337484Y-61776851D01*
X61375270Y-61802689D01*
X62472589Y-62900008D01*
X62559992Y-62987411D01*
X62559993Y-62987412D01*
X62662760Y-63056079D01*
X62662773Y-63056086D01*
X62776960Y-63103383D01*
X62776965Y-63103385D01*
X62776969Y-63103385D01*
X62776970Y-63103386D01*
X62895093Y-63126883D01*
X62957004Y-63159268D01*
X62991578Y-63219984D01*
X62987838Y-63289753D01*
X62946971Y-63346425D01*
X62881953Y-63372007D01*
X62870901Y-63372500D01*
X59898195Y-63372500D01*
X59776970Y-63396613D01*
X59776960Y-63396616D01*
X59662773Y-63443913D01*
X59662761Y-63443920D01*
X59597675Y-63487410D01*
X59559989Y-63512590D01*
X58359398Y-64713181D01*
X58298075Y-64746666D01*
X58271717Y-64749500D01*
X57162129Y-64749500D01*
X57162123Y-64749501D01*
X57102516Y-64755908D01*
X56967671Y-64806202D01*
X56967664Y-64806206D01*
X56852455Y-64892452D01*
X56852452Y-64892455D01*
X56766206Y-65007664D01*
X56766202Y-65007671D01*
X56715908Y-65142516D01*
X56710096Y-65196576D01*
X56683357Y-65261127D01*
X56625964Y-65300974D01*
X56556139Y-65303467D01*
X56507698Y-65274724D01*
X56499474Y-65274076D01*
X55820000Y-65953551D01*
X55820000Y-65947339D01*
X55792741Y-65845606D01*
X55740080Y-65754394D01*
X55665606Y-65679920D01*
X55574394Y-65627259D01*
X55472661Y-65600000D01*
X55466446Y-65600000D01*
X56145922Y-64920524D01*
X56145921Y-64920523D01*
X56101359Y-64888147D01*
X56101350Y-64888141D01*
X55919031Y-64795244D01*
X55724417Y-64732009D01*
X55522317Y-64700000D01*
X55317683Y-64700000D01*
X55115582Y-64732009D01*
X54920968Y-64795244D01*
X54738644Y-64888143D01*
X54694077Y-64920523D01*
X54694077Y-64920524D01*
X55373554Y-65600000D01*
X55367339Y-65600000D01*
X55265606Y-65627259D01*
X55174394Y-65679920D01*
X55099920Y-65754394D01*
X55047259Y-65845606D01*
X55020000Y-65947339D01*
X55020000Y-65953553D01*
X54340524Y-65274077D01*
X54340523Y-65274077D01*
X54308143Y-65318644D01*
X54215244Y-65500968D01*
X54152009Y-65695582D01*
X54120000Y-65897682D01*
X54120000Y-66102317D01*
X54152009Y-66304417D01*
X54215244Y-66499031D01*
X54308141Y-66681350D01*
X54308147Y-66681359D01*
X54340523Y-66725921D01*
X54340524Y-66725922D01*
X55020000Y-66046446D01*
X55020000Y-66052661D01*
X55047259Y-66154394D01*
X55099920Y-66245606D01*
X55174394Y-66320080D01*
X55265606Y-66372741D01*
X55367339Y-66400000D01*
X55373553Y-66400000D01*
X54694076Y-67079474D01*
X54738650Y-67111859D01*
X54920968Y-67204755D01*
X55115582Y-67267990D01*
X55317683Y-67300000D01*
X55522317Y-67300000D01*
X55724417Y-67267990D01*
X55919031Y-67204755D01*
X56101349Y-67111859D01*
X56145922Y-67079474D01*
X55466447Y-66400000D01*
X55472661Y-66400000D01*
X55574394Y-66372741D01*
X55665606Y-66320080D01*
X55740080Y-66245606D01*
X55792741Y-66154394D01*
X55820000Y-66052661D01*
X55820000Y-66046447D01*
X56499474Y-66725921D01*
X56510823Y-66725028D01*
X56541818Y-66701128D01*
X56611431Y-66695149D01*
X56673226Y-66727754D01*
X56707584Y-66788592D01*
X56710097Y-66803424D01*
X56715909Y-66857483D01*
X56766202Y-66992328D01*
X56766206Y-66992335D01*
X56852452Y-67107544D01*
X56852455Y-67107547D01*
X56967664Y-67193793D01*
X56967671Y-67193797D01*
X57102517Y-67244091D01*
X57102516Y-67244091D01*
X57109444Y-67244835D01*
X57162127Y-67250500D01*
X58757872Y-67250499D01*
X58817483Y-67244091D01*
X58952331Y-67193796D01*
X59067546Y-67107546D01*
X59153796Y-66992331D01*
X59204091Y-66857483D01*
X59209823Y-66804162D01*
X59236560Y-66739615D01*
X59293952Y-66699767D01*
X59363777Y-66697273D01*
X59423866Y-66732925D01*
X59433430Y-66744536D01*
X59508028Y-66847212D01*
X59508032Y-66847217D01*
X59652786Y-66991971D01*
X59807749Y-67104556D01*
X59818390Y-67112287D01*
X59934607Y-67171503D01*
X60000776Y-67205218D01*
X60000778Y-67205218D01*
X60000781Y-67205220D01*
X60105137Y-67239127D01*
X60195465Y-67268477D01*
X60296557Y-67284488D01*
X60397648Y-67300500D01*
X60397649Y-67300500D01*
X60602351Y-67300500D01*
X60602352Y-67300500D01*
X60804534Y-67268477D01*
X60999219Y-67205220D01*
X61181610Y-67112287D01*
X61274590Y-67044732D01*
X61347213Y-66991971D01*
X61347215Y-66991968D01*
X61347219Y-66991966D01*
X61491966Y-66847219D01*
X61491968Y-66847215D01*
X61491971Y-66847213D01*
X61570144Y-66739615D01*
X61612287Y-66681610D01*
X61705220Y-66499219D01*
X61768477Y-66304534D01*
X61800500Y-66102352D01*
X61800500Y-65897648D01*
X61768477Y-65695465D01*
X61722077Y-65552661D01*
X61705220Y-65500781D01*
X61705218Y-65500778D01*
X61705218Y-65500776D01*
X61626154Y-65345606D01*
X61612287Y-65318390D01*
X61580092Y-65274077D01*
X61491971Y-65152786D01*
X61347213Y-65008028D01*
X61181613Y-64887715D01*
X61181612Y-64887714D01*
X61181610Y-64887713D01*
X61131115Y-64861984D01*
X61080320Y-64814010D01*
X61063525Y-64746189D01*
X61086063Y-64680054D01*
X61140778Y-64636603D01*
X61187411Y-64627500D01*
X63918719Y-64627500D01*
X63985758Y-64647185D01*
X64006400Y-64663819D01*
X64347197Y-65004616D01*
X64380682Y-65065939D01*
X64377447Y-65130614D01*
X64363985Y-65172045D01*
X64336496Y-65345606D01*
X64329500Y-65389778D01*
X64329500Y-65610222D01*
X64344029Y-65701954D01*
X64363985Y-65827952D01*
X64432103Y-66037603D01*
X64432104Y-66037606D01*
X64491612Y-66154394D01*
X64528057Y-66225921D01*
X64532187Y-66234025D01*
X64661752Y-66412358D01*
X64661756Y-66412363D01*
X64817636Y-66568243D01*
X64817641Y-66568247D01*
X64919606Y-66642328D01*
X64995978Y-66697815D01*
X65123937Y-66763014D01*
X65192393Y-66797895D01*
X65192396Y-66797896D01*
X65242841Y-66814286D01*
X65402049Y-66866015D01*
X65619778Y-66900500D01*
X65619779Y-66900500D01*
X65840221Y-66900500D01*
X65840222Y-66900500D01*
X66057951Y-66866015D01*
X66267606Y-66797895D01*
X66464022Y-66697815D01*
X66642365Y-66568242D01*
X66692536Y-66518070D01*
X66753857Y-66484586D01*
X66823548Y-66489570D01*
X66879482Y-66531441D01*
X66896398Y-66562419D01*
X66926202Y-66642328D01*
X66926206Y-66642335D01*
X67012452Y-66757544D01*
X67012455Y-66757547D01*
X67127664Y-66843793D01*
X67127671Y-66843797D01*
X67262517Y-66894091D01*
X67262516Y-66894091D01*
X67269444Y-66894835D01*
X67322127Y-66900500D01*
X69217872Y-66900499D01*
X69277483Y-66894091D01*
X69412331Y-66843796D01*
X69527546Y-66757546D01*
X69613796Y-66642331D01*
X69664091Y-66507483D01*
X69670500Y-66447873D01*
X69670499Y-65397648D01*
X70449500Y-65397648D01*
X70449500Y-65602351D01*
X70481522Y-65804534D01*
X70544781Y-65999223D01*
X70584323Y-66076827D01*
X70637585Y-66181359D01*
X70637715Y-66181613D01*
X70758028Y-66347213D01*
X70902786Y-66491971D01*
X71023226Y-66579474D01*
X71068390Y-66612287D01*
X71184607Y-66671503D01*
X71250776Y-66705218D01*
X71250778Y-66705218D01*
X71250781Y-66705220D01*
X71339434Y-66734025D01*
X71445465Y-66768477D01*
X71546557Y-66784488D01*
X71647648Y-66800500D01*
X71647649Y-66800500D01*
X71852351Y-66800500D01*
X71852352Y-66800500D01*
X72054534Y-66768477D01*
X72249219Y-66705220D01*
X72431610Y-66612287D01*
X72524590Y-66544732D01*
X72597213Y-66491971D01*
X72597215Y-66491968D01*
X72597219Y-66491966D01*
X72741966Y-66347219D01*
X72741968Y-66347215D01*
X72741971Y-66347213D01*
X72862286Y-66181611D01*
X72862415Y-66181359D01*
X72889795Y-66127621D01*
X72937769Y-66076826D01*
X73005589Y-66060030D01*
X73071725Y-66082567D01*
X73110765Y-66127621D01*
X73138141Y-66181350D01*
X73138147Y-66181359D01*
X73170523Y-66225921D01*
X73170524Y-66225922D01*
X73850000Y-65546446D01*
X73850000Y-65552661D01*
X73877259Y-65654394D01*
X73929920Y-65745606D01*
X74004394Y-65820080D01*
X74095606Y-65872741D01*
X74197339Y-65900000D01*
X74203553Y-65900000D01*
X73524076Y-66579474D01*
X73568650Y-66611859D01*
X73750968Y-66704755D01*
X73945582Y-66767990D01*
X74147683Y-66800000D01*
X74352317Y-66800000D01*
X74554417Y-66767990D01*
X74749031Y-66704755D01*
X74931349Y-66611859D01*
X74975921Y-66579474D01*
X74296447Y-65900000D01*
X74302661Y-65900000D01*
X74404394Y-65872741D01*
X74495606Y-65820080D01*
X74570080Y-65745606D01*
X74622741Y-65654394D01*
X74650000Y-65552661D01*
X74650000Y-65546447D01*
X75329474Y-66225921D01*
X75361859Y-66181349D01*
X75454755Y-65999031D01*
X75517990Y-65804417D01*
X75550000Y-65602317D01*
X75550000Y-65397682D01*
X76390000Y-65397682D01*
X76390000Y-65602317D01*
X76422009Y-65804417D01*
X76485244Y-65999031D01*
X76578141Y-66181350D01*
X76578147Y-66181359D01*
X76610523Y-66225921D01*
X76610524Y-66225922D01*
X77290000Y-65546446D01*
X77290000Y-65552661D01*
X77317259Y-65654394D01*
X77369920Y-65745606D01*
X77444394Y-65820080D01*
X77535606Y-65872741D01*
X77637339Y-65900000D01*
X77643553Y-65900000D01*
X76964076Y-66579474D01*
X77008650Y-66611859D01*
X77190968Y-66704755D01*
X77385582Y-66767990D01*
X77587683Y-66800000D01*
X77792317Y-66800000D01*
X77994417Y-66767990D01*
X78189031Y-66704755D01*
X78371349Y-66611859D01*
X78415921Y-66579474D01*
X77736447Y-65900000D01*
X77742661Y-65900000D01*
X77844394Y-65872741D01*
X77935606Y-65820080D01*
X78010080Y-65745606D01*
X78062741Y-65654394D01*
X78090000Y-65552661D01*
X78090000Y-65546447D01*
X78769474Y-66225921D01*
X78801859Y-66181349D01*
X78894755Y-65999031D01*
X78957990Y-65804417D01*
X78990000Y-65602317D01*
X78990000Y-65397682D01*
X78989995Y-65397648D01*
X84009500Y-65397648D01*
X84009500Y-65602351D01*
X84041522Y-65804534D01*
X84104781Y-65999223D01*
X84144323Y-66076827D01*
X84197585Y-66181359D01*
X84197715Y-66181613D01*
X84318028Y-66347213D01*
X84462786Y-66491971D01*
X84583226Y-66579474D01*
X84628390Y-66612287D01*
X84744607Y-66671503D01*
X84810776Y-66705218D01*
X84810778Y-66705218D01*
X84810781Y-66705220D01*
X84899434Y-66734025D01*
X85005465Y-66768477D01*
X85106557Y-66784488D01*
X85207648Y-66800500D01*
X85207649Y-66800500D01*
X85412351Y-66800500D01*
X85412352Y-66800500D01*
X85614534Y-66768477D01*
X85809219Y-66705220D01*
X85991610Y-66612287D01*
X86084590Y-66544732D01*
X86157213Y-66491971D01*
X86157215Y-66491968D01*
X86157219Y-66491966D01*
X86301966Y-66347219D01*
X86301968Y-66347215D01*
X86301971Y-66347213D01*
X86374359Y-66247578D01*
X86422287Y-66181610D01*
X86515220Y-65999219D01*
X86578477Y-65804534D01*
X86610500Y-65602352D01*
X86610500Y-65397682D01*
X87450000Y-65397682D01*
X87450000Y-65602317D01*
X87482009Y-65804417D01*
X87545244Y-65999031D01*
X87638141Y-66181350D01*
X87638147Y-66181359D01*
X87670523Y-66225921D01*
X87670524Y-66225922D01*
X88350000Y-65546446D01*
X88350000Y-65552661D01*
X88377259Y-65654394D01*
X88429920Y-65745606D01*
X88504394Y-65820080D01*
X88595606Y-65872741D01*
X88697339Y-65900000D01*
X88703553Y-65900000D01*
X88024076Y-66579474D01*
X88068650Y-66611859D01*
X88250968Y-66704755D01*
X88445582Y-66767990D01*
X88647683Y-66800000D01*
X88852317Y-66800000D01*
X89054417Y-66767990D01*
X89249031Y-66704755D01*
X89431349Y-66611859D01*
X89475921Y-66579474D01*
X88796447Y-65900000D01*
X88802661Y-65900000D01*
X88904394Y-65872741D01*
X88995606Y-65820080D01*
X89070080Y-65745606D01*
X89122741Y-65654394D01*
X89150000Y-65552661D01*
X89150000Y-65546447D01*
X89829474Y-66225921D01*
X89861859Y-66181349D01*
X89889233Y-66127624D01*
X89937207Y-66076827D01*
X90005028Y-66060031D01*
X90071163Y-66082567D01*
X90110203Y-66127621D01*
X90137713Y-66181611D01*
X90258028Y-66347213D01*
X90402786Y-66491971D01*
X90523226Y-66579474D01*
X90568390Y-66612287D01*
X90684607Y-66671503D01*
X90750776Y-66705218D01*
X90750778Y-66705218D01*
X90750781Y-66705220D01*
X90839434Y-66734025D01*
X90945465Y-66768477D01*
X91046557Y-66784488D01*
X91147648Y-66800500D01*
X91147649Y-66800500D01*
X91352351Y-66800500D01*
X91352352Y-66800500D01*
X91554534Y-66768477D01*
X91749219Y-66705220D01*
X91931610Y-66612287D01*
X92024590Y-66544732D01*
X92097213Y-66491971D01*
X92097215Y-66491968D01*
X92097219Y-66491966D01*
X92241966Y-66347219D01*
X92241968Y-66347215D01*
X92241971Y-66347213D01*
X92314359Y-66247578D01*
X92362287Y-66181610D01*
X92455220Y-65999219D01*
X92518477Y-65804534D01*
X92550500Y-65602352D01*
X92550500Y-65397648D01*
X92518477Y-65195466D01*
X92518476Y-65195462D01*
X92518476Y-65195461D01*
X92483275Y-65087124D01*
X92471906Y-65052135D01*
X93059500Y-65052135D01*
X93059500Y-66947870D01*
X93059501Y-66947876D01*
X93065908Y-67007483D01*
X93116202Y-67142328D01*
X93116206Y-67142335D01*
X93202452Y-67257544D01*
X93202455Y-67257547D01*
X93317664Y-67343793D01*
X93317671Y-67343797D01*
X93452517Y-67394091D01*
X93452516Y-67394091D01*
X93459444Y-67394835D01*
X93512127Y-67400500D01*
X95407872Y-67400499D01*
X95467483Y-67394091D01*
X95602331Y-67343796D01*
X95717546Y-67257546D01*
X95803796Y-67142331D01*
X95831429Y-67068243D01*
X95833601Y-67062420D01*
X95875471Y-67006486D01*
X95940936Y-66982068D01*
X96009209Y-66996919D01*
X96037464Y-67018071D01*
X96087636Y-67068243D01*
X96087641Y-67068247D01*
X96148258Y-67112287D01*
X96265978Y-67197815D01*
X96394375Y-67263237D01*
X96462393Y-67297895D01*
X96462396Y-67297896D01*
X96567221Y-67331955D01*
X96672049Y-67366015D01*
X96889778Y-67400500D01*
X96889779Y-67400500D01*
X97110221Y-67400500D01*
X97110222Y-67400500D01*
X97327951Y-67366015D01*
X97531127Y-67300000D01*
X97537603Y-67297896D01*
X97537606Y-67297895D01*
X97595341Y-67268477D01*
X97734022Y-67197815D01*
X97912365Y-67068242D01*
X98068242Y-66912365D01*
X98197815Y-66734022D01*
X98297895Y-66537606D01*
X98304242Y-66518072D01*
X98348456Y-66381995D01*
X103199500Y-66381995D01*
X103199500Y-66618004D01*
X103199501Y-66618020D01*
X103229675Y-66847219D01*
X103230307Y-66852014D01*
X103267904Y-66992328D01*
X103291394Y-67079993D01*
X103381714Y-67298045D01*
X103381719Y-67298056D01*
X103440866Y-67400500D01*
X103499727Y-67502450D01*
X103499729Y-67502453D01*
X103499730Y-67502454D01*
X103643406Y-67689697D01*
X103643412Y-67689704D01*
X103810295Y-67856587D01*
X103810301Y-67856592D01*
X103997550Y-68000273D01*
X104073480Y-68044111D01*
X104201943Y-68118280D01*
X104201948Y-68118282D01*
X104201951Y-68118284D01*
X104420007Y-68208606D01*
X104647986Y-68269693D01*
X104881989Y-68300500D01*
X104881996Y-68300500D01*
X105118004Y-68300500D01*
X105118011Y-68300500D01*
X105352014Y-68269693D01*
X105579993Y-68208606D01*
X105798049Y-68118284D01*
X106002450Y-68000273D01*
X106189699Y-67856592D01*
X106356592Y-67689699D01*
X106500273Y-67502450D01*
X106618284Y-67298049D01*
X106708606Y-67079993D01*
X106769693Y-66852014D01*
X106800500Y-66618011D01*
X106800500Y-66381989D01*
X106769693Y-66147986D01*
X106708606Y-65920007D01*
X106618284Y-65701951D01*
X106618282Y-65701948D01*
X106618280Y-65701943D01*
X106565324Y-65610222D01*
X106500273Y-65497550D01*
X106417577Y-65389778D01*
X106356593Y-65310302D01*
X106356587Y-65310295D01*
X106189704Y-65143412D01*
X106189697Y-65143406D01*
X106002454Y-64999730D01*
X106002453Y-64999729D01*
X106002450Y-64999727D01*
X105898946Y-64939969D01*
X105798056Y-64881719D01*
X105798045Y-64881714D01*
X105579993Y-64791394D01*
X105515365Y-64774077D01*
X105352014Y-64730307D01*
X105352013Y-64730306D01*
X105352010Y-64730306D01*
X105118020Y-64699501D01*
X105118017Y-64699500D01*
X105118011Y-64699500D01*
X104881989Y-64699500D01*
X104881983Y-64699500D01*
X104881979Y-64699501D01*
X104647989Y-64730306D01*
X104420006Y-64791394D01*
X104201954Y-64881714D01*
X104201943Y-64881719D01*
X103997545Y-64999730D01*
X103810302Y-65143406D01*
X103810295Y-65143412D01*
X103643412Y-65310295D01*
X103643406Y-65310302D01*
X103499730Y-65497545D01*
X103499727Y-65497549D01*
X103499727Y-65497550D01*
X103497862Y-65500781D01*
X103381719Y-65701943D01*
X103381714Y-65701954D01*
X103291394Y-65920006D01*
X103230306Y-66147989D01*
X103199501Y-66381979D01*
X103199500Y-66381995D01*
X98348456Y-66381995D01*
X98362227Y-66339612D01*
X98362227Y-66339611D01*
X98366014Y-66327955D01*
X98366014Y-66327954D01*
X98366013Y-66327954D01*
X98366015Y-66327951D01*
X98400500Y-66110222D01*
X98400500Y-65889778D01*
X98366015Y-65672049D01*
X98310114Y-65500000D01*
X98297896Y-65462396D01*
X98297895Y-65462393D01*
X98238388Y-65345606D01*
X98197815Y-65265978D01*
X98146670Y-65195582D01*
X98068247Y-65087641D01*
X98068243Y-65087636D01*
X97912363Y-64931756D01*
X97912358Y-64931752D01*
X97734025Y-64802187D01*
X97734024Y-64802186D01*
X97734022Y-64802185D01*
X97670503Y-64769820D01*
X97537606Y-64702104D01*
X97537603Y-64702103D01*
X97327952Y-64633985D01*
X97219086Y-64616742D01*
X97110222Y-64599500D01*
X96889778Y-64599500D01*
X96817201Y-64610995D01*
X96672047Y-64633985D01*
X96462396Y-64702103D01*
X96462393Y-64702104D01*
X96265974Y-64802187D01*
X96087641Y-64931752D01*
X96087636Y-64931756D01*
X96037463Y-64981929D01*
X95976140Y-65015413D01*
X95906448Y-65010428D01*
X95850515Y-64968557D01*
X95833601Y-64937580D01*
X95803797Y-64857671D01*
X95803793Y-64857664D01*
X95717547Y-64742455D01*
X95717544Y-64742452D01*
X95602335Y-64656206D01*
X95602328Y-64656202D01*
X95467482Y-64605908D01*
X95467483Y-64605908D01*
X95407883Y-64599501D01*
X95407881Y-64599500D01*
X95407873Y-64599500D01*
X95407864Y-64599500D01*
X93512129Y-64599500D01*
X93512123Y-64599501D01*
X93452516Y-64605908D01*
X93317671Y-64656202D01*
X93317664Y-64656206D01*
X93202455Y-64742452D01*
X93202452Y-64742455D01*
X93116206Y-64857664D01*
X93116202Y-64857671D01*
X93065908Y-64992517D01*
X93059501Y-65052116D01*
X93059500Y-65052135D01*
X92471906Y-65052135D01*
X92459974Y-65015413D01*
X92455220Y-65000781D01*
X92455218Y-65000778D01*
X92455218Y-65000776D01*
X92400025Y-64892455D01*
X92362287Y-64818390D01*
X92350515Y-64802187D01*
X92241971Y-64652786D01*
X92097213Y-64508028D01*
X91931613Y-64387715D01*
X91931612Y-64387714D01*
X91931610Y-64387713D01*
X91872636Y-64357664D01*
X91749223Y-64294781D01*
X91554534Y-64231522D01*
X91379995Y-64203878D01*
X91352352Y-64199500D01*
X91147648Y-64199500D01*
X91123329Y-64203351D01*
X90945465Y-64231522D01*
X90750776Y-64294781D01*
X90568386Y-64387715D01*
X90402786Y-64508028D01*
X90258028Y-64652786D01*
X90137714Y-64818386D01*
X90110203Y-64872379D01*
X90062227Y-64923174D01*
X89994406Y-64939968D01*
X89928272Y-64917429D01*
X89889234Y-64872376D01*
X89861861Y-64818652D01*
X89829474Y-64774077D01*
X89829474Y-64774076D01*
X89150000Y-65453551D01*
X89150000Y-65447339D01*
X89122741Y-65345606D01*
X89070080Y-65254394D01*
X88995606Y-65179920D01*
X88904394Y-65127259D01*
X88802661Y-65100000D01*
X88796446Y-65100000D01*
X89475922Y-64420524D01*
X89475921Y-64420523D01*
X89431359Y-64388147D01*
X89431350Y-64388141D01*
X89249031Y-64295244D01*
X89054417Y-64232009D01*
X88852317Y-64200000D01*
X88647683Y-64200000D01*
X88445582Y-64232009D01*
X88250968Y-64295244D01*
X88068644Y-64388143D01*
X88024077Y-64420523D01*
X88024077Y-64420524D01*
X88703554Y-65100000D01*
X88697339Y-65100000D01*
X88595606Y-65127259D01*
X88504394Y-65179920D01*
X88429920Y-65254394D01*
X88377259Y-65345606D01*
X88350000Y-65447339D01*
X88350000Y-65453553D01*
X87670524Y-64774077D01*
X87670523Y-64774077D01*
X87638143Y-64818644D01*
X87545244Y-65000968D01*
X87482009Y-65195582D01*
X87450000Y-65397682D01*
X86610500Y-65397682D01*
X86610500Y-65397648D01*
X86609367Y-65390494D01*
X86578477Y-65195465D01*
X86547458Y-65100000D01*
X86515220Y-65000781D01*
X86515218Y-65000778D01*
X86515218Y-65000776D01*
X86460025Y-64892455D01*
X86422287Y-64818390D01*
X86410515Y-64802187D01*
X86301971Y-64652786D01*
X86157213Y-64508028D01*
X85991613Y-64387715D01*
X85991612Y-64387714D01*
X85991610Y-64387713D01*
X85932636Y-64357664D01*
X85809223Y-64294781D01*
X85614534Y-64231522D01*
X85439995Y-64203878D01*
X85412352Y-64199500D01*
X85207648Y-64199500D01*
X85183329Y-64203351D01*
X85005465Y-64231522D01*
X84810776Y-64294781D01*
X84628386Y-64387715D01*
X84462786Y-64508028D01*
X84318028Y-64652786D01*
X84197715Y-64818386D01*
X84104781Y-65000776D01*
X84041522Y-65195465D01*
X84009500Y-65397648D01*
X78989995Y-65397648D01*
X78957990Y-65195582D01*
X78894755Y-65000968D01*
X78801859Y-64818650D01*
X78769474Y-64774077D01*
X78769474Y-64774076D01*
X78090000Y-65453551D01*
X78090000Y-65447339D01*
X78062741Y-65345606D01*
X78010080Y-65254394D01*
X77935606Y-65179920D01*
X77844394Y-65127259D01*
X77742661Y-65100000D01*
X77736446Y-65100000D01*
X78415922Y-64420524D01*
X78415921Y-64420523D01*
X78371359Y-64388147D01*
X78371350Y-64388141D01*
X78189031Y-64295244D01*
X77994417Y-64232009D01*
X77792317Y-64200000D01*
X77587683Y-64200000D01*
X77385582Y-64232009D01*
X77190968Y-64295244D01*
X77008644Y-64388143D01*
X76964077Y-64420523D01*
X76964077Y-64420524D01*
X77643554Y-65100000D01*
X77637339Y-65100000D01*
X77535606Y-65127259D01*
X77444394Y-65179920D01*
X77369920Y-65254394D01*
X77317259Y-65345606D01*
X77290000Y-65447339D01*
X77290000Y-65453553D01*
X76610524Y-64774077D01*
X76610523Y-64774077D01*
X76578143Y-64818644D01*
X76485244Y-65000968D01*
X76422009Y-65195582D01*
X76390000Y-65397682D01*
X75550000Y-65397682D01*
X75517990Y-65195582D01*
X75454755Y-65000968D01*
X75361859Y-64818650D01*
X75329474Y-64774077D01*
X75329474Y-64774076D01*
X74650000Y-65453551D01*
X74650000Y-65447339D01*
X74622741Y-65345606D01*
X74570080Y-65254394D01*
X74495606Y-65179920D01*
X74404394Y-65127259D01*
X74302661Y-65100000D01*
X74296446Y-65100000D01*
X74975922Y-64420524D01*
X74975921Y-64420523D01*
X74931359Y-64388147D01*
X74931350Y-64388141D01*
X74749031Y-64295244D01*
X74554417Y-64232009D01*
X74352317Y-64200000D01*
X74147683Y-64200000D01*
X73945582Y-64232009D01*
X73750968Y-64295244D01*
X73568644Y-64388143D01*
X73524077Y-64420523D01*
X73524077Y-64420524D01*
X74203554Y-65100000D01*
X74197339Y-65100000D01*
X74095606Y-65127259D01*
X74004394Y-65179920D01*
X73929920Y-65254394D01*
X73877259Y-65345606D01*
X73850000Y-65447339D01*
X73850000Y-65453553D01*
X73170524Y-64774077D01*
X73170523Y-64774077D01*
X73138143Y-64818644D01*
X73110765Y-64872378D01*
X73062790Y-64923174D01*
X72994969Y-64939969D01*
X72928834Y-64917431D01*
X72889795Y-64872378D01*
X72889794Y-64872376D01*
X72862287Y-64818390D01*
X72862285Y-64818387D01*
X72862284Y-64818385D01*
X72741971Y-64652786D01*
X72597213Y-64508028D01*
X72431613Y-64387715D01*
X72431612Y-64387714D01*
X72431610Y-64387713D01*
X72372636Y-64357664D01*
X72249223Y-64294781D01*
X72054534Y-64231522D01*
X71879995Y-64203878D01*
X71852352Y-64199500D01*
X71647648Y-64199500D01*
X71623329Y-64203351D01*
X71445465Y-64231522D01*
X71250776Y-64294781D01*
X71068386Y-64387715D01*
X70902786Y-64508028D01*
X70758028Y-64652786D01*
X70637715Y-64818386D01*
X70544781Y-65000776D01*
X70481522Y-65195465D01*
X70449500Y-65397648D01*
X69670499Y-65397648D01*
X69670499Y-64552128D01*
X69664091Y-64492517D01*
X69637239Y-64420524D01*
X69613797Y-64357671D01*
X69613793Y-64357664D01*
X69527547Y-64242455D01*
X69527544Y-64242452D01*
X69412335Y-64156206D01*
X69412328Y-64156202D01*
X69277482Y-64105908D01*
X69277483Y-64105908D01*
X69217883Y-64099501D01*
X69217881Y-64099500D01*
X69217873Y-64099500D01*
X69217865Y-64099500D01*
X68317280Y-64099500D01*
X68250241Y-64079815D01*
X68204486Y-64027011D01*
X68194542Y-63957853D01*
X68223567Y-63894297D01*
X68229599Y-63887819D01*
X68453600Y-63663819D01*
X68514923Y-63630334D01*
X68541281Y-63627500D01*
X88681804Y-63627500D01*
X88681805Y-63627499D01*
X88803035Y-63603386D01*
X88883784Y-63569937D01*
X88917233Y-63556083D01*
X89020008Y-63487411D01*
X89107411Y-63400008D01*
X90860600Y-61646817D01*
X90921923Y-61613333D01*
X90948281Y-61610499D01*
X92157871Y-61610499D01*
X92157872Y-61610499D01*
X92217483Y-61604091D01*
X92352331Y-61553796D01*
X92467546Y-61467546D01*
X92553796Y-61352331D01*
X92604091Y-61217483D01*
X92610500Y-61157873D01*
X92610499Y-59462128D01*
X92604091Y-59402517D01*
X92598731Y-59388147D01*
X92553797Y-59267671D01*
X92553793Y-59267664D01*
X92467547Y-59152455D01*
X92467544Y-59152452D01*
X92352335Y-59066206D01*
X92352328Y-59066202D01*
X92217482Y-59015908D01*
X92217483Y-59015908D01*
X92157883Y-59009501D01*
X92157881Y-59009500D01*
X92157873Y-59009500D01*
X92157864Y-59009500D01*
X90462129Y-59009500D01*
X90462123Y-59009501D01*
X90402516Y-59015908D01*
X90267671Y-59066202D01*
X90267664Y-59066206D01*
X90152455Y-59152452D01*
X90152452Y-59152455D01*
X90066206Y-59267664D01*
X90066202Y-59267671D01*
X90015908Y-59402517D01*
X90011032Y-59447876D01*
X90009501Y-59462123D01*
X90009500Y-59462135D01*
X90009500Y-60671718D01*
X89989815Y-60738757D01*
X89973181Y-60759399D01*
X88396400Y-62336181D01*
X88335077Y-62369666D01*
X88308719Y-62372500D01*
X70434281Y-62372500D01*
X70367242Y-62352815D01*
X70321487Y-62300011D01*
X70311543Y-62230853D01*
X70340568Y-62167297D01*
X70346600Y-62160819D01*
X70602200Y-61905218D01*
X70704730Y-61802687D01*
X70766051Y-61769204D01*
X70811807Y-61767897D01*
X70815463Y-61768476D01*
X70815466Y-61768477D01*
X71017648Y-61800500D01*
X71017649Y-61800500D01*
X71222351Y-61800500D01*
X71222352Y-61800500D01*
X71424534Y-61768477D01*
X71619219Y-61705220D01*
X71801610Y-61612287D01*
X71894590Y-61544732D01*
X71967213Y-61491971D01*
X71967215Y-61491968D01*
X71967219Y-61491966D01*
X72111966Y-61347219D01*
X72232287Y-61181610D01*
X72232289Y-61181605D01*
X72234462Y-61178615D01*
X72238795Y-61175273D01*
X72241068Y-61170297D01*
X72266164Y-61154168D01*
X72289792Y-61135949D01*
X72296465Y-61134695D01*
X72299846Y-61132523D01*
X72334781Y-61127500D01*
X72445219Y-61127500D01*
X72512258Y-61147185D01*
X72545538Y-61178615D01*
X72547710Y-61181605D01*
X72547713Y-61181610D01*
X72668030Y-61347213D01*
X72668034Y-61347219D01*
X72812786Y-61491971D01*
X72933226Y-61579474D01*
X72978390Y-61612287D01*
X73086353Y-61667297D01*
X73160776Y-61705218D01*
X73160778Y-61705218D01*
X73160781Y-61705220D01*
X73265137Y-61739127D01*
X73355465Y-61768477D01*
X73456557Y-61784488D01*
X73557648Y-61800500D01*
X73557649Y-61800500D01*
X73762351Y-61800500D01*
X73762352Y-61800500D01*
X73964534Y-61768477D01*
X74159219Y-61705220D01*
X74341610Y-61612287D01*
X74434590Y-61544732D01*
X74507213Y-61491971D01*
X74507215Y-61491968D01*
X74507219Y-61491966D01*
X74651966Y-61347219D01*
X74651968Y-61347215D01*
X74651971Y-61347213D01*
X74746225Y-61217482D01*
X74772287Y-61181610D01*
X74819795Y-61088369D01*
X74867769Y-61037573D01*
X74935590Y-61020778D01*
X75001725Y-61043315D01*
X75040765Y-61088369D01*
X75088141Y-61181350D01*
X75088147Y-61181359D01*
X75120523Y-61225921D01*
X75120524Y-61225922D01*
X75800000Y-60546446D01*
X75800000Y-60552661D01*
X75827259Y-60654394D01*
X75879920Y-60745606D01*
X75954394Y-60820080D01*
X76045606Y-60872741D01*
X76147339Y-60900000D01*
X76153553Y-60900000D01*
X75474076Y-61579474D01*
X75518650Y-61611859D01*
X75700968Y-61704755D01*
X75895582Y-61767990D01*
X76097683Y-61800000D01*
X76302317Y-61800000D01*
X76504417Y-61767990D01*
X76699031Y-61704755D01*
X76881349Y-61611859D01*
X76925921Y-61579474D01*
X76246447Y-60900000D01*
X76252661Y-60900000D01*
X76354394Y-60872741D01*
X76445606Y-60820080D01*
X76520080Y-60745606D01*
X76572741Y-60654394D01*
X76600000Y-60552661D01*
X76600000Y-60546448D01*
X77279474Y-61225922D01*
X77279474Y-61225921D01*
X77311859Y-61181349D01*
X77404755Y-60999031D01*
X77467990Y-60804417D01*
X77500000Y-60602317D01*
X77500000Y-60397682D01*
X77472208Y-60222214D01*
X77469906Y-60207682D01*
X82390000Y-60207682D01*
X82390000Y-60412317D01*
X82422009Y-60614417D01*
X82485244Y-60809031D01*
X82578141Y-60991350D01*
X82578147Y-60991359D01*
X82610523Y-61035921D01*
X82610524Y-61035922D01*
X83290000Y-60356446D01*
X83290000Y-60362661D01*
X83317259Y-60464394D01*
X83369920Y-60555606D01*
X83444394Y-60630080D01*
X83535606Y-60682741D01*
X83637339Y-60710000D01*
X83643553Y-60710000D01*
X82964076Y-61389474D01*
X83008650Y-61421859D01*
X83190968Y-61514755D01*
X83385582Y-61577990D01*
X83587683Y-61610000D01*
X83792317Y-61610000D01*
X83994417Y-61577990D01*
X84189031Y-61514755D01*
X84371349Y-61421859D01*
X84415921Y-61389474D01*
X83736447Y-60710000D01*
X83742661Y-60710000D01*
X83844394Y-60682741D01*
X83935606Y-60630080D01*
X84010080Y-60555606D01*
X84062741Y-60464394D01*
X84090000Y-60362661D01*
X84090000Y-60356447D01*
X84769474Y-61035921D01*
X84801859Y-60991349D01*
X84894755Y-60809031D01*
X84957990Y-60614417D01*
X84990000Y-60412317D01*
X84990000Y-60207682D01*
X84957990Y-60005582D01*
X84894755Y-59810968D01*
X84801859Y-59628650D01*
X84769474Y-59584077D01*
X84769474Y-59584076D01*
X84090000Y-60263551D01*
X84090000Y-60257339D01*
X84062741Y-60155606D01*
X84010080Y-60064394D01*
X83935606Y-59989920D01*
X83844394Y-59937259D01*
X83742661Y-59910000D01*
X83736446Y-59910000D01*
X84415922Y-59230524D01*
X84415921Y-59230523D01*
X84371359Y-59198147D01*
X84371350Y-59198141D01*
X84189031Y-59105244D01*
X83994417Y-59042009D01*
X83792317Y-59010000D01*
X83587683Y-59010000D01*
X83385582Y-59042009D01*
X83190968Y-59105244D01*
X83008644Y-59198143D01*
X82964077Y-59230523D01*
X82964077Y-59230524D01*
X83643554Y-59910000D01*
X83637339Y-59910000D01*
X83535606Y-59937259D01*
X83444394Y-59989920D01*
X83369920Y-60064394D01*
X83317259Y-60155606D01*
X83290000Y-60257339D01*
X83290000Y-60263553D01*
X82610524Y-59584077D01*
X82610523Y-59584077D01*
X82578143Y-59628644D01*
X82485244Y-59810968D01*
X82422009Y-60005582D01*
X82390000Y-60207682D01*
X77469906Y-60207682D01*
X77467989Y-60195582D01*
X77404755Y-60000968D01*
X77311859Y-59818650D01*
X77279474Y-59774077D01*
X77279474Y-59774076D01*
X76600000Y-60453551D01*
X76600000Y-60447339D01*
X76572741Y-60345606D01*
X76520080Y-60254394D01*
X76445606Y-60179920D01*
X76354394Y-60127259D01*
X76252661Y-60100000D01*
X76246446Y-60100000D01*
X76925922Y-59420524D01*
X76925921Y-59420523D01*
X76881359Y-59388147D01*
X76881349Y-59388141D01*
X76699031Y-59295244D01*
X76504417Y-59232009D01*
X76302317Y-59200000D01*
X76097683Y-59200000D01*
X75895582Y-59232009D01*
X75700968Y-59295244D01*
X75518644Y-59388143D01*
X75474077Y-59420523D01*
X75474077Y-59420524D01*
X76153554Y-60100000D01*
X76147339Y-60100000D01*
X76045606Y-60127259D01*
X75954394Y-60179920D01*
X75879920Y-60254394D01*
X75827259Y-60345606D01*
X75800000Y-60447339D01*
X75800000Y-60453553D01*
X75120524Y-59774077D01*
X75120523Y-59774077D01*
X75088143Y-59818644D01*
X75040765Y-59911630D01*
X74992790Y-59962426D01*
X74924969Y-59979221D01*
X74858834Y-59956683D01*
X74819795Y-59911630D01*
X74819515Y-59911080D01*
X74772287Y-59818390D01*
X74772285Y-59818387D01*
X74772284Y-59818385D01*
X74651971Y-59652786D01*
X74507213Y-59508028D01*
X74341613Y-59387715D01*
X74341612Y-59387714D01*
X74341610Y-59387713D01*
X74284384Y-59358555D01*
X74159223Y-59294781D01*
X73964534Y-59231522D01*
X73789995Y-59203878D01*
X73762352Y-59199500D01*
X73557648Y-59199500D01*
X73533329Y-59203351D01*
X73355465Y-59231522D01*
X73160776Y-59294781D01*
X72978386Y-59387715D01*
X72812786Y-59508028D01*
X72668034Y-59652780D01*
X72635627Y-59697386D01*
X72547713Y-59818390D01*
X72547710Y-59818394D01*
X72545538Y-59821385D01*
X72541204Y-59824726D01*
X72538932Y-59829703D01*
X72513835Y-59845831D01*
X72490208Y-59864051D01*
X72483534Y-59865304D01*
X72480154Y-59867477D01*
X72445219Y-59872500D01*
X72334781Y-59872500D01*
X72267742Y-59852815D01*
X72234462Y-59821385D01*
X72232289Y-59818394D01*
X72232287Y-59818390D01*
X72111966Y-59652781D01*
X71967219Y-59508034D01*
X71967213Y-59508028D01*
X71801613Y-59387715D01*
X71801612Y-59387714D01*
X71801610Y-59387713D01*
X71744384Y-59358555D01*
X71619223Y-59294781D01*
X71424534Y-59231522D01*
X71249995Y-59203878D01*
X71222352Y-59199500D01*
X71067280Y-59199500D01*
X71000241Y-59179815D01*
X70954486Y-59127011D01*
X70944542Y-59057853D01*
X70973567Y-58994297D01*
X70979599Y-58987819D01*
X71048086Y-58919333D01*
X71303600Y-58663819D01*
X71364923Y-58630334D01*
X71391281Y-58627500D01*
X84061804Y-58627500D01*
X84061805Y-58627499D01*
X84183035Y-58603386D01*
X84263784Y-58569937D01*
X84297233Y-58556083D01*
X84400008Y-58487411D01*
X84487411Y-58400008D01*
X85249259Y-57638160D01*
X96949500Y-57638160D01*
X96949500Y-57874355D01*
X96986446Y-58107626D01*
X97059433Y-58332254D01*
X97126834Y-58464534D01*
X97166657Y-58542691D01*
X97305483Y-58733768D01*
X97472490Y-58900775D01*
X97663567Y-59039601D01*
X97762991Y-59090260D01*
X97874003Y-59146824D01*
X97874005Y-59146824D01*
X97874008Y-59146826D01*
X97975861Y-59179920D01*
X98098631Y-59219811D01*
X98331903Y-59256758D01*
X98331908Y-59256758D01*
X98568097Y-59256758D01*
X98801368Y-59219811D01*
X99025992Y-59146826D01*
X99236433Y-59039601D01*
X99427510Y-58900775D01*
X99594517Y-58733768D01*
X99733343Y-58542691D01*
X99840568Y-58332250D01*
X99913553Y-58107626D01*
X99922680Y-58050000D01*
X99950500Y-57874355D01*
X99950500Y-57638160D01*
X101949500Y-57638160D01*
X101949500Y-57874355D01*
X101986446Y-58107626D01*
X102059433Y-58332254D01*
X102126834Y-58464534D01*
X102166657Y-58542691D01*
X102305483Y-58733768D01*
X102472490Y-58900775D01*
X102663567Y-59039601D01*
X102762991Y-59090260D01*
X102874003Y-59146824D01*
X102874005Y-59146824D01*
X102874008Y-59146826D01*
X102975861Y-59179920D01*
X103098631Y-59219811D01*
X103331903Y-59256758D01*
X103331908Y-59256758D01*
X103568097Y-59256758D01*
X103801368Y-59219811D01*
X104025992Y-59146826D01*
X104236433Y-59039601D01*
X104427510Y-58900775D01*
X104594517Y-58733768D01*
X104733343Y-58542691D01*
X104840568Y-58332250D01*
X104913553Y-58107626D01*
X104922680Y-58050000D01*
X104950500Y-57874355D01*
X104950500Y-57638160D01*
X104913553Y-57404889D01*
X104860774Y-57242454D01*
X104840568Y-57180266D01*
X104840566Y-57180263D01*
X104840566Y-57180261D01*
X104733342Y-56969824D01*
X104722412Y-56954780D01*
X104594517Y-56778748D01*
X104427510Y-56611741D01*
X104236433Y-56472915D01*
X104225242Y-56467213D01*
X104025996Y-56365691D01*
X103801368Y-56292704D01*
X103568097Y-56255758D01*
X103568092Y-56255758D01*
X103331908Y-56255758D01*
X103331903Y-56255758D01*
X103098631Y-56292704D01*
X102874003Y-56365691D01*
X102663566Y-56472915D01*
X102554550Y-56552120D01*
X102472490Y-56611741D01*
X102472488Y-56611743D01*
X102472487Y-56611743D01*
X102305485Y-56778745D01*
X102305485Y-56778746D01*
X102305483Y-56778748D01*
X102271719Y-56825220D01*
X102166657Y-56969824D01*
X102059433Y-57180261D01*
X101986446Y-57404889D01*
X101949500Y-57638160D01*
X99950500Y-57638160D01*
X99913553Y-57404889D01*
X99860774Y-57242454D01*
X99840568Y-57180266D01*
X99840566Y-57180263D01*
X99840566Y-57180261D01*
X99733342Y-56969824D01*
X99722412Y-56954780D01*
X99594517Y-56778748D01*
X99427510Y-56611741D01*
X99236433Y-56472915D01*
X99225242Y-56467213D01*
X99025996Y-56365691D01*
X98801368Y-56292704D01*
X98568097Y-56255758D01*
X98568092Y-56255758D01*
X98331908Y-56255758D01*
X98331903Y-56255758D01*
X98098631Y-56292704D01*
X97874003Y-56365691D01*
X97663566Y-56472915D01*
X97554550Y-56552120D01*
X97472490Y-56611741D01*
X97472488Y-56611743D01*
X97472487Y-56611743D01*
X97305485Y-56778745D01*
X97305485Y-56778746D01*
X97305483Y-56778748D01*
X97271719Y-56825220D01*
X97166657Y-56969824D01*
X97059433Y-57180261D01*
X96986446Y-57404889D01*
X96949500Y-57638160D01*
X85249259Y-57638160D01*
X89861990Y-53025427D01*
X89923311Y-52991944D01*
X89993003Y-52996928D01*
X90048936Y-53038800D01*
X90067600Y-53074791D01*
X90104781Y-53189223D01*
X90151039Y-53280008D01*
X90195573Y-53367411D01*
X90197715Y-53371613D01*
X90318028Y-53537213D01*
X90462786Y-53681971D01*
X90617749Y-53794556D01*
X90628390Y-53802287D01*
X90744607Y-53861503D01*
X90810776Y-53895218D01*
X90810778Y-53895218D01*
X90810781Y-53895220D01*
X90827878Y-53900775D01*
X91005465Y-53958477D01*
X91106557Y-53974488D01*
X91207648Y-53990500D01*
X91207649Y-53990500D01*
X91412351Y-53990500D01*
X91412352Y-53990500D01*
X91614534Y-53958477D01*
X91809219Y-53895220D01*
X91991610Y-53802287D01*
X92094941Y-53727213D01*
X92157213Y-53681971D01*
X92157215Y-53681968D01*
X92157219Y-53681966D01*
X92301966Y-53537219D01*
X92301968Y-53537215D01*
X92301971Y-53537213D01*
X92354732Y-53464590D01*
X92422287Y-53371610D01*
X92515220Y-53189219D01*
X92578477Y-52994534D01*
X92610500Y-52792352D01*
X92610500Y-52638160D01*
X96949500Y-52638160D01*
X96949500Y-52874355D01*
X96986446Y-53107626D01*
X97059433Y-53332254D01*
X97136440Y-53483387D01*
X97166657Y-53542691D01*
X97305483Y-53733768D01*
X97472490Y-53900775D01*
X97663567Y-54039601D01*
X97753099Y-54085220D01*
X97874003Y-54146824D01*
X97874005Y-54146824D01*
X97874008Y-54146826D01*
X97977646Y-54180500D01*
X98098631Y-54219811D01*
X98331903Y-54256758D01*
X98331908Y-54256758D01*
X98568097Y-54256758D01*
X98801368Y-54219811D01*
X99025992Y-54146826D01*
X99236433Y-54039601D01*
X99427510Y-53900775D01*
X99594517Y-53733768D01*
X99733343Y-53542691D01*
X99840568Y-53332250D01*
X99913553Y-53107626D01*
X99931875Y-52991944D01*
X99950500Y-52874355D01*
X99950500Y-52638160D01*
X101949500Y-52638160D01*
X101949500Y-52874355D01*
X101986446Y-53107626D01*
X102059433Y-53332254D01*
X102136440Y-53483387D01*
X102166657Y-53542691D01*
X102305483Y-53733768D01*
X102472490Y-53900775D01*
X102663567Y-54039601D01*
X102753099Y-54085220D01*
X102874003Y-54146824D01*
X102874005Y-54146824D01*
X102874008Y-54146826D01*
X102977646Y-54180500D01*
X103098631Y-54219811D01*
X103331903Y-54256758D01*
X103331908Y-54256758D01*
X103568097Y-54256758D01*
X103801368Y-54219811D01*
X104025992Y-54146826D01*
X104236433Y-54039601D01*
X104427510Y-53900775D01*
X104594517Y-53733768D01*
X104733343Y-53542691D01*
X104840568Y-53332250D01*
X104913553Y-53107626D01*
X104931875Y-52991944D01*
X104950500Y-52874355D01*
X104950500Y-52638160D01*
X104913553Y-52404889D01*
X104864038Y-52252500D01*
X104840568Y-52180266D01*
X104840566Y-52180263D01*
X104840566Y-52180261D01*
X104765423Y-52032786D01*
X104733343Y-51969825D01*
X104594517Y-51778748D01*
X104427510Y-51611741D01*
X104236433Y-51472915D01*
X104025996Y-51365691D01*
X103801368Y-51292704D01*
X103568097Y-51255758D01*
X103568092Y-51255758D01*
X103331908Y-51255758D01*
X103331903Y-51255758D01*
X103098631Y-51292704D01*
X102874003Y-51365691D01*
X102663566Y-51472915D01*
X102554550Y-51552120D01*
X102472490Y-51611741D01*
X102472488Y-51611743D01*
X102472487Y-51611743D01*
X102305485Y-51778745D01*
X102305485Y-51778746D01*
X102305483Y-51778748D01*
X102258960Y-51842781D01*
X102166657Y-51969824D01*
X102059433Y-52180261D01*
X101986446Y-52404889D01*
X101949500Y-52638160D01*
X99950500Y-52638160D01*
X99913553Y-52404889D01*
X99864038Y-52252500D01*
X99840568Y-52180266D01*
X99840566Y-52180263D01*
X99840566Y-52180261D01*
X99765423Y-52032786D01*
X99733343Y-51969825D01*
X99594517Y-51778748D01*
X99427510Y-51611741D01*
X99236433Y-51472915D01*
X99025996Y-51365691D01*
X98801368Y-51292704D01*
X98568097Y-51255758D01*
X98568092Y-51255758D01*
X98331908Y-51255758D01*
X98331903Y-51255758D01*
X98098631Y-51292704D01*
X97874003Y-51365691D01*
X97663566Y-51472915D01*
X97554550Y-51552120D01*
X97472490Y-51611741D01*
X97472488Y-51611743D01*
X97472487Y-51611743D01*
X97305485Y-51778745D01*
X97305485Y-51778746D01*
X97305483Y-51778748D01*
X97258960Y-51842781D01*
X97166657Y-51969824D01*
X97059433Y-52180261D01*
X96986446Y-52404889D01*
X96949500Y-52638160D01*
X92610500Y-52638160D01*
X92610500Y-52587648D01*
X92580524Y-52398390D01*
X92578477Y-52385465D01*
X92534353Y-52249666D01*
X92515220Y-52190781D01*
X92515218Y-52190778D01*
X92515218Y-52190776D01*
X92465179Y-52092571D01*
X92422287Y-52008390D01*
X92394268Y-51969825D01*
X92301971Y-51842786D01*
X92157213Y-51698028D01*
X91991613Y-51577715D01*
X91991612Y-51577714D01*
X91991610Y-51577713D01*
X91934653Y-51548691D01*
X91809223Y-51484781D01*
X91694791Y-51447600D01*
X91637116Y-51408162D01*
X91609918Y-51343803D01*
X91621833Y-51274957D01*
X91645426Y-51241991D01*
X96643600Y-46243819D01*
X96704923Y-46210334D01*
X96731281Y-46207500D01*
X104025501Y-46207500D01*
X104092540Y-46227185D01*
X104138295Y-46279989D01*
X104149501Y-46331500D01*
X104149501Y-46477876D01*
X104155908Y-46537483D01*
X104206202Y-46672328D01*
X104206206Y-46672335D01*
X104292452Y-46787544D01*
X104292455Y-46787547D01*
X104407664Y-46873793D01*
X104407671Y-46873797D01*
X104542517Y-46924091D01*
X104542516Y-46924091D01*
X104549444Y-46924835D01*
X104602127Y-46930500D01*
X106397872Y-46930499D01*
X106457483Y-46924091D01*
X106592331Y-46873796D01*
X106707546Y-46787546D01*
X106793796Y-46672331D01*
X106844091Y-46537483D01*
X106850500Y-46477873D01*
X106850499Y-44682128D01*
X106844091Y-44622517D01*
X106832211Y-44590666D01*
X106793797Y-44487671D01*
X106793793Y-44487664D01*
X106707547Y-44372455D01*
X106707544Y-44372452D01*
X106592335Y-44286206D01*
X106592328Y-44286202D01*
X106460917Y-44237189D01*
X106404983Y-44195318D01*
X106380566Y-44129853D01*
X106395418Y-44061580D01*
X106416563Y-44033332D01*
X106530104Y-43919792D01*
X106655051Y-43747816D01*
X106751557Y-43558412D01*
X106817246Y-43356243D01*
X106850500Y-43146287D01*
X106850500Y-42933713D01*
X106817246Y-42723757D01*
X106751557Y-42521588D01*
X106655051Y-42332184D01*
X106655049Y-42332181D01*
X106655048Y-42332179D01*
X106530109Y-42160213D01*
X106379786Y-42009890D01*
X106207820Y-41884951D01*
X106207115Y-41884591D01*
X106199054Y-41880485D01*
X106148259Y-41832512D01*
X106131463Y-41764692D01*
X106153999Y-41698556D01*
X106199054Y-41659515D01*
X106207816Y-41655051D01*
X106276819Y-41604918D01*
X106379786Y-41530109D01*
X106379788Y-41530106D01*
X106379792Y-41530104D01*
X106530104Y-41379792D01*
X106530106Y-41379788D01*
X106530109Y-41379786D01*
X106655048Y-41207820D01*
X106655047Y-41207820D01*
X106655051Y-41207816D01*
X106751557Y-41018412D01*
X106817246Y-40816243D01*
X106850500Y-40606287D01*
X106850500Y-40393713D01*
X106817246Y-40183757D01*
X106751557Y-39981588D01*
X106655051Y-39792184D01*
X106655049Y-39792181D01*
X106655048Y-39792179D01*
X106530109Y-39620213D01*
X106379786Y-39469890D01*
X106207820Y-39344951D01*
X106207115Y-39344591D01*
X106199054Y-39340485D01*
X106148259Y-39292512D01*
X106131463Y-39224692D01*
X106153999Y-39158556D01*
X106199054Y-39119515D01*
X106207816Y-39115051D01*
X106291111Y-39054534D01*
X106379786Y-38990109D01*
X106379788Y-38990106D01*
X106379792Y-38990104D01*
X106530104Y-38839792D01*
X106530106Y-38839788D01*
X106530109Y-38839786D01*
X106655048Y-38667820D01*
X106655047Y-38667820D01*
X106655051Y-38667816D01*
X106751557Y-38478412D01*
X106817246Y-38276243D01*
X106850500Y-38066287D01*
X106850500Y-37853713D01*
X106817246Y-37643757D01*
X106751557Y-37441588D01*
X106655051Y-37252184D01*
X106655049Y-37252181D01*
X106655048Y-37252179D01*
X106530109Y-37080213D01*
X106379786Y-36929890D01*
X106207817Y-36804949D01*
X106198504Y-36800204D01*
X106147707Y-36752230D01*
X106130912Y-36684409D01*
X106153449Y-36618274D01*
X106198507Y-36579232D01*
X106207555Y-36574622D01*
X106261716Y-36535270D01*
X106261717Y-36535270D01*
X105629408Y-35902962D01*
X105692993Y-35885925D01*
X105807007Y-35820099D01*
X105900099Y-35727007D01*
X105965925Y-35612993D01*
X105982962Y-35549408D01*
X106615270Y-36181717D01*
X106615270Y-36181716D01*
X106654622Y-36127554D01*
X106751095Y-35938217D01*
X106816757Y-35736130D01*
X106816757Y-35736127D01*
X106850000Y-35526246D01*
X106850000Y-35313753D01*
X106816757Y-35103872D01*
X106816757Y-35103869D01*
X106751095Y-34901782D01*
X106654624Y-34712449D01*
X106615270Y-34658282D01*
X106615269Y-34658282D01*
X105982962Y-35290590D01*
X105965925Y-35227007D01*
X105900099Y-35112993D01*
X105807007Y-35019901D01*
X105692993Y-34954075D01*
X105629409Y-34937037D01*
X106261716Y-34304728D01*
X106207550Y-34265375D01*
X106018217Y-34168904D01*
X105816129Y-34103242D01*
X105606246Y-34070000D01*
X105393754Y-34070000D01*
X105183872Y-34103242D01*
X105183869Y-34103242D01*
X104981782Y-34168904D01*
X104792439Y-34265380D01*
X104738282Y-34304727D01*
X104738282Y-34304728D01*
X105370591Y-34937037D01*
X105307007Y-34954075D01*
X105192993Y-35019901D01*
X105099901Y-35112993D01*
X105034075Y-35227007D01*
X105017037Y-35290591D01*
X104384728Y-34658282D01*
X104384727Y-34658282D01*
X104345380Y-34712439D01*
X104248904Y-34901782D01*
X104183242Y-35103869D01*
X104183242Y-35103872D01*
X104150000Y-35313753D01*
X104150000Y-35526246D01*
X104183242Y-35736127D01*
X104183242Y-35736130D01*
X104248904Y-35938217D01*
X104345375Y-36127550D01*
X104384728Y-36181716D01*
X105017037Y-35549408D01*
X105034075Y-35612993D01*
X105099901Y-35727007D01*
X105192993Y-35820099D01*
X105307007Y-35885925D01*
X105370590Y-35902962D01*
X104738282Y-36535269D01*
X104738282Y-36535270D01*
X104792452Y-36574626D01*
X104792451Y-36574626D01*
X104801495Y-36579234D01*
X104852292Y-36627208D01*
X104869087Y-36695029D01*
X104846550Y-36761164D01*
X104801499Y-36800202D01*
X104792182Y-36804949D01*
X104620213Y-36929890D01*
X104469890Y-37080213D01*
X104344951Y-37252179D01*
X104248444Y-37441585D01*
X104182753Y-37643760D01*
X104164655Y-37758028D01*
X104149500Y-37853713D01*
X104149500Y-38066287D01*
X104182754Y-38276243D01*
X104221865Y-38396614D01*
X104248443Y-38478412D01*
X104344951Y-38667820D01*
X104469890Y-38839786D01*
X104620213Y-38990109D01*
X104792182Y-39115050D01*
X104800946Y-39119516D01*
X104851742Y-39167491D01*
X104868536Y-39235312D01*
X104845998Y-39301447D01*
X104800946Y-39340484D01*
X104792182Y-39344949D01*
X104620213Y-39469890D01*
X104469890Y-39620213D01*
X104344949Y-39792181D01*
X104338525Y-39804792D01*
X104290552Y-39855589D01*
X104228039Y-39872500D01*
X100899376Y-39872500D01*
X100778156Y-39896612D01*
X100778148Y-39896614D01*
X100697399Y-39930062D01*
X100663950Y-39943917D01*
X100663948Y-39943918D01*
X100567992Y-40008034D01*
X100567991Y-40008035D01*
X100561177Y-40012587D01*
X100561172Y-40012591D01*
X85856584Y-54717181D01*
X85795261Y-54750666D01*
X85768903Y-54753500D01*
X82813281Y-54753500D01*
X82746242Y-54733815D01*
X82700487Y-54681011D01*
X82690543Y-54611853D01*
X82719568Y-54548297D01*
X82725600Y-54541819D01*
X82854908Y-54412511D01*
X83274730Y-53992687D01*
X83336051Y-53959204D01*
X83381807Y-53957897D01*
X83385463Y-53958476D01*
X83385466Y-53958477D01*
X83587648Y-53990500D01*
X83587649Y-53990500D01*
X83792351Y-53990500D01*
X83792352Y-53990500D01*
X83994534Y-53958477D01*
X84189219Y-53895220D01*
X84371610Y-53802287D01*
X84474941Y-53727213D01*
X84537213Y-53681971D01*
X84537215Y-53681968D01*
X84537219Y-53681966D01*
X84681966Y-53537219D01*
X84681968Y-53537215D01*
X84681971Y-53537213D01*
X84734732Y-53464590D01*
X84802287Y-53371610D01*
X84895220Y-53189219D01*
X84958477Y-52994534D01*
X84990500Y-52792352D01*
X84990500Y-52587648D01*
X84960524Y-52398390D01*
X84958477Y-52385465D01*
X84914353Y-52249666D01*
X84895220Y-52190781D01*
X84895218Y-52190778D01*
X84895218Y-52190776D01*
X84845179Y-52092571D01*
X84802287Y-52008390D01*
X84774268Y-51969825D01*
X84681971Y-51842786D01*
X84537213Y-51698028D01*
X84371613Y-51577715D01*
X84371612Y-51577714D01*
X84371610Y-51577713D01*
X84314653Y-51548691D01*
X84189223Y-51484781D01*
X83994534Y-51421522D01*
X83819995Y-51393878D01*
X83792352Y-51389500D01*
X83587648Y-51389500D01*
X83563329Y-51393351D01*
X83385465Y-51421522D01*
X83190776Y-51484781D01*
X83008386Y-51577715D01*
X82842786Y-51698028D01*
X82698028Y-51842786D01*
X82577715Y-52008386D01*
X82484781Y-52190776D01*
X82421522Y-52385465D01*
X82389500Y-52587648D01*
X82389500Y-52792351D01*
X82422102Y-52998190D01*
X82413147Y-53067483D01*
X82387310Y-53105269D01*
X81156400Y-54336181D01*
X81095077Y-54369666D01*
X81068719Y-54372500D01*
X77060113Y-54372500D01*
X76993074Y-54352815D01*
X76947319Y-54300011D01*
X76937375Y-54230853D01*
X76966400Y-54167297D01*
X77021108Y-54130794D01*
X77069334Y-54114814D01*
X77218656Y-54022712D01*
X77342712Y-53898656D01*
X77434814Y-53749334D01*
X77486785Y-53592495D01*
X77526558Y-53535051D01*
X77591074Y-53508228D01*
X77604491Y-53507500D01*
X78681804Y-53507500D01*
X78681805Y-53507499D01*
X78803035Y-53483386D01*
X78883784Y-53449937D01*
X78917233Y-53436083D01*
X79020008Y-53367411D01*
X79107411Y-53280008D01*
X82723600Y-49663819D01*
X82784923Y-49630334D01*
X82811281Y-49627500D01*
X86141804Y-49627500D01*
X86141805Y-49627499D01*
X86263035Y-49603386D01*
X86343784Y-49569937D01*
X86377233Y-49556083D01*
X86480008Y-49487411D01*
X86567411Y-49400008D01*
X89608322Y-46359096D01*
X89669642Y-46325613D01*
X89739334Y-46330597D01*
X89795267Y-46372469D01*
X89819684Y-46437933D01*
X89820000Y-46446779D01*
X89820000Y-46602317D01*
X89852009Y-46804417D01*
X89915244Y-46999031D01*
X90008141Y-47181350D01*
X90008147Y-47181359D01*
X90040523Y-47225921D01*
X90040524Y-47225922D01*
X90720000Y-46546446D01*
X90720000Y-46552661D01*
X90747259Y-46654394D01*
X90799920Y-46745606D01*
X90874394Y-46820080D01*
X90965606Y-46872741D01*
X91067339Y-46900000D01*
X91073553Y-46900000D01*
X90394076Y-47579474D01*
X90438650Y-47611859D01*
X90620968Y-47704755D01*
X90815582Y-47767990D01*
X91017683Y-47800000D01*
X91222317Y-47800000D01*
X91424417Y-47767990D01*
X91619031Y-47704755D01*
X91801349Y-47611859D01*
X91845921Y-47579474D01*
X91166447Y-46900000D01*
X91172661Y-46900000D01*
X91274394Y-46872741D01*
X91365606Y-46820080D01*
X91440080Y-46745606D01*
X91492741Y-46654394D01*
X91520000Y-46552661D01*
X91520000Y-46546447D01*
X92199474Y-47225921D01*
X92231859Y-47181349D01*
X92324755Y-46999031D01*
X92387990Y-46804417D01*
X92420000Y-46602317D01*
X92420000Y-46397682D01*
X92387990Y-46195582D01*
X92324755Y-46000968D01*
X92231859Y-45818650D01*
X92199474Y-45774077D01*
X92199474Y-45774076D01*
X91520000Y-46453551D01*
X91520000Y-46447339D01*
X91492741Y-46345606D01*
X91440080Y-46254394D01*
X91365606Y-46179920D01*
X91274394Y-46127259D01*
X91172661Y-46100000D01*
X91166446Y-46100000D01*
X91845922Y-45420524D01*
X91845921Y-45420523D01*
X91801359Y-45388147D01*
X91801350Y-45388141D01*
X91619031Y-45295244D01*
X91424417Y-45232009D01*
X91222317Y-45200000D01*
X91066779Y-45200000D01*
X90999740Y-45180315D01*
X90953985Y-45127511D01*
X90944041Y-45058353D01*
X90973066Y-44994797D01*
X90979079Y-44988338D01*
X93354730Y-42612687D01*
X93416051Y-42579204D01*
X93461807Y-42577897D01*
X93465463Y-42578476D01*
X93465466Y-42578477D01*
X93667648Y-42610500D01*
X93667649Y-42610500D01*
X93872351Y-42610500D01*
X93872352Y-42610500D01*
X94074534Y-42578477D01*
X94269219Y-42515220D01*
X94451610Y-42422287D01*
X94554941Y-42347213D01*
X94617213Y-42301971D01*
X94617215Y-42301968D01*
X94617219Y-42301966D01*
X94761966Y-42157219D01*
X94761968Y-42157215D01*
X94761971Y-42157213D01*
X94866894Y-42012797D01*
X94882287Y-41991610D01*
X94929795Y-41898369D01*
X94977769Y-41847573D01*
X95045590Y-41830778D01*
X95111725Y-41853315D01*
X95150765Y-41898369D01*
X95198141Y-41991350D01*
X95198147Y-41991359D01*
X95230523Y-42035921D01*
X95230524Y-42035922D01*
X95910000Y-41356446D01*
X95910000Y-41362661D01*
X95937259Y-41464394D01*
X95989920Y-41555606D01*
X96064394Y-41630080D01*
X96155606Y-41682741D01*
X96257339Y-41710000D01*
X96263553Y-41710000D01*
X95584076Y-42389474D01*
X95628650Y-42421859D01*
X95810968Y-42514755D01*
X96005582Y-42577990D01*
X96207683Y-42610000D01*
X96412317Y-42610000D01*
X96614417Y-42577990D01*
X96809031Y-42514755D01*
X96991349Y-42421859D01*
X97035921Y-42389474D01*
X96356447Y-41710000D01*
X96362661Y-41710000D01*
X96464394Y-41682741D01*
X96555606Y-41630080D01*
X96630080Y-41555606D01*
X96682741Y-41464394D01*
X96710000Y-41362661D01*
X96710000Y-41356447D01*
X97389474Y-42035921D01*
X97421859Y-41991349D01*
X97514755Y-41809031D01*
X97577990Y-41614417D01*
X97610000Y-41412317D01*
X97610000Y-41207682D01*
X97577990Y-41005582D01*
X97514755Y-40810968D01*
X97421859Y-40628650D01*
X97389474Y-40584077D01*
X97389474Y-40584076D01*
X96710000Y-41263551D01*
X96710000Y-41257339D01*
X96682741Y-41155606D01*
X96630080Y-41064394D01*
X96555606Y-40989920D01*
X96464394Y-40937259D01*
X96362661Y-40910000D01*
X96356446Y-40910000D01*
X97035922Y-40230524D01*
X97035921Y-40230523D01*
X96991359Y-40198147D01*
X96991350Y-40198141D01*
X96809031Y-40105244D01*
X96614417Y-40042009D01*
X96412317Y-40010000D01*
X96207683Y-40010000D01*
X96005582Y-40042009D01*
X95810968Y-40105244D01*
X95628644Y-40198143D01*
X95584077Y-40230523D01*
X95584077Y-40230524D01*
X96263554Y-40910000D01*
X96257339Y-40910000D01*
X96155606Y-40937259D01*
X96064394Y-40989920D01*
X95989920Y-41064394D01*
X95937259Y-41155606D01*
X95910000Y-41257339D01*
X95910000Y-41263553D01*
X95230524Y-40584077D01*
X95230523Y-40584077D01*
X95198143Y-40628644D01*
X95150765Y-40721630D01*
X95102790Y-40772426D01*
X95034969Y-40789221D01*
X94968834Y-40766683D01*
X94929795Y-40721630D01*
X94929515Y-40721080D01*
X94882287Y-40628390D01*
X94882285Y-40628387D01*
X94882284Y-40628385D01*
X94761971Y-40462786D01*
X94617213Y-40318028D01*
X94451613Y-40197715D01*
X94451612Y-40197714D01*
X94451610Y-40197713D01*
X94391898Y-40167288D01*
X94269223Y-40104781D01*
X94074534Y-40041522D01*
X93891842Y-40012587D01*
X93872352Y-40009500D01*
X93667648Y-40009500D01*
X93648158Y-40012587D01*
X93465465Y-40041522D01*
X93270776Y-40104781D01*
X93088386Y-40197715D01*
X92922786Y-40318028D01*
X92778028Y-40462786D01*
X92657715Y-40628386D01*
X92610485Y-40721080D01*
X92562510Y-40771876D01*
X92494689Y-40788671D01*
X92428554Y-40766134D01*
X92389515Y-40721080D01*
X92354717Y-40652786D01*
X92342287Y-40628390D01*
X92310092Y-40584077D01*
X92221971Y-40462786D01*
X92077213Y-40318028D01*
X91911613Y-40197715D01*
X91911612Y-40197714D01*
X91911610Y-40197713D01*
X91851898Y-40167288D01*
X91729223Y-40104781D01*
X91534534Y-40041522D01*
X91351842Y-40012587D01*
X91332352Y-40009500D01*
X91127648Y-40009500D01*
X91108158Y-40012587D01*
X90925465Y-40041522D01*
X90730776Y-40104781D01*
X90548386Y-40197715D01*
X90382786Y-40318028D01*
X90238032Y-40462782D01*
X90238028Y-40462787D01*
X90169978Y-40556451D01*
X90114648Y-40599117D01*
X90045035Y-40605096D01*
X89983240Y-40572490D01*
X89951954Y-40522570D01*
X89951100Y-40519992D01*
X89924814Y-40440666D01*
X89832712Y-40291344D01*
X89708656Y-40167288D01*
X89559334Y-40075186D01*
X89392797Y-40020001D01*
X89392795Y-40020000D01*
X89290010Y-40009500D01*
X88089998Y-40009500D01*
X88089981Y-40009501D01*
X87987203Y-40020000D01*
X87987200Y-40020001D01*
X87820668Y-40075185D01*
X87820663Y-40075187D01*
X87671342Y-40167289D01*
X87547289Y-40291342D01*
X87455187Y-40440663D01*
X87455186Y-40440666D01*
X87400001Y-40607203D01*
X87400001Y-40607204D01*
X87400000Y-40607204D01*
X87389500Y-40709983D01*
X87389500Y-41910001D01*
X87389501Y-41910018D01*
X87400000Y-42012796D01*
X87400001Y-42012799D01*
X87455185Y-42179331D01*
X87455187Y-42179336D01*
X87487583Y-42231859D01*
X87547288Y-42328656D01*
X87671344Y-42452712D01*
X87820666Y-42544814D01*
X87987203Y-42599999D01*
X88089991Y-42610500D01*
X88742719Y-42610499D01*
X88809757Y-42630183D01*
X88855512Y-42682987D01*
X88865456Y-42752146D01*
X88836431Y-42815702D01*
X88830399Y-42822180D01*
X85816400Y-45836181D01*
X85755077Y-45869666D01*
X85728719Y-45872500D01*
X84714781Y-45872500D01*
X84647742Y-45852815D01*
X84614462Y-45821385D01*
X84612289Y-45818394D01*
X84612287Y-45818390D01*
X84491966Y-45652781D01*
X84347219Y-45508034D01*
X84347213Y-45508028D01*
X84181613Y-45387715D01*
X84181612Y-45387714D01*
X84181610Y-45387713D01*
X84122671Y-45357682D01*
X83999223Y-45294781D01*
X83804534Y-45231522D01*
X83629995Y-45203878D01*
X83602352Y-45199500D01*
X83397648Y-45199500D01*
X83373329Y-45203351D01*
X83195465Y-45231522D01*
X83000776Y-45294781D01*
X82818386Y-45387715D01*
X82652786Y-45508028D01*
X82508028Y-45652786D01*
X82387715Y-45818386D01*
X82294781Y-46000776D01*
X82231522Y-46195465D01*
X82199500Y-46397648D01*
X82199500Y-46602351D01*
X82231522Y-46804534D01*
X82294781Y-46999223D01*
X82338651Y-47085321D01*
X82387585Y-47181359D01*
X82387715Y-47181613D01*
X82508028Y-47347213D01*
X82652786Y-47491971D01*
X82773226Y-47579474D01*
X82818390Y-47612287D01*
X82934607Y-47671503D01*
X83000776Y-47705218D01*
X83000778Y-47705218D01*
X83000781Y-47705220D01*
X83105137Y-47739127D01*
X83195465Y-47768477D01*
X83296557Y-47784488D01*
X83397648Y-47800500D01*
X83397649Y-47800500D01*
X83602351Y-47800500D01*
X83602352Y-47800500D01*
X83804534Y-47768477D01*
X83999219Y-47705220D01*
X84181610Y-47612287D01*
X84274590Y-47544732D01*
X84347213Y-47491971D01*
X84347215Y-47491968D01*
X84347219Y-47491966D01*
X84491966Y-47347219D01*
X84612287Y-47181610D01*
X84612289Y-47181605D01*
X84614462Y-47178615D01*
X84669792Y-47135949D01*
X84714781Y-47127500D01*
X86101804Y-47127500D01*
X86101805Y-47127499D01*
X86223035Y-47103386D01*
X86303784Y-47069937D01*
X86337233Y-47056083D01*
X86440008Y-46987411D01*
X86527411Y-46900008D01*
X90814730Y-42612687D01*
X90876051Y-42579204D01*
X90921807Y-42577897D01*
X90925463Y-42578476D01*
X90925466Y-42578477D01*
X91127648Y-42610500D01*
X91127649Y-42610500D01*
X91282718Y-42610500D01*
X91349757Y-42630185D01*
X91395512Y-42682989D01*
X91405456Y-42752147D01*
X91376431Y-42815703D01*
X91370399Y-42822181D01*
X85856400Y-48336181D01*
X85795077Y-48369666D01*
X85768719Y-48372500D01*
X82438192Y-48372500D01*
X82316973Y-48396611D01*
X82316973Y-48396612D01*
X82316970Y-48396613D01*
X82316966Y-48396614D01*
X82250070Y-48424323D01*
X82250068Y-48424323D01*
X82202770Y-48443915D01*
X82137674Y-48487411D01*
X82099989Y-48512590D01*
X82099986Y-48512593D01*
X78396400Y-52216181D01*
X78335077Y-52249666D01*
X78308719Y-52252500D01*
X77604491Y-52252500D01*
X77537452Y-52232815D01*
X77491697Y-52180011D01*
X77486785Y-52167504D01*
X77473181Y-52126451D01*
X77434814Y-52010666D01*
X77342712Y-51861344D01*
X77218656Y-51737288D01*
X77069334Y-51645186D01*
X76902797Y-51590001D01*
X76902795Y-51590000D01*
X76800010Y-51579500D01*
X75599998Y-51579500D01*
X75599981Y-51579501D01*
X75497203Y-51590000D01*
X75497200Y-51590001D01*
X75330668Y-51645185D01*
X75330663Y-51645187D01*
X75181342Y-51737289D01*
X75057289Y-51861342D01*
X74965187Y-52010663D01*
X74965186Y-52010666D01*
X74938045Y-52092571D01*
X74898271Y-52150016D01*
X74833755Y-52176838D01*
X74764979Y-52164522D01*
X74720021Y-52126452D01*
X74651966Y-52032781D01*
X74507219Y-51888034D01*
X74507213Y-51888028D01*
X74341613Y-51767715D01*
X74341612Y-51767714D01*
X74341610Y-51767713D01*
X74281898Y-51737288D01*
X74159223Y-51674781D01*
X73964534Y-51611522D01*
X73789995Y-51583878D01*
X73762352Y-51579500D01*
X73557648Y-51579500D01*
X73533329Y-51583351D01*
X73355465Y-51611522D01*
X73160776Y-51674781D01*
X72978386Y-51767715D01*
X72812786Y-51888028D01*
X72668028Y-52032786D01*
X72547715Y-52198386D01*
X72500485Y-52291080D01*
X72452510Y-52341876D01*
X72384689Y-52358671D01*
X72318554Y-52336134D01*
X72279515Y-52291080D01*
X72257298Y-52247477D01*
X72232287Y-52198390D01*
X72218022Y-52178756D01*
X72111971Y-52032786D01*
X71967213Y-51888028D01*
X71801613Y-51767715D01*
X71801612Y-51767714D01*
X71801610Y-51767713D01*
X71741898Y-51737288D01*
X71619223Y-51674781D01*
X71424534Y-51611522D01*
X71249995Y-51583878D01*
X71222352Y-51579500D01*
X71017648Y-51579500D01*
X70993329Y-51583351D01*
X70815465Y-51611522D01*
X70620776Y-51674781D01*
X70438386Y-51767715D01*
X70272786Y-51888028D01*
X70128034Y-52032780D01*
X70128030Y-52032786D01*
X70007713Y-52198390D01*
X70007710Y-52198394D01*
X70005538Y-52201385D01*
X70001204Y-52204726D01*
X69998932Y-52209703D01*
X69973835Y-52225831D01*
X69950208Y-52244051D01*
X69943534Y-52245304D01*
X69940154Y-52247477D01*
X69905219Y-52252500D01*
X69794781Y-52252500D01*
X69727742Y-52232815D01*
X69694462Y-52201385D01*
X69692289Y-52198394D01*
X69692287Y-52198390D01*
X69571966Y-52032781D01*
X69427219Y-51888034D01*
X69427213Y-51888028D01*
X69261613Y-51767715D01*
X69261612Y-51767714D01*
X69261610Y-51767713D01*
X69201898Y-51737288D01*
X69079223Y-51674781D01*
X68884534Y-51611522D01*
X68709995Y-51583878D01*
X68682352Y-51579500D01*
X68477648Y-51579500D01*
X68453329Y-51583351D01*
X68275465Y-51611522D01*
X68080776Y-51674781D01*
X67898386Y-51767715D01*
X67732786Y-51888028D01*
X67588028Y-52032786D01*
X67467715Y-52198386D01*
X67420485Y-52291080D01*
X67372510Y-52341876D01*
X67304689Y-52358671D01*
X67238554Y-52336134D01*
X67199515Y-52291080D01*
X67177298Y-52247477D01*
X67152287Y-52198390D01*
X67138022Y-52178756D01*
X67031971Y-52032786D01*
X66887213Y-51888028D01*
X66721613Y-51767715D01*
X66721612Y-51767714D01*
X66721610Y-51767713D01*
X66661898Y-51737288D01*
X66539223Y-51674781D01*
X66344534Y-51611522D01*
X66169995Y-51583878D01*
X66142352Y-51579500D01*
X65937648Y-51579500D01*
X65913329Y-51583351D01*
X65735465Y-51611522D01*
X65540776Y-51674781D01*
X65358386Y-51767715D01*
X65192786Y-51888028D01*
X65048028Y-52032786D01*
X64927715Y-52198386D01*
X64880485Y-52291080D01*
X64832510Y-52341876D01*
X64764689Y-52358671D01*
X64698554Y-52336134D01*
X64659515Y-52291080D01*
X64637298Y-52247477D01*
X64612287Y-52198390D01*
X64598022Y-52178756D01*
X64491971Y-52032786D01*
X64347213Y-51888028D01*
X64181613Y-51767715D01*
X64181612Y-51767714D01*
X64181610Y-51767713D01*
X64121898Y-51737288D01*
X63999223Y-51674781D01*
X63804534Y-51611522D01*
X63629995Y-51583878D01*
X63602352Y-51579500D01*
X63397648Y-51579500D01*
X63337052Y-51589097D01*
X63191808Y-51612102D01*
X63122514Y-51603147D01*
X63084729Y-51577310D01*
X61560011Y-50052591D01*
X61560005Y-50052586D01*
X61545783Y-50043084D01*
X61545780Y-50043082D01*
X61542336Y-50040781D01*
X61457233Y-49983917D01*
X61413893Y-49965965D01*
X61406459Y-49962885D01*
X61406458Y-49962885D01*
X61343035Y-49936614D01*
X61343027Y-49936612D01*
X61221807Y-49912500D01*
X61221803Y-49912500D01*
X57334781Y-49912500D01*
X57267742Y-49892815D01*
X57234462Y-49861385D01*
X57232289Y-49858394D01*
X57232287Y-49858390D01*
X57111966Y-49692781D01*
X56967219Y-49548034D01*
X56967213Y-49548028D01*
X56801614Y-49427715D01*
X56795006Y-49424348D01*
X56708917Y-49380483D01*
X56658123Y-49332511D01*
X56641328Y-49264690D01*
X56663865Y-49198555D01*
X56708917Y-49159516D01*
X56801610Y-49112287D01*
X56822770Y-49096913D01*
X56967213Y-48991971D01*
X56967215Y-48991968D01*
X56967219Y-48991966D01*
X57111966Y-48847219D01*
X57111968Y-48847215D01*
X57111971Y-48847213D01*
X57182599Y-48750000D01*
X57232287Y-48681610D01*
X57325220Y-48499219D01*
X57388477Y-48304534D01*
X57420500Y-48102352D01*
X57420500Y-47897648D01*
X57388477Y-47695466D01*
X57325220Y-47500781D01*
X57325218Y-47500778D01*
X57325218Y-47500776D01*
X57258413Y-47369666D01*
X57232287Y-47318390D01*
X57217381Y-47297873D01*
X57111971Y-47152786D01*
X56967213Y-47008028D01*
X56801611Y-46887713D01*
X56708369Y-46840203D01*
X56657574Y-46792229D01*
X56640779Y-46724407D01*
X56663317Y-46658273D01*
X56708371Y-46619234D01*
X56801346Y-46571861D01*
X56801347Y-46571861D01*
X56845921Y-46539474D01*
X56845922Y-46539474D01*
X56786905Y-46480457D01*
X56704096Y-46397648D01*
X60699500Y-46397648D01*
X60699500Y-46602351D01*
X60731522Y-46804534D01*
X60794781Y-46999223D01*
X60838651Y-47085321D01*
X60887585Y-47181359D01*
X60887715Y-47181613D01*
X61008028Y-47347213D01*
X61152786Y-47491971D01*
X61273226Y-47579474D01*
X61318390Y-47612287D01*
X61434607Y-47671503D01*
X61500776Y-47705218D01*
X61500778Y-47705218D01*
X61500781Y-47705220D01*
X61605137Y-47739127D01*
X61695465Y-47768477D01*
X61796557Y-47784488D01*
X61897648Y-47800500D01*
X61897649Y-47800500D01*
X62102350Y-47800500D01*
X62102352Y-47800500D01*
X62304534Y-47768477D01*
X62304539Y-47768475D01*
X62308190Y-47767897D01*
X62377484Y-47776851D01*
X62415270Y-47802689D01*
X63012589Y-48400008D01*
X63056496Y-48443915D01*
X63099992Y-48487411D01*
X63202760Y-48556079D01*
X63202773Y-48556086D01*
X63316960Y-48603383D01*
X63316965Y-48603385D01*
X63316969Y-48603385D01*
X63316970Y-48603386D01*
X63438194Y-48627500D01*
X63438197Y-48627500D01*
X70751804Y-48627500D01*
X70751805Y-48627499D01*
X70873035Y-48603386D01*
X70953784Y-48569937D01*
X70987233Y-48556083D01*
X71090008Y-48487411D01*
X71177411Y-48400008D01*
X71774730Y-47802687D01*
X71836051Y-47769204D01*
X71881807Y-47767897D01*
X71885463Y-47768476D01*
X71885466Y-47768477D01*
X72087648Y-47800500D01*
X72087649Y-47800500D01*
X72292351Y-47800500D01*
X72292352Y-47800500D01*
X72494534Y-47768477D01*
X72689219Y-47705220D01*
X72871610Y-47612287D01*
X72964590Y-47544732D01*
X73037213Y-47491971D01*
X73037215Y-47491968D01*
X73037219Y-47491966D01*
X73181966Y-47347219D01*
X73181968Y-47347215D01*
X73181971Y-47347213D01*
X73266510Y-47230853D01*
X73302287Y-47181610D01*
X73395220Y-46999219D01*
X73458477Y-46804534D01*
X73490500Y-46602352D01*
X73490500Y-46397682D01*
X78510000Y-46397682D01*
X78510000Y-46602317D01*
X78542009Y-46804417D01*
X78605244Y-46999031D01*
X78698141Y-47181350D01*
X78698147Y-47181359D01*
X78730523Y-47225921D01*
X78730524Y-47225922D01*
X79410000Y-46546446D01*
X79410000Y-46552661D01*
X79437259Y-46654394D01*
X79489920Y-46745606D01*
X79564394Y-46820080D01*
X79655606Y-46872741D01*
X79757339Y-46900000D01*
X79763553Y-46900000D01*
X79084076Y-47579474D01*
X79128650Y-47611859D01*
X79310968Y-47704755D01*
X79505582Y-47767990D01*
X79707683Y-47800000D01*
X79912317Y-47800000D01*
X80114417Y-47767990D01*
X80309031Y-47704755D01*
X80491349Y-47611859D01*
X80535921Y-47579474D01*
X79856447Y-46900000D01*
X79862661Y-46900000D01*
X79964394Y-46872741D01*
X80055606Y-46820080D01*
X80130080Y-46745606D01*
X80182741Y-46654394D01*
X80210000Y-46552661D01*
X80210000Y-46546448D01*
X80889474Y-47225922D01*
X80889474Y-47225921D01*
X80921859Y-47181349D01*
X81014755Y-46999031D01*
X81077990Y-46804417D01*
X81110000Y-46602317D01*
X81110000Y-46397682D01*
X81077990Y-46195582D01*
X81014755Y-46000968D01*
X80921859Y-45818650D01*
X80889474Y-45774077D01*
X80889474Y-45774076D01*
X80210000Y-46453551D01*
X80210000Y-46447339D01*
X80182741Y-46345606D01*
X80130080Y-46254394D01*
X80055606Y-46179920D01*
X79964394Y-46127259D01*
X79862661Y-46100000D01*
X79856446Y-46100000D01*
X80535922Y-45420524D01*
X80535921Y-45420523D01*
X80491359Y-45388147D01*
X80491350Y-45388141D01*
X80309031Y-45295244D01*
X80114417Y-45232009D01*
X79912317Y-45200000D01*
X79707683Y-45200000D01*
X79505582Y-45232009D01*
X79310968Y-45295244D01*
X79128644Y-45388143D01*
X79084077Y-45420523D01*
X79084077Y-45420524D01*
X79763554Y-46100000D01*
X79757339Y-46100000D01*
X79655606Y-46127259D01*
X79564394Y-46179920D01*
X79489920Y-46254394D01*
X79437259Y-46345606D01*
X79410000Y-46447339D01*
X79410000Y-46453553D01*
X78730524Y-45774077D01*
X78730523Y-45774077D01*
X78698143Y-45818644D01*
X78605244Y-46000968D01*
X78542009Y-46195582D01*
X78510000Y-46397682D01*
X73490500Y-46397682D01*
X73490500Y-46397648D01*
X73479680Y-46329334D01*
X73458477Y-46195465D01*
X73414467Y-46060018D01*
X73395220Y-46000781D01*
X73395218Y-46000778D01*
X73395218Y-46000776D01*
X73319827Y-45852815D01*
X73302287Y-45818390D01*
X73287567Y-45798129D01*
X73181971Y-45652786D01*
X73037213Y-45508028D01*
X72871613Y-45387715D01*
X72871612Y-45387714D01*
X72871610Y-45387713D01*
X72812671Y-45357682D01*
X72689223Y-45294781D01*
X72494534Y-45231522D01*
X72319995Y-45203878D01*
X72292352Y-45199500D01*
X72087648Y-45199500D01*
X72063329Y-45203351D01*
X71885465Y-45231522D01*
X71690776Y-45294781D01*
X71508386Y-45387715D01*
X71342786Y-45508028D01*
X71198028Y-45652786D01*
X71077715Y-45818386D01*
X70984781Y-46000776D01*
X70921522Y-46195465D01*
X70889500Y-46397648D01*
X70889500Y-46602351D01*
X70922102Y-46808191D01*
X70913147Y-46877484D01*
X70887310Y-46915270D01*
X70466400Y-47336181D01*
X70405077Y-47369666D01*
X70378719Y-47372500D01*
X68296728Y-47372500D01*
X68229689Y-47352815D01*
X68183934Y-47300011D01*
X68173990Y-47230853D01*
X68190172Y-47186000D01*
X68190075Y-47185951D01*
X68190471Y-47185173D01*
X68190997Y-47183716D01*
X68192284Y-47181615D01*
X68192415Y-47181359D01*
X68285220Y-46999219D01*
X68348477Y-46804534D01*
X68380500Y-46602352D01*
X68380500Y-46397648D01*
X68369680Y-46329334D01*
X68348477Y-46195465D01*
X68304467Y-46060018D01*
X68285220Y-46000781D01*
X68285218Y-46000778D01*
X68285218Y-46000776D01*
X68209827Y-45852815D01*
X68192287Y-45818390D01*
X68177567Y-45798129D01*
X68071971Y-45652786D01*
X67927213Y-45508028D01*
X67761613Y-45387715D01*
X67761612Y-45387714D01*
X67761610Y-45387713D01*
X67702671Y-45357682D01*
X67579223Y-45294781D01*
X67384534Y-45231522D01*
X67209995Y-45203878D01*
X67182352Y-45199500D01*
X66977648Y-45199500D01*
X66953329Y-45203351D01*
X66775465Y-45231522D01*
X66580776Y-45294781D01*
X66398386Y-45387715D01*
X66232786Y-45508028D01*
X66088032Y-45652782D01*
X66088028Y-45652787D01*
X66013430Y-45755463D01*
X65958100Y-45798129D01*
X65888487Y-45804108D01*
X65826692Y-45771502D01*
X65792334Y-45710664D01*
X65789822Y-45695831D01*
X65784091Y-45642516D01*
X65733797Y-45507671D01*
X65733793Y-45507664D01*
X65647547Y-45392455D01*
X65647544Y-45392452D01*
X65532335Y-45306206D01*
X65532328Y-45306202D01*
X65397482Y-45255908D01*
X65397483Y-45255908D01*
X65337883Y-45249501D01*
X65337881Y-45249500D01*
X65337873Y-45249500D01*
X65337864Y-45249500D01*
X63742129Y-45249500D01*
X63742123Y-45249501D01*
X63682516Y-45255908D01*
X63547671Y-45306202D01*
X63547664Y-45306206D01*
X63432455Y-45392452D01*
X63432452Y-45392455D01*
X63346206Y-45507664D01*
X63346202Y-45507671D01*
X63295908Y-45642516D01*
X63290176Y-45695834D01*
X63263438Y-45760385D01*
X63206045Y-45800233D01*
X63136220Y-45802726D01*
X63076131Y-45767073D01*
X63066569Y-45755463D01*
X62991971Y-45652786D01*
X62847213Y-45508028D01*
X62681613Y-45387715D01*
X62681612Y-45387714D01*
X62681610Y-45387713D01*
X62622671Y-45357682D01*
X62499223Y-45294781D01*
X62304534Y-45231522D01*
X62129995Y-45203878D01*
X62102352Y-45199500D01*
X61897648Y-45199500D01*
X61873329Y-45203351D01*
X61695465Y-45231522D01*
X61500776Y-45294781D01*
X61318386Y-45387715D01*
X61152786Y-45508028D01*
X61008028Y-45652786D01*
X60887715Y-45818386D01*
X60794781Y-46000776D01*
X60731522Y-46195465D01*
X60699500Y-46397648D01*
X56704096Y-46397648D01*
X56166447Y-45860000D01*
X56172661Y-45860000D01*
X56274394Y-45832741D01*
X56365606Y-45780080D01*
X56440080Y-45705606D01*
X56492741Y-45614394D01*
X56520000Y-45512661D01*
X56520000Y-45506447D01*
X57199474Y-46185921D01*
X57231859Y-46141349D01*
X57324755Y-45959031D01*
X57387990Y-45764417D01*
X57420000Y-45562317D01*
X57420000Y-45357682D01*
X57387990Y-45155582D01*
X57324755Y-44960968D01*
X57231859Y-44778650D01*
X57199474Y-44734077D01*
X57199474Y-44734076D01*
X56520000Y-45413551D01*
X56520000Y-45407339D01*
X56492741Y-45305606D01*
X56440080Y-45214394D01*
X56365606Y-45139920D01*
X56274394Y-45087259D01*
X56172661Y-45060000D01*
X56166446Y-45060000D01*
X56845922Y-44380524D01*
X56806412Y-44351819D01*
X56763746Y-44296489D01*
X56757767Y-44226876D01*
X56790372Y-44165080D01*
X56851211Y-44130723D01*
X56879297Y-44127500D01*
X74141804Y-44127500D01*
X74141805Y-44127499D01*
X74263035Y-44103386D01*
X74343784Y-44069937D01*
X74377233Y-44056083D01*
X74480008Y-43987411D01*
X74567411Y-43900008D01*
X75854730Y-42612687D01*
X75916051Y-42579204D01*
X75961807Y-42577897D01*
X75965463Y-42578476D01*
X75965466Y-42578477D01*
X76167648Y-42610500D01*
X76167649Y-42610500D01*
X76372351Y-42610500D01*
X76372352Y-42610500D01*
X76574534Y-42578477D01*
X76769219Y-42515220D01*
X76951610Y-42422287D01*
X77054941Y-42347213D01*
X77117213Y-42301971D01*
X77117215Y-42301968D01*
X77117219Y-42301966D01*
X77261966Y-42157219D01*
X77261968Y-42157215D01*
X77261971Y-42157213D01*
X77382284Y-41991614D01*
X77382286Y-41991611D01*
X77382287Y-41991610D01*
X77429516Y-41898917D01*
X77477489Y-41848123D01*
X77545310Y-41831328D01*
X77611445Y-41853865D01*
X77650483Y-41898917D01*
X77656140Y-41910018D01*
X77697715Y-41991614D01*
X77818028Y-42157213D01*
X77962786Y-42301971D01*
X78111477Y-42409999D01*
X78128390Y-42422287D01*
X78244607Y-42481503D01*
X78310776Y-42515218D01*
X78310778Y-42515218D01*
X78310781Y-42515220D01*
X78387597Y-42540179D01*
X78505465Y-42578477D01*
X78606557Y-42594488D01*
X78707648Y-42610500D01*
X78707649Y-42610500D01*
X78912351Y-42610500D01*
X78912352Y-42610500D01*
X79114534Y-42578477D01*
X79309219Y-42515220D01*
X79491610Y-42422287D01*
X79594941Y-42347213D01*
X79657213Y-42301971D01*
X79657215Y-42301968D01*
X79657219Y-42301966D01*
X79801966Y-42157219D01*
X79801968Y-42157215D01*
X79801971Y-42157213D01*
X79870021Y-42063548D01*
X79922287Y-41991610D01*
X80015220Y-41809219D01*
X80078477Y-41614534D01*
X80110500Y-41412352D01*
X80110500Y-41207648D01*
X80099422Y-41137708D01*
X80078477Y-41005465D01*
X80017777Y-40818652D01*
X80015220Y-40810781D01*
X80015218Y-40810778D01*
X80015218Y-40810776D01*
X79981503Y-40744607D01*
X79922287Y-40628390D01*
X79890092Y-40584077D01*
X79801971Y-40462786D01*
X79657213Y-40318028D01*
X79491613Y-40197715D01*
X79491612Y-40197714D01*
X79491610Y-40197713D01*
X79431898Y-40167288D01*
X79309223Y-40104781D01*
X79114534Y-40041522D01*
X78931842Y-40012587D01*
X78912352Y-40009500D01*
X78707648Y-40009500D01*
X78688133Y-40012591D01*
X78501808Y-40042102D01*
X78432514Y-40033147D01*
X78394729Y-40007310D01*
X77400011Y-39012591D01*
X77400007Y-39012588D01*
X77297239Y-38943920D01*
X77297226Y-38943913D01*
X77263785Y-38930062D01*
X77183035Y-38896614D01*
X77183027Y-38896612D01*
X77061807Y-38872500D01*
X77061803Y-38872500D01*
X69438197Y-38872500D01*
X69438195Y-38872500D01*
X69316970Y-38896613D01*
X69316960Y-38896616D01*
X69202773Y-38943913D01*
X69202760Y-38943920D01*
X69099992Y-39012588D01*
X69099988Y-39012591D01*
X67915269Y-40197310D01*
X67853946Y-40230795D01*
X67808190Y-40232102D01*
X67749704Y-40222838D01*
X67602352Y-40199500D01*
X67397648Y-40199500D01*
X67373329Y-40203351D01*
X67195465Y-40231522D01*
X67000776Y-40294781D01*
X66818386Y-40387715D01*
X66652786Y-40508028D01*
X66508028Y-40652786D01*
X66387715Y-40818386D01*
X66294781Y-41000776D01*
X66231522Y-41195465D01*
X66205041Y-41362661D01*
X66199500Y-41397648D01*
X66199500Y-41602352D01*
X66215555Y-41703715D01*
X66231523Y-41804534D01*
X66231522Y-41804534D01*
X66294781Y-41999223D01*
X66352391Y-42112287D01*
X66387585Y-42181359D01*
X66387715Y-42181613D01*
X66508028Y-42347213D01*
X66652786Y-42491971D01*
X66801477Y-42599999D01*
X66818390Y-42612287D01*
X66853513Y-42630183D01*
X66868884Y-42638015D01*
X66919680Y-42685990D01*
X66936475Y-42753811D01*
X66913937Y-42819946D01*
X66859222Y-42863397D01*
X66812589Y-42872500D01*
X60566311Y-42872500D01*
X60499272Y-42852815D01*
X60453517Y-42800011D01*
X60443573Y-42730853D01*
X60472598Y-42667297D01*
X60510017Y-42638015D01*
X60561346Y-42611861D01*
X60561347Y-42611861D01*
X60605921Y-42579474D01*
X59926447Y-41900000D01*
X59932661Y-41900000D01*
X60034394Y-41872741D01*
X60125606Y-41820080D01*
X60200080Y-41745606D01*
X60252741Y-41654394D01*
X60280000Y-41552661D01*
X60280000Y-41546447D01*
X60959474Y-42225921D01*
X60991859Y-42181349D01*
X61084755Y-41999031D01*
X61147990Y-41804417D01*
X61180000Y-41602317D01*
X61180000Y-41397682D01*
X61147990Y-41195582D01*
X61084755Y-41000968D01*
X60991859Y-40818650D01*
X60959474Y-40774077D01*
X60959474Y-40774076D01*
X60280000Y-41453551D01*
X60280000Y-41447339D01*
X60252741Y-41345606D01*
X60200080Y-41254394D01*
X60125606Y-41179920D01*
X60034394Y-41127259D01*
X59932661Y-41100000D01*
X59926446Y-41100000D01*
X60605922Y-40420524D01*
X60605921Y-40420523D01*
X60561359Y-40388147D01*
X60561350Y-40388141D01*
X60379031Y-40295244D01*
X60184417Y-40232009D01*
X59982317Y-40200000D01*
X59777683Y-40200000D01*
X59575582Y-40232009D01*
X59380968Y-40295244D01*
X59198644Y-40388143D01*
X59154077Y-40420523D01*
X59154077Y-40420524D01*
X59833554Y-41100000D01*
X59827339Y-41100000D01*
X59725606Y-41127259D01*
X59634394Y-41179920D01*
X59559920Y-41254394D01*
X59507259Y-41345606D01*
X59480000Y-41447339D01*
X59480000Y-41453553D01*
X58800524Y-40774077D01*
X58800523Y-40774077D01*
X58768143Y-40818644D01*
X58675765Y-40999947D01*
X58627790Y-41050743D01*
X58559969Y-41067538D01*
X58493834Y-41045000D01*
X58454795Y-40999947D01*
X58412750Y-40917429D01*
X58362287Y-40818390D01*
X58362285Y-40818387D01*
X58362284Y-40818385D01*
X58241971Y-40652786D01*
X58097213Y-40508028D01*
X57931613Y-40387715D01*
X57931612Y-40387714D01*
X57931610Y-40387713D01*
X57836361Y-40339181D01*
X57749223Y-40294781D01*
X57554534Y-40231522D01*
X57379995Y-40203878D01*
X57352352Y-40199500D01*
X57147648Y-40199500D01*
X57123329Y-40203351D01*
X56945465Y-40231522D01*
X56750776Y-40294781D01*
X56568386Y-40387715D01*
X56402786Y-40508028D01*
X56258028Y-40652786D01*
X56137714Y-40818386D01*
X56110203Y-40872379D01*
X56062227Y-40923174D01*
X55994406Y-40939968D01*
X55928272Y-40917429D01*
X55889234Y-40872376D01*
X55861861Y-40818652D01*
X55829474Y-40774077D01*
X55829474Y-40774076D01*
X55150000Y-41453551D01*
X55150000Y-41447339D01*
X55122741Y-41345606D01*
X55070080Y-41254394D01*
X54995606Y-41179920D01*
X54904394Y-41127259D01*
X54802661Y-41100000D01*
X54796446Y-41100000D01*
X55475922Y-40420524D01*
X55475921Y-40420523D01*
X55431359Y-40388147D01*
X55431350Y-40388141D01*
X55249031Y-40295244D01*
X55054417Y-40232009D01*
X54852317Y-40200000D01*
X54647683Y-40200000D01*
X54445582Y-40232009D01*
X54250968Y-40295244D01*
X54068644Y-40388143D01*
X54024077Y-40420523D01*
X54024077Y-40420524D01*
X54703554Y-41100000D01*
X54697339Y-41100000D01*
X54595606Y-41127259D01*
X54504394Y-41179920D01*
X54429920Y-41254394D01*
X54377259Y-41345606D01*
X54350000Y-41447339D01*
X54350000Y-41453553D01*
X53670524Y-40774077D01*
X53670523Y-40774077D01*
X53638143Y-40818644D01*
X53545244Y-41000968D01*
X53482009Y-41195582D01*
X53450000Y-41397682D01*
X53450000Y-41602317D01*
X53482009Y-41804417D01*
X53545244Y-41999031D01*
X53638141Y-42181350D01*
X53638147Y-42181359D01*
X53670523Y-42225921D01*
X53670524Y-42225922D01*
X54350000Y-41546446D01*
X54350000Y-41552661D01*
X54377259Y-41654394D01*
X54429920Y-41745606D01*
X54504394Y-41820080D01*
X54595606Y-41872741D01*
X54697339Y-41900000D01*
X54703553Y-41900000D01*
X54024076Y-42579474D01*
X54068652Y-42611861D01*
X54119983Y-42638015D01*
X54170780Y-42685989D01*
X54187575Y-42753810D01*
X54165038Y-42819945D01*
X54110323Y-42863397D01*
X54063689Y-42872500D01*
X50398192Y-42872500D01*
X50276973Y-42896611D01*
X50276973Y-42896612D01*
X50276970Y-42896613D01*
X50276966Y-42896614D01*
X50210070Y-42924323D01*
X50210068Y-42924323D01*
X50162770Y-42943915D01*
X50059989Y-43012590D01*
X48949398Y-44123181D01*
X48888075Y-44156666D01*
X48861717Y-44159500D01*
X47899998Y-44159500D01*
X47899980Y-44159501D01*
X47797203Y-44170000D01*
X47797200Y-44170001D01*
X47630668Y-44225185D01*
X47630663Y-44225187D01*
X47481342Y-44317289D01*
X47357289Y-44441342D01*
X47265187Y-44590663D01*
X47265185Y-44590668D01*
X47237349Y-44674670D01*
X47210001Y-44757203D01*
X47210001Y-44757204D01*
X47210000Y-44757204D01*
X47199500Y-44859983D01*
X26700500Y-44859983D01*
X26700500Y-40519983D01*
X31079500Y-40519983D01*
X31079500Y-41720001D01*
X31079501Y-41720018D01*
X31090000Y-41822796D01*
X31090001Y-41822799D01*
X31145185Y-41989331D01*
X31145187Y-41989336D01*
X31176427Y-42039984D01*
X31237288Y-42138656D01*
X31361344Y-42262712D01*
X31510666Y-42354814D01*
X31677203Y-42409999D01*
X31779991Y-42420500D01*
X32980008Y-42420499D01*
X33082797Y-42409999D01*
X33249334Y-42354814D01*
X33398656Y-42262712D01*
X33522712Y-42138656D01*
X33614814Y-41989334D01*
X33641955Y-41907427D01*
X33681726Y-41849984D01*
X33746242Y-41823161D01*
X33815018Y-41835476D01*
X33859977Y-41873547D01*
X33902781Y-41932461D01*
X33928034Y-41967219D01*
X34072786Y-42111971D01*
X34193226Y-42199474D01*
X34238390Y-42232287D01*
X34309417Y-42268477D01*
X34420776Y-42325218D01*
X34420778Y-42325218D01*
X34420781Y-42325220D01*
X34488487Y-42347219D01*
X34615465Y-42388477D01*
X34716557Y-42404488D01*
X34817648Y-42420500D01*
X34817649Y-42420500D01*
X35022351Y-42420500D01*
X35022352Y-42420500D01*
X35224534Y-42388477D01*
X35419219Y-42325220D01*
X35601610Y-42232287D01*
X35730482Y-42138657D01*
X35767213Y-42111971D01*
X35767215Y-42111968D01*
X35767219Y-42111966D01*
X35911966Y-41967219D01*
X35911968Y-41967215D01*
X35911971Y-41967213D01*
X36032284Y-41801614D01*
X36032286Y-41801611D01*
X36032287Y-41801610D01*
X36079516Y-41708917D01*
X36127489Y-41658123D01*
X36195310Y-41641328D01*
X36261445Y-41663865D01*
X36300483Y-41708917D01*
X36341004Y-41788443D01*
X36347715Y-41801614D01*
X36468028Y-41967213D01*
X36612786Y-42111971D01*
X36733226Y-42199474D01*
X36778390Y-42232287D01*
X36849417Y-42268477D01*
X36960776Y-42325218D01*
X36960778Y-42325218D01*
X36960781Y-42325220D01*
X37028487Y-42347219D01*
X37155465Y-42388477D01*
X37256557Y-42404488D01*
X37357648Y-42420500D01*
X37357649Y-42420500D01*
X37562351Y-42420500D01*
X37562352Y-42420500D01*
X37764534Y-42388477D01*
X37959219Y-42325220D01*
X38141610Y-42232287D01*
X38270482Y-42138657D01*
X38307213Y-42111971D01*
X38307215Y-42111968D01*
X38307219Y-42111966D01*
X38451966Y-41967219D01*
X38451968Y-41967215D01*
X38451971Y-41967213D01*
X38547682Y-41835476D01*
X38572287Y-41801610D01*
X38619795Y-41708369D01*
X38667769Y-41657573D01*
X38735590Y-41640778D01*
X38801725Y-41663315D01*
X38840765Y-41708369D01*
X38888141Y-41801350D01*
X38888147Y-41801359D01*
X38920523Y-41845921D01*
X38920524Y-41845922D01*
X39600000Y-41166446D01*
X39600000Y-41172661D01*
X39627259Y-41274394D01*
X39679920Y-41365606D01*
X39754394Y-41440080D01*
X39845606Y-41492741D01*
X39947339Y-41520000D01*
X39953553Y-41520000D01*
X39274076Y-42199474D01*
X39318650Y-42231859D01*
X39500968Y-42324755D01*
X39695582Y-42387990D01*
X39897683Y-42420000D01*
X40102317Y-42420000D01*
X40304417Y-42387990D01*
X40499031Y-42324755D01*
X40681348Y-42231860D01*
X40725921Y-42199474D01*
X40046447Y-41520000D01*
X40052661Y-41520000D01*
X40154394Y-41492741D01*
X40245606Y-41440080D01*
X40320080Y-41365606D01*
X40372741Y-41274394D01*
X40400000Y-41172661D01*
X40400000Y-41166447D01*
X41079474Y-41845921D01*
X41111859Y-41801349D01*
X41204755Y-41619031D01*
X41267990Y-41424417D01*
X41300000Y-41222317D01*
X41300000Y-41207682D01*
X43700000Y-41207682D01*
X43700000Y-41412317D01*
X43732009Y-41614417D01*
X43795244Y-41809031D01*
X43888141Y-41991350D01*
X43888147Y-41991359D01*
X43920523Y-42035921D01*
X43920524Y-42035922D01*
X44600000Y-41356446D01*
X44600000Y-41362661D01*
X44627259Y-41464394D01*
X44679920Y-41555606D01*
X44754394Y-41630080D01*
X44845606Y-41682741D01*
X44947339Y-41710000D01*
X44953553Y-41710000D01*
X44274076Y-42389474D01*
X44318650Y-42421859D01*
X44500968Y-42514755D01*
X44695582Y-42577990D01*
X44897683Y-42610000D01*
X45102317Y-42610000D01*
X45304417Y-42577990D01*
X45499031Y-42514755D01*
X45681349Y-42421859D01*
X45725921Y-42389474D01*
X45046447Y-41710000D01*
X45052661Y-41710000D01*
X45154394Y-41682741D01*
X45245606Y-41630080D01*
X45320080Y-41555606D01*
X45372741Y-41464394D01*
X45400000Y-41362661D01*
X45400000Y-41356447D01*
X46079474Y-42035921D01*
X46111859Y-41991349D01*
X46204755Y-41809031D01*
X46267990Y-41614417D01*
X46300000Y-41412317D01*
X46300000Y-41207682D01*
X46267990Y-41005582D01*
X46204755Y-40810968D01*
X46111859Y-40628650D01*
X46079474Y-40584077D01*
X46079474Y-40584076D01*
X45400000Y-41263551D01*
X45400000Y-41257339D01*
X45372741Y-41155606D01*
X45320080Y-41064394D01*
X45245606Y-40989920D01*
X45154394Y-40937259D01*
X45052661Y-40910000D01*
X45046446Y-40910000D01*
X45725922Y-40230524D01*
X45725921Y-40230523D01*
X45681359Y-40198147D01*
X45681350Y-40198141D01*
X45499031Y-40105244D01*
X45304417Y-40042009D01*
X45102317Y-40010000D01*
X44897683Y-40010000D01*
X44695582Y-40042009D01*
X44500968Y-40105244D01*
X44318644Y-40198143D01*
X44274077Y-40230523D01*
X44274077Y-40230524D01*
X44953554Y-40910000D01*
X44947339Y-40910000D01*
X44845606Y-40937259D01*
X44754394Y-40989920D01*
X44679920Y-41064394D01*
X44627259Y-41155606D01*
X44600000Y-41257339D01*
X44600000Y-41263553D01*
X43920524Y-40584077D01*
X43920523Y-40584077D01*
X43888143Y-40628644D01*
X43795244Y-40810968D01*
X43732009Y-41005582D01*
X43700000Y-41207682D01*
X41300000Y-41207682D01*
X41300000Y-41017682D01*
X41267990Y-40815582D01*
X41204755Y-40620968D01*
X41111859Y-40438650D01*
X41079474Y-40394077D01*
X41079474Y-40394076D01*
X40400000Y-41073551D01*
X40400000Y-41067339D01*
X40372741Y-40965606D01*
X40320080Y-40874394D01*
X40245606Y-40799920D01*
X40154394Y-40747259D01*
X40052661Y-40720000D01*
X40046446Y-40720000D01*
X40725922Y-40040524D01*
X40725921Y-40040523D01*
X40681359Y-40008147D01*
X40681350Y-40008141D01*
X40499031Y-39915244D01*
X40358033Y-39869431D01*
X40300358Y-39829993D01*
X40273160Y-39765634D01*
X40285075Y-39696788D01*
X40332319Y-39645312D01*
X40396352Y-39627500D01*
X47688719Y-39627500D01*
X47755758Y-39647185D01*
X47776400Y-39663819D01*
X48697310Y-40584729D01*
X48730795Y-40646052D01*
X48732102Y-40691808D01*
X48699500Y-40897648D01*
X48699500Y-41102351D01*
X48731522Y-41304534D01*
X48794781Y-41499223D01*
X48847311Y-41602317D01*
X48878671Y-41663865D01*
X48887715Y-41681613D01*
X49008028Y-41847213D01*
X49152786Y-41991971D01*
X49307749Y-42104556D01*
X49318390Y-42112287D01*
X49406570Y-42157217D01*
X49500776Y-42205218D01*
X49500778Y-42205218D01*
X49500781Y-42205220D01*
X49584085Y-42232287D01*
X49695465Y-42268477D01*
X49796557Y-42284488D01*
X49897648Y-42300500D01*
X49897649Y-42300500D01*
X50102351Y-42300500D01*
X50102352Y-42300500D01*
X50304534Y-42268477D01*
X50499219Y-42205220D01*
X50681610Y-42112287D01*
X50801096Y-42025476D01*
X50847213Y-41991971D01*
X50847215Y-41991968D01*
X50847219Y-41991966D01*
X50991966Y-41847219D01*
X50991968Y-41847215D01*
X50991971Y-41847213D01*
X51061468Y-41751557D01*
X51112287Y-41681610D01*
X51205220Y-41499219D01*
X51268477Y-41304534D01*
X51300500Y-41102352D01*
X51300500Y-40897648D01*
X51287502Y-40815582D01*
X51268477Y-40695465D01*
X51239799Y-40607204D01*
X51205220Y-40500781D01*
X51112287Y-40318390D01*
X51095134Y-40294781D01*
X50991971Y-40152786D01*
X50847213Y-40008028D01*
X50681613Y-39887715D01*
X50681612Y-39887714D01*
X50681610Y-39887713D01*
X50610583Y-39851523D01*
X50499223Y-39794781D01*
X50304534Y-39731522D01*
X50129995Y-39703878D01*
X50102352Y-39699500D01*
X49897648Y-39699500D01*
X49837052Y-39709097D01*
X49691808Y-39732102D01*
X49622514Y-39723147D01*
X49584729Y-39697310D01*
X48617877Y-38730457D01*
X48535068Y-38647648D01*
X82699500Y-38647648D01*
X82699500Y-38852351D01*
X82731522Y-39054534D01*
X82794781Y-39249223D01*
X82887715Y-39431613D01*
X83008028Y-39597213D01*
X83152786Y-39741971D01*
X83304371Y-39852102D01*
X83318390Y-39862287D01*
X83421413Y-39914780D01*
X83500776Y-39955218D01*
X83500778Y-39955218D01*
X83500781Y-39955220D01*
X83605137Y-39989127D01*
X83695465Y-40018477D01*
X83788087Y-40033147D01*
X83897648Y-40050500D01*
X83897649Y-40050500D01*
X84102351Y-40050500D01*
X84102352Y-40050500D01*
X84304534Y-40018477D01*
X84499219Y-39955220D01*
X84681610Y-39862287D01*
X84778106Y-39792179D01*
X84847213Y-39741971D01*
X84847215Y-39741968D01*
X84847219Y-39741966D01*
X84991966Y-39597219D01*
X84991968Y-39597215D01*
X84991971Y-39597213D01*
X85044732Y-39524590D01*
X85112287Y-39431610D01*
X85205220Y-39249219D01*
X85268477Y-39054534D01*
X85300500Y-38852352D01*
X85300500Y-38647648D01*
X85279109Y-38512590D01*
X85268477Y-38445465D01*
X85205218Y-38250776D01*
X85171503Y-38184607D01*
X85112287Y-38068390D01*
X85104556Y-38057749D01*
X84991971Y-37902786D01*
X84847213Y-37758028D01*
X84681611Y-37637713D01*
X84627621Y-37610203D01*
X84576825Y-37562228D01*
X84560031Y-37494407D01*
X84582569Y-37428272D01*
X84627624Y-37389233D01*
X84681349Y-37361859D01*
X84725921Y-37329474D01*
X84046447Y-36650000D01*
X84052661Y-36650000D01*
X84154394Y-36622741D01*
X84245606Y-36570080D01*
X84320080Y-36495606D01*
X84372741Y-36404394D01*
X84400000Y-36302661D01*
X84400000Y-36296447D01*
X85079474Y-36975921D01*
X85111859Y-36931349D01*
X85204755Y-36749031D01*
X85267990Y-36554417D01*
X85300000Y-36352317D01*
X85300000Y-36147682D01*
X85267990Y-35945582D01*
X85204755Y-35750968D01*
X85111859Y-35568650D01*
X85079474Y-35524077D01*
X85079474Y-35524076D01*
X84400000Y-36203551D01*
X84400000Y-36197339D01*
X84372741Y-36095606D01*
X84320080Y-36004394D01*
X84245606Y-35929920D01*
X84154394Y-35877259D01*
X84052661Y-35850000D01*
X84046446Y-35850000D01*
X84675247Y-35221200D01*
X84725922Y-35170524D01*
X84725921Y-35170523D01*
X84681359Y-35138147D01*
X84681350Y-35138141D01*
X84499031Y-35045244D01*
X84304417Y-34982009D01*
X84102317Y-34950000D01*
X83897683Y-34950000D01*
X83695582Y-34982009D01*
X83500968Y-35045244D01*
X83318644Y-35138143D01*
X83274077Y-35170523D01*
X83274077Y-35170524D01*
X83953554Y-35850000D01*
X83947339Y-35850000D01*
X83845606Y-35877259D01*
X83754394Y-35929920D01*
X83679920Y-36004394D01*
X83627259Y-36095606D01*
X83600000Y-36197339D01*
X83600000Y-36203553D01*
X82920524Y-35524077D01*
X82920523Y-35524077D01*
X82888143Y-35568644D01*
X82795244Y-35750968D01*
X82732009Y-35945582D01*
X82700000Y-36147682D01*
X82700000Y-36352317D01*
X82732009Y-36554417D01*
X82795244Y-36749031D01*
X82888141Y-36931350D01*
X82888147Y-36931359D01*
X82920523Y-36975921D01*
X82920524Y-36975922D01*
X83600000Y-36296446D01*
X83600000Y-36302661D01*
X83627259Y-36404394D01*
X83679920Y-36495606D01*
X83754394Y-36570080D01*
X83845606Y-36622741D01*
X83947339Y-36650000D01*
X83953553Y-36650000D01*
X83274076Y-37329474D01*
X83318652Y-37361861D01*
X83372376Y-37389234D01*
X83423172Y-37437208D01*
X83439968Y-37505028D01*
X83417431Y-37571164D01*
X83372379Y-37610203D01*
X83318386Y-37637714D01*
X83152786Y-37758028D01*
X83008028Y-37902786D01*
X82887715Y-38068386D01*
X82794781Y-38250776D01*
X82731522Y-38445465D01*
X82699500Y-38647648D01*
X48535068Y-38647648D01*
X48400010Y-38512590D01*
X48348858Y-38478412D01*
X48297233Y-38443917D01*
X48297229Y-38443915D01*
X48297227Y-38443914D01*
X48297228Y-38443914D01*
X48263785Y-38430062D01*
X48183035Y-38396614D01*
X48183027Y-38396612D01*
X48061807Y-38372500D01*
X48061803Y-38372500D01*
X37101803Y-38372500D01*
X36978197Y-38372500D01*
X36978192Y-38372500D01*
X36856973Y-38396611D01*
X36856973Y-38396612D01*
X36856970Y-38396613D01*
X36856966Y-38396614D01*
X36790070Y-38424323D01*
X36790068Y-38424323D01*
X36742770Y-38443915D01*
X36691142Y-38478412D01*
X36639989Y-38512590D01*
X35335269Y-39817310D01*
X35273946Y-39850795D01*
X35228190Y-39852102D01*
X35105711Y-39832703D01*
X35022352Y-39819500D01*
X34817648Y-39819500D01*
X34793329Y-39823351D01*
X34615465Y-39851522D01*
X34420776Y-39914781D01*
X34238386Y-40007715D01*
X34072786Y-40128028D01*
X33928032Y-40272782D01*
X33928028Y-40272787D01*
X33859978Y-40366451D01*
X33804648Y-40409117D01*
X33735035Y-40415096D01*
X33673240Y-40382490D01*
X33641954Y-40332570D01*
X33614814Y-40250666D01*
X33522712Y-40101344D01*
X33398656Y-39977288D01*
X33256847Y-39889820D01*
X33249336Y-39885187D01*
X33249331Y-39885185D01*
X33211050Y-39872500D01*
X33082797Y-39830001D01*
X33082795Y-39830000D01*
X32980010Y-39819500D01*
X31779998Y-39819500D01*
X31779981Y-39819501D01*
X31677203Y-39830000D01*
X31677200Y-39830001D01*
X31510668Y-39885185D01*
X31510663Y-39885187D01*
X31361342Y-39977289D01*
X31237289Y-40101342D01*
X31145187Y-40250663D01*
X31145185Y-40250668D01*
X31130568Y-40294780D01*
X31090001Y-40417203D01*
X31090001Y-40417204D01*
X31090000Y-40417204D01*
X31079500Y-40519983D01*
X26700500Y-40519983D01*
X26700500Y-33397682D01*
X31080000Y-33397682D01*
X31080000Y-33602317D01*
X31112009Y-33804417D01*
X31175244Y-33999031D01*
X31268141Y-34181350D01*
X31268147Y-34181359D01*
X31300523Y-34225921D01*
X31300524Y-34225922D01*
X31980000Y-33546446D01*
X31980000Y-33552661D01*
X32007259Y-33654394D01*
X32059920Y-33745606D01*
X32134394Y-33820080D01*
X32225606Y-33872741D01*
X32327339Y-33900000D01*
X32333553Y-33900000D01*
X31654076Y-34579474D01*
X31698650Y-34611859D01*
X31880968Y-34704755D01*
X32075582Y-34767990D01*
X32277683Y-34800000D01*
X32482317Y-34800000D01*
X32684417Y-34767990D01*
X32879031Y-34704755D01*
X33061349Y-34611859D01*
X33105921Y-34579474D01*
X32426447Y-33900000D01*
X32432661Y-33900000D01*
X32534394Y-33872741D01*
X32625606Y-33820080D01*
X32700080Y-33745606D01*
X32752741Y-33654394D01*
X32780000Y-33552661D01*
X32780000Y-33546448D01*
X33459474Y-34225922D01*
X33459474Y-34225921D01*
X33491861Y-34181347D01*
X33491861Y-34181346D01*
X33539234Y-34088371D01*
X33587208Y-34037575D01*
X33655028Y-34020779D01*
X33721164Y-34043316D01*
X33760203Y-34088369D01*
X33807713Y-34181611D01*
X33928028Y-34347213D01*
X34072786Y-34491971D01*
X34193226Y-34579474D01*
X34238390Y-34612287D01*
X34346353Y-34667297D01*
X34420776Y-34705218D01*
X34420778Y-34705218D01*
X34420781Y-34705220D01*
X34525137Y-34739127D01*
X34615465Y-34768477D01*
X34716557Y-34784488D01*
X34817648Y-34800500D01*
X34817649Y-34800500D01*
X35022350Y-34800500D01*
X35022352Y-34800500D01*
X35224534Y-34768477D01*
X35224539Y-34768475D01*
X35228190Y-34767897D01*
X35297484Y-34776851D01*
X35335270Y-34802689D01*
X36432589Y-35900008D01*
X36478163Y-35945582D01*
X36519993Y-35987412D01*
X36622760Y-36056079D01*
X36622773Y-36056086D01*
X36736960Y-36103383D01*
X36736965Y-36103385D01*
X36736969Y-36103385D01*
X36736970Y-36103386D01*
X36858194Y-36127500D01*
X36858197Y-36127500D01*
X43251804Y-36127500D01*
X43251805Y-36127499D01*
X43373035Y-36103386D01*
X43453784Y-36069937D01*
X43487233Y-36056083D01*
X43590008Y-35987411D01*
X43677411Y-35900008D01*
X44329082Y-35248336D01*
X58249500Y-35248336D01*
X58249500Y-35551663D01*
X58283457Y-35853048D01*
X58283460Y-35853062D01*
X58350953Y-36148771D01*
X58350957Y-36148783D01*
X58451133Y-36435068D01*
X58582733Y-36708338D01*
X58582735Y-36708341D01*
X58744108Y-36965164D01*
X58933221Y-37202304D01*
X59147696Y-37416779D01*
X59384836Y-37605892D01*
X59641659Y-37767265D01*
X59914935Y-37898868D01*
X60129951Y-37974105D01*
X60201216Y-37999042D01*
X60201228Y-37999046D01*
X60496937Y-38066540D01*
X60496946Y-38066541D01*
X60496951Y-38066542D01*
X60697874Y-38089180D01*
X60798337Y-38100499D01*
X60798340Y-38100500D01*
X60798343Y-38100500D01*
X61101660Y-38100500D01*
X61101661Y-38100499D01*
X61255694Y-38083144D01*
X61403048Y-38066542D01*
X61403051Y-38066541D01*
X61403063Y-38066540D01*
X61698772Y-37999046D01*
X61985065Y-37898868D01*
X62258341Y-37767265D01*
X62515164Y-37605892D01*
X62752304Y-37416779D01*
X62966779Y-37202304D01*
X63155892Y-36965164D01*
X63317265Y-36708341D01*
X63448868Y-36435065D01*
X63549046Y-36148772D01*
X63616540Y-35853063D01*
X63625499Y-35773554D01*
X63650499Y-35551663D01*
X63650500Y-35551659D01*
X63650500Y-35248342D01*
X63648621Y-35231669D01*
X63648621Y-35231666D01*
X63616542Y-34946951D01*
X63616541Y-34946946D01*
X63616540Y-34946937D01*
X63549046Y-34651228D01*
X63548083Y-34648477D01*
X63509152Y-34537217D01*
X63448868Y-34364935D01*
X63322912Y-34103386D01*
X63317266Y-34091661D01*
X63317265Y-34091659D01*
X63155892Y-33834836D01*
X62966779Y-33597696D01*
X62956765Y-33587682D01*
X69890000Y-33587682D01*
X69890000Y-33792317D01*
X69922009Y-33994417D01*
X69985244Y-34189031D01*
X70078141Y-34371350D01*
X70078147Y-34371359D01*
X70110523Y-34415921D01*
X70110524Y-34415922D01*
X70790000Y-33736446D01*
X70790000Y-33742661D01*
X70817259Y-33844394D01*
X70869920Y-33935606D01*
X70944394Y-34010080D01*
X71035606Y-34062741D01*
X71137339Y-34090000D01*
X71143553Y-34090000D01*
X70464076Y-34769474D01*
X70508650Y-34801859D01*
X70690968Y-34894755D01*
X70885582Y-34957990D01*
X71087683Y-34990000D01*
X71292317Y-34990000D01*
X71494417Y-34957990D01*
X71689031Y-34894755D01*
X71871349Y-34801859D01*
X71915921Y-34769474D01*
X71236447Y-34090000D01*
X71242661Y-34090000D01*
X71344394Y-34062741D01*
X71435606Y-34010080D01*
X71510080Y-33935606D01*
X71562741Y-33844394D01*
X71590000Y-33742661D01*
X71590000Y-33736448D01*
X72269474Y-34415922D01*
X72269474Y-34415921D01*
X72301861Y-34371347D01*
X72301861Y-34371346D01*
X72349234Y-34278371D01*
X72397208Y-34227575D01*
X72465028Y-34210779D01*
X72531164Y-34233316D01*
X72570203Y-34278369D01*
X72617713Y-34371611D01*
X72738028Y-34537213D01*
X72882786Y-34681971D01*
X73001854Y-34768477D01*
X73048390Y-34802287D01*
X73114911Y-34836181D01*
X73230776Y-34895218D01*
X73230778Y-34895218D01*
X73230781Y-34895220D01*
X73307046Y-34920000D01*
X73425465Y-34958477D01*
X73526557Y-34974488D01*
X73627648Y-34990500D01*
X73627649Y-34990500D01*
X73832351Y-34990500D01*
X73832352Y-34990500D01*
X74034534Y-34958477D01*
X74229219Y-34895220D01*
X74411610Y-34802287D01*
X74510859Y-34730179D01*
X74577213Y-34681971D01*
X74577215Y-34681968D01*
X74577219Y-34681966D01*
X74721966Y-34537219D01*
X74721968Y-34537215D01*
X74721971Y-34537213D01*
X74842284Y-34371614D01*
X74842286Y-34371611D01*
X74842287Y-34371610D01*
X74889516Y-34278917D01*
X74937489Y-34228123D01*
X75005310Y-34211328D01*
X75071445Y-34233865D01*
X75110483Y-34278917D01*
X75123635Y-34304728D01*
X75157715Y-34371614D01*
X75278028Y-34537213D01*
X75422786Y-34681971D01*
X75541854Y-34768477D01*
X75588390Y-34802287D01*
X75654911Y-34836181D01*
X75770776Y-34895218D01*
X75770778Y-34895218D01*
X75770781Y-34895220D01*
X75847046Y-34920000D01*
X75965465Y-34958477D01*
X76066557Y-34974488D01*
X76167648Y-34990500D01*
X76167649Y-34990500D01*
X76372351Y-34990500D01*
X76372352Y-34990500D01*
X76574534Y-34958477D01*
X76769219Y-34895220D01*
X76951610Y-34802287D01*
X77050859Y-34730179D01*
X77117213Y-34681971D01*
X77117215Y-34681968D01*
X77117219Y-34681966D01*
X77261966Y-34537219D01*
X77261968Y-34537215D01*
X77261971Y-34537213D01*
X77382284Y-34371614D01*
X77382286Y-34371611D01*
X77382287Y-34371610D01*
X77429516Y-34278917D01*
X77477489Y-34228123D01*
X77545310Y-34211328D01*
X77611445Y-34233865D01*
X77650483Y-34278917D01*
X77663635Y-34304728D01*
X77697715Y-34371614D01*
X77818028Y-34537213D01*
X77962786Y-34681971D01*
X78081854Y-34768477D01*
X78128390Y-34802287D01*
X78194911Y-34836181D01*
X78310776Y-34895218D01*
X78310778Y-34895218D01*
X78310781Y-34895220D01*
X78387046Y-34920000D01*
X78505465Y-34958477D01*
X78606557Y-34974488D01*
X78707648Y-34990500D01*
X78707649Y-34990500D01*
X78912351Y-34990500D01*
X78912352Y-34990500D01*
X79114534Y-34958477D01*
X79309219Y-34895220D01*
X79491610Y-34802287D01*
X79590859Y-34730179D01*
X79657213Y-34681971D01*
X79657215Y-34681968D01*
X79657219Y-34681966D01*
X79801966Y-34537219D01*
X79801968Y-34537215D01*
X79801971Y-34537213D01*
X79854732Y-34464590D01*
X79922287Y-34371610D01*
X80015220Y-34189219D01*
X80078477Y-33994534D01*
X80110500Y-33792352D01*
X80110500Y-33587682D01*
X87390000Y-33587682D01*
X87390000Y-33792317D01*
X87422009Y-33994417D01*
X87485244Y-34189031D01*
X87578141Y-34371350D01*
X87578147Y-34371359D01*
X87610523Y-34415921D01*
X87610524Y-34415922D01*
X88290000Y-33736446D01*
X88290000Y-33742661D01*
X88317259Y-33844394D01*
X88369920Y-33935606D01*
X88444394Y-34010080D01*
X88535606Y-34062741D01*
X88637339Y-34090000D01*
X88643553Y-34090000D01*
X87964076Y-34769474D01*
X88008650Y-34801859D01*
X88190968Y-34894755D01*
X88385582Y-34957990D01*
X88587683Y-34990000D01*
X88792317Y-34990000D01*
X88994417Y-34957990D01*
X89189031Y-34894755D01*
X89371349Y-34801859D01*
X89415921Y-34769474D01*
X88736447Y-34090000D01*
X88742661Y-34090000D01*
X88844394Y-34062741D01*
X88935606Y-34010080D01*
X89010080Y-33935606D01*
X89062741Y-33844394D01*
X89090000Y-33742661D01*
X89090000Y-33736447D01*
X89769474Y-34415921D01*
X89801861Y-34371347D01*
X89801861Y-34371346D01*
X89849234Y-34278371D01*
X89897208Y-34227575D01*
X89965028Y-34210779D01*
X90031164Y-34233316D01*
X90070203Y-34278369D01*
X90117713Y-34371611D01*
X90238028Y-34537213D01*
X90382786Y-34681971D01*
X90501854Y-34768477D01*
X90548390Y-34802287D01*
X90614911Y-34836181D01*
X90730776Y-34895218D01*
X90730778Y-34895218D01*
X90730781Y-34895220D01*
X90807046Y-34920000D01*
X90925465Y-34958477D01*
X91026557Y-34974488D01*
X91127648Y-34990500D01*
X91127649Y-34990500D01*
X91332351Y-34990500D01*
X91332352Y-34990500D01*
X91534534Y-34958477D01*
X91729219Y-34895220D01*
X91911610Y-34802287D01*
X92010859Y-34730179D01*
X92077213Y-34681971D01*
X92077215Y-34681968D01*
X92077219Y-34681966D01*
X92221966Y-34537219D01*
X92342287Y-34371610D01*
X92342289Y-34371605D01*
X92344462Y-34368615D01*
X92348795Y-34365273D01*
X92351068Y-34360297D01*
X92376164Y-34344168D01*
X92399792Y-34325949D01*
X92406465Y-34324695D01*
X92409846Y-34322523D01*
X92444781Y-34317500D01*
X92555219Y-34317500D01*
X92622258Y-34337185D01*
X92655538Y-34368615D01*
X92657710Y-34371605D01*
X92657713Y-34371610D01*
X92778030Y-34537213D01*
X92778034Y-34537219D01*
X92922786Y-34681971D01*
X93041854Y-34768477D01*
X93088390Y-34802287D01*
X93154911Y-34836181D01*
X93270776Y-34895218D01*
X93270778Y-34895218D01*
X93270781Y-34895220D01*
X93347046Y-34920000D01*
X93465465Y-34958477D01*
X93566557Y-34974488D01*
X93667648Y-34990500D01*
X93667649Y-34990500D01*
X93872351Y-34990500D01*
X93872352Y-34990500D01*
X94074534Y-34958477D01*
X94269219Y-34895220D01*
X94451610Y-34802287D01*
X94550859Y-34730179D01*
X94617213Y-34681971D01*
X94617215Y-34681968D01*
X94617219Y-34681966D01*
X94761966Y-34537219D01*
X94761968Y-34537215D01*
X94761971Y-34537213D01*
X94882284Y-34371614D01*
X94882286Y-34371611D01*
X94882287Y-34371610D01*
X94929516Y-34278917D01*
X94977489Y-34228123D01*
X95045310Y-34211328D01*
X95111445Y-34233865D01*
X95150483Y-34278917D01*
X95163635Y-34304728D01*
X95197715Y-34371614D01*
X95318028Y-34537213D01*
X95462786Y-34681971D01*
X95581854Y-34768477D01*
X95628390Y-34802287D01*
X95694911Y-34836181D01*
X95810776Y-34895218D01*
X95810778Y-34895218D01*
X95810781Y-34895220D01*
X95887046Y-34920000D01*
X96005465Y-34958477D01*
X96106557Y-34974488D01*
X96207648Y-34990500D01*
X96207649Y-34990500D01*
X96412351Y-34990500D01*
X96412352Y-34990500D01*
X96614534Y-34958477D01*
X96809219Y-34895220D01*
X96991610Y-34802287D01*
X97090859Y-34730179D01*
X97157213Y-34681971D01*
X97157215Y-34681968D01*
X97157219Y-34681966D01*
X97301966Y-34537219D01*
X97301968Y-34537215D01*
X97301971Y-34537213D01*
X97422284Y-34371614D01*
X97422286Y-34371611D01*
X97422287Y-34371610D01*
X97515220Y-34189219D01*
X97578477Y-33994534D01*
X97610500Y-33792352D01*
X97610500Y-33587648D01*
X97596618Y-33499999D01*
X97578477Y-33385465D01*
X97516301Y-33194108D01*
X97515220Y-33190781D01*
X97515218Y-33190778D01*
X97515218Y-33190776D01*
X97469515Y-33101080D01*
X97422287Y-33008390D01*
X97390092Y-32964077D01*
X97301971Y-32842786D01*
X97157213Y-32698028D01*
X96991613Y-32577715D01*
X96991612Y-32577714D01*
X96991610Y-32577713D01*
X96903436Y-32532786D01*
X96809223Y-32484781D01*
X96614534Y-32421522D01*
X96439995Y-32393878D01*
X96412352Y-32389500D01*
X96207648Y-32389500D01*
X96183329Y-32393351D01*
X96005465Y-32421522D01*
X95810776Y-32484781D01*
X95628386Y-32577715D01*
X95462786Y-32698028D01*
X95318028Y-32842786D01*
X95197715Y-33008386D01*
X95150485Y-33101080D01*
X95102510Y-33151876D01*
X95034689Y-33168671D01*
X94968554Y-33146134D01*
X94929515Y-33101080D01*
X94907298Y-33057477D01*
X94882287Y-33008390D01*
X94850092Y-32964077D01*
X94761971Y-32842786D01*
X94617213Y-32698028D01*
X94451613Y-32577715D01*
X94451612Y-32577714D01*
X94451610Y-32577713D01*
X94363436Y-32532786D01*
X94269223Y-32484781D01*
X94074534Y-32421522D01*
X93899995Y-32393878D01*
X93872352Y-32389500D01*
X93667648Y-32389500D01*
X93643329Y-32393351D01*
X93465465Y-32421522D01*
X93270776Y-32484781D01*
X93088386Y-32577715D01*
X92922786Y-32698028D01*
X92778034Y-32842780D01*
X92735640Y-32901132D01*
X92657713Y-33008390D01*
X92657710Y-33008394D01*
X92655538Y-33011385D01*
X92651204Y-33014726D01*
X92648932Y-33019703D01*
X92623835Y-33035831D01*
X92600208Y-33054051D01*
X92593534Y-33055304D01*
X92590154Y-33057477D01*
X92555219Y-33062500D01*
X92444781Y-33062500D01*
X92377742Y-33042815D01*
X92344462Y-33011385D01*
X92342289Y-33008394D01*
X92342287Y-33008390D01*
X92221966Y-32842781D01*
X92077219Y-32698034D01*
X92077213Y-32698028D01*
X91911613Y-32577715D01*
X91911612Y-32577714D01*
X91911610Y-32577713D01*
X91823436Y-32532786D01*
X91729223Y-32484781D01*
X91534534Y-32421522D01*
X91359995Y-32393878D01*
X91332352Y-32389500D01*
X91127648Y-32389500D01*
X91103329Y-32393351D01*
X90925465Y-32421522D01*
X90730776Y-32484781D01*
X90548386Y-32577715D01*
X90382786Y-32698028D01*
X90238028Y-32842786D01*
X90117713Y-33008388D01*
X90070203Y-33101630D01*
X90022228Y-33152426D01*
X89954407Y-33169220D01*
X89888272Y-33146682D01*
X89849234Y-33101628D01*
X89801861Y-33008652D01*
X89769474Y-32964077D01*
X89769474Y-32964076D01*
X89090000Y-33643551D01*
X89090000Y-33637339D01*
X89062741Y-33535606D01*
X89010080Y-33444394D01*
X88935606Y-33369920D01*
X88844394Y-33317259D01*
X88742661Y-33290000D01*
X88736446Y-33290000D01*
X89415922Y-32610524D01*
X89415921Y-32610523D01*
X89371359Y-32578147D01*
X89371350Y-32578141D01*
X89189031Y-32485244D01*
X88994417Y-32422009D01*
X88792317Y-32390000D01*
X88587683Y-32390000D01*
X88385582Y-32422009D01*
X88190968Y-32485244D01*
X88008644Y-32578143D01*
X87964077Y-32610523D01*
X87964077Y-32610524D01*
X88643554Y-33290000D01*
X88637339Y-33290000D01*
X88535606Y-33317259D01*
X88444394Y-33369920D01*
X88369920Y-33444394D01*
X88317259Y-33535606D01*
X88290000Y-33637339D01*
X88290000Y-33643553D01*
X87610524Y-32964077D01*
X87610523Y-32964077D01*
X87578143Y-33008644D01*
X87485244Y-33190968D01*
X87422009Y-33385582D01*
X87390000Y-33587682D01*
X80110500Y-33587682D01*
X80110500Y-33587648D01*
X80096618Y-33499999D01*
X80078477Y-33385465D01*
X80016301Y-33194108D01*
X80015220Y-33190781D01*
X80015218Y-33190778D01*
X80015218Y-33190776D01*
X79969515Y-33101080D01*
X79922287Y-33008390D01*
X79890092Y-32964077D01*
X79801971Y-32842786D01*
X79657213Y-32698028D01*
X79491613Y-32577715D01*
X79491612Y-32577714D01*
X79491610Y-32577713D01*
X79403436Y-32532786D01*
X79309223Y-32484781D01*
X79114534Y-32421522D01*
X78939995Y-32393878D01*
X78912352Y-32389500D01*
X78707648Y-32389500D01*
X78683329Y-32393351D01*
X78505465Y-32421522D01*
X78310776Y-32484781D01*
X78128386Y-32577715D01*
X77962786Y-32698028D01*
X77818028Y-32842786D01*
X77697715Y-33008386D01*
X77650485Y-33101080D01*
X77602510Y-33151876D01*
X77534689Y-33168671D01*
X77468554Y-33146134D01*
X77429515Y-33101080D01*
X77407298Y-33057477D01*
X77382287Y-33008390D01*
X77350092Y-32964077D01*
X77261971Y-32842786D01*
X77117213Y-32698028D01*
X76951613Y-32577715D01*
X76951612Y-32577714D01*
X76951610Y-32577713D01*
X76863436Y-32532786D01*
X76769223Y-32484781D01*
X76574534Y-32421522D01*
X76399995Y-32393878D01*
X76372352Y-32389500D01*
X76167648Y-32389500D01*
X76143329Y-32393351D01*
X75965465Y-32421522D01*
X75770776Y-32484781D01*
X75588386Y-32577715D01*
X75422786Y-32698028D01*
X75278028Y-32842786D01*
X75157715Y-33008386D01*
X75110485Y-33101080D01*
X75062510Y-33151876D01*
X74994689Y-33168671D01*
X74928554Y-33146134D01*
X74889515Y-33101080D01*
X74867298Y-33057477D01*
X74842287Y-33008390D01*
X74810092Y-32964077D01*
X74721971Y-32842786D01*
X74577213Y-32698028D01*
X74411613Y-32577715D01*
X74411612Y-32577714D01*
X74411610Y-32577713D01*
X74323436Y-32532786D01*
X74229223Y-32484781D01*
X74034534Y-32421522D01*
X73859995Y-32393878D01*
X73832352Y-32389500D01*
X73627648Y-32389500D01*
X73603329Y-32393351D01*
X73425465Y-32421522D01*
X73230776Y-32484781D01*
X73048386Y-32577715D01*
X72882786Y-32698028D01*
X72738028Y-32842786D01*
X72617713Y-33008388D01*
X72570203Y-33101630D01*
X72522228Y-33152426D01*
X72454407Y-33169220D01*
X72388272Y-33146682D01*
X72349234Y-33101628D01*
X72301861Y-33008652D01*
X72269474Y-32964077D01*
X72269474Y-32964076D01*
X71590000Y-33643551D01*
X71590000Y-33637339D01*
X71562741Y-33535606D01*
X71510080Y-33444394D01*
X71435606Y-33369920D01*
X71344394Y-33317259D01*
X71242661Y-33290000D01*
X71236446Y-33290000D01*
X71915922Y-32610524D01*
X71915921Y-32610523D01*
X71871359Y-32578147D01*
X71871350Y-32578141D01*
X71689031Y-32485244D01*
X71494417Y-32422009D01*
X71292317Y-32390000D01*
X71087683Y-32390000D01*
X70885582Y-32422009D01*
X70690968Y-32485244D01*
X70508644Y-32578143D01*
X70464077Y-32610523D01*
X70464077Y-32610524D01*
X71143554Y-33290000D01*
X71137339Y-33290000D01*
X71035606Y-33317259D01*
X70944394Y-33369920D01*
X70869920Y-33444394D01*
X70817259Y-33535606D01*
X70790000Y-33637339D01*
X70790000Y-33643553D01*
X70110524Y-32964077D01*
X70110523Y-32964077D01*
X70078143Y-33008644D01*
X69985244Y-33190968D01*
X69922009Y-33385582D01*
X69890000Y-33587682D01*
X62956765Y-33587682D01*
X62752304Y-33383221D01*
X62515164Y-33194108D01*
X62258341Y-33032735D01*
X62258338Y-33032733D01*
X61985068Y-32901133D01*
X61698783Y-32800957D01*
X61698771Y-32800953D01*
X61601158Y-32778674D01*
X61486482Y-32752500D01*
X61403063Y-32733460D01*
X61403060Y-32733459D01*
X61403048Y-32733457D01*
X61101663Y-32699500D01*
X61101657Y-32699500D01*
X60798343Y-32699500D01*
X60798336Y-32699500D01*
X60496951Y-32733457D01*
X60496937Y-32733460D01*
X60201228Y-32800953D01*
X60201216Y-32800957D01*
X59914931Y-32901133D01*
X59641661Y-33032733D01*
X59384837Y-33194107D01*
X59147696Y-33383220D01*
X58933220Y-33597696D01*
X58744107Y-33834837D01*
X58582733Y-34091661D01*
X58451133Y-34364931D01*
X58350957Y-34651216D01*
X58350953Y-34651228D01*
X58283460Y-34946937D01*
X58283457Y-34946951D01*
X58249500Y-35248336D01*
X44329082Y-35248336D01*
X44584730Y-34992687D01*
X44646051Y-34959204D01*
X44691807Y-34957897D01*
X44695463Y-34958476D01*
X44695466Y-34958477D01*
X44897648Y-34990500D01*
X44897649Y-34990500D01*
X45102351Y-34990500D01*
X45102352Y-34990500D01*
X45304534Y-34958477D01*
X45499219Y-34895220D01*
X45681610Y-34802287D01*
X45780859Y-34730179D01*
X45847213Y-34681971D01*
X45847215Y-34681968D01*
X45847219Y-34681966D01*
X45991966Y-34537219D01*
X45991968Y-34537215D01*
X45991971Y-34537213D01*
X46044732Y-34464590D01*
X46112287Y-34371610D01*
X46205220Y-34189219D01*
X46268477Y-33994534D01*
X46300500Y-33792352D01*
X46300500Y-33587648D01*
X46268477Y-33385466D01*
X46268476Y-33385463D01*
X46267897Y-33381807D01*
X46276851Y-33312514D01*
X46302686Y-33274731D01*
X47913600Y-31663819D01*
X47974923Y-31630334D01*
X48001281Y-31627500D01*
X52621922Y-31627500D01*
X52688961Y-31647185D01*
X52732407Y-31695205D01*
X52752187Y-31734026D01*
X52881752Y-31912358D01*
X52881756Y-31912363D01*
X53037636Y-32068243D01*
X53037641Y-32068247D01*
X53149727Y-32149682D01*
X53192393Y-32205011D01*
X53198372Y-32274625D01*
X53165767Y-32336420D01*
X53149727Y-32350318D01*
X53037641Y-32431752D01*
X53037636Y-32431756D01*
X52881758Y-32587634D01*
X52865129Y-32610523D01*
X52799112Y-32701386D01*
X52743785Y-32744051D01*
X52698796Y-32752500D01*
X51214781Y-32752500D01*
X51147742Y-32732815D01*
X51114462Y-32701385D01*
X51112289Y-32698394D01*
X51112287Y-32698390D01*
X50991966Y-32532781D01*
X50847219Y-32388034D01*
X50847213Y-32388028D01*
X50681613Y-32267715D01*
X50681612Y-32267714D01*
X50681610Y-32267713D01*
X50610583Y-32231523D01*
X50499223Y-32174781D01*
X50304534Y-32111522D01*
X50129995Y-32083878D01*
X50102352Y-32079500D01*
X49897648Y-32079500D01*
X49873329Y-32083351D01*
X49695465Y-32111522D01*
X49500776Y-32174781D01*
X49318386Y-32267715D01*
X49152786Y-32388028D01*
X49008028Y-32532786D01*
X48887715Y-32698386D01*
X48794781Y-32880776D01*
X48731522Y-33075465D01*
X48699500Y-33277648D01*
X48699500Y-33482351D01*
X48731522Y-33684534D01*
X48794781Y-33879223D01*
X48827055Y-33942563D01*
X48884897Y-34056084D01*
X48887715Y-34061613D01*
X49008028Y-34227213D01*
X49152786Y-34371971D01*
X49307749Y-34484556D01*
X49318390Y-34492287D01*
X49406570Y-34537217D01*
X49500776Y-34585218D01*
X49500778Y-34585218D01*
X49500781Y-34585220D01*
X49584085Y-34612287D01*
X49695465Y-34648477D01*
X49757371Y-34658282D01*
X49897648Y-34680500D01*
X49897649Y-34680500D01*
X50102351Y-34680500D01*
X50102352Y-34680500D01*
X50304534Y-34648477D01*
X50499219Y-34585220D01*
X50681610Y-34492287D01*
X50791624Y-34412358D01*
X50847213Y-34371971D01*
X50847215Y-34371968D01*
X50847219Y-34371966D01*
X50991966Y-34227219D01*
X51112287Y-34061610D01*
X51112289Y-34061605D01*
X51114462Y-34058615D01*
X51169792Y-34015949D01*
X51214781Y-34007500D01*
X52560779Y-34007500D01*
X52627818Y-34027185D01*
X52671261Y-34075202D01*
X52729359Y-34189223D01*
X52752187Y-34234026D01*
X52881752Y-34412358D01*
X52881756Y-34412363D01*
X53037636Y-34568243D01*
X53037641Y-34568247D01*
X53161565Y-34658282D01*
X53215978Y-34697815D01*
X53317827Y-34749710D01*
X53412393Y-34797895D01*
X53412396Y-34797896D01*
X53480261Y-34819946D01*
X53622049Y-34866015D01*
X53839778Y-34900500D01*
X53839779Y-34900500D01*
X54060221Y-34900500D01*
X54060222Y-34900500D01*
X54277951Y-34866015D01*
X54487606Y-34797895D01*
X54684022Y-34697815D01*
X54862365Y-34568242D01*
X55018242Y-34412365D01*
X55147815Y-34234022D01*
X55247895Y-34037606D01*
X55316015Y-33827951D01*
X55350500Y-33610222D01*
X55350500Y-33389778D01*
X55316015Y-33172049D01*
X55266516Y-33019703D01*
X55247896Y-32962396D01*
X55247895Y-32962393D01*
X55186948Y-32842780D01*
X55147815Y-32765978D01*
X55065573Y-32652781D01*
X55018247Y-32587641D01*
X55018243Y-32587636D01*
X54862365Y-32431758D01*
X54849770Y-32422607D01*
X54750270Y-32350317D01*
X54707606Y-32294989D01*
X54701627Y-32225376D01*
X54734232Y-32163580D01*
X54750265Y-32149686D01*
X54862365Y-32068242D01*
X55018242Y-31912365D01*
X55147815Y-31734022D01*
X55247895Y-31537606D01*
X55316015Y-31327951D01*
X55350500Y-31110222D01*
X55350500Y-30889778D01*
X55316015Y-30672049D01*
X55257505Y-30491971D01*
X55247897Y-30462399D01*
X55247895Y-30462393D01*
X55202091Y-30372500D01*
X55147815Y-30265978D01*
X55086519Y-30181611D01*
X55018247Y-30087641D01*
X55018243Y-30087636D01*
X54862365Y-29931758D01*
X54862357Y-29931752D01*
X54750270Y-29850317D01*
X54707606Y-29794989D01*
X54701627Y-29725376D01*
X54734232Y-29663580D01*
X54750265Y-29649686D01*
X54862365Y-29568242D01*
X55018242Y-29412365D01*
X55028910Y-29397682D01*
X69450000Y-29397682D01*
X69450000Y-29602317D01*
X69482009Y-29804417D01*
X69545244Y-29999031D01*
X69638141Y-30181350D01*
X69638147Y-30181359D01*
X69670523Y-30225921D01*
X69670524Y-30225922D01*
X70350000Y-29546446D01*
X70350000Y-29552661D01*
X70377259Y-29654394D01*
X70429920Y-29745606D01*
X70504394Y-29820080D01*
X70595606Y-29872741D01*
X70697339Y-29900000D01*
X70703553Y-29900000D01*
X70024076Y-30579474D01*
X70068650Y-30611859D01*
X70250968Y-30704755D01*
X70445582Y-30767990D01*
X70647683Y-30800000D01*
X70852317Y-30800000D01*
X71054417Y-30767990D01*
X71249031Y-30704755D01*
X71431349Y-30611859D01*
X71475921Y-30579474D01*
X70796447Y-29900000D01*
X70802661Y-29900000D01*
X70904394Y-29872741D01*
X70995606Y-29820080D01*
X71070080Y-29745606D01*
X71122741Y-29654394D01*
X71150000Y-29552661D01*
X71150000Y-29546447D01*
X71829474Y-30225921D01*
X71861859Y-30181349D01*
X71889233Y-30127624D01*
X71937207Y-30076827D01*
X72005028Y-30060031D01*
X72071163Y-30082567D01*
X72110203Y-30127621D01*
X72137713Y-30181611D01*
X72258028Y-30347213D01*
X72402786Y-30491971D01*
X72510917Y-30570531D01*
X72568390Y-30612287D01*
X72684607Y-30671503D01*
X72750776Y-30705218D01*
X72750778Y-30705218D01*
X72750781Y-30705220D01*
X72855137Y-30739127D01*
X72945465Y-30768477D01*
X73046557Y-30784488D01*
X73147648Y-30800500D01*
X73147649Y-30800500D01*
X73352351Y-30800500D01*
X73352352Y-30800500D01*
X73554534Y-30768477D01*
X73749219Y-30705220D01*
X73931610Y-30612287D01*
X74068830Y-30512592D01*
X74097213Y-30491971D01*
X74097215Y-30491968D01*
X74097219Y-30491966D01*
X74241966Y-30347219D01*
X74241968Y-30347215D01*
X74241971Y-30347213D01*
X74294732Y-30274590D01*
X74362287Y-30181610D01*
X74455220Y-29999219D01*
X74518477Y-29804534D01*
X74550500Y-29602352D01*
X74550500Y-29397648D01*
X75449500Y-29397648D01*
X75449500Y-29602352D01*
X75451074Y-29612287D01*
X75481522Y-29804534D01*
X75544781Y-29999223D01*
X75589833Y-30087641D01*
X75637585Y-30181359D01*
X75637715Y-30181613D01*
X75758028Y-30347213D01*
X75902786Y-30491971D01*
X76010917Y-30570531D01*
X76068390Y-30612287D01*
X76184607Y-30671503D01*
X76250776Y-30705218D01*
X76250778Y-30705218D01*
X76250781Y-30705220D01*
X76355137Y-30739127D01*
X76445465Y-30768477D01*
X76546557Y-30784488D01*
X76647648Y-30800500D01*
X76647649Y-30800500D01*
X76852351Y-30800500D01*
X76852352Y-30800500D01*
X77054534Y-30768477D01*
X77249219Y-30705220D01*
X77431610Y-30612287D01*
X77568830Y-30512592D01*
X77597213Y-30491971D01*
X77597215Y-30491968D01*
X77597219Y-30491966D01*
X77741966Y-30347219D01*
X77741968Y-30347215D01*
X77741971Y-30347213D01*
X77794732Y-30274590D01*
X77862287Y-30181610D01*
X77889515Y-30128171D01*
X77937490Y-30077376D01*
X78005311Y-30060581D01*
X78071446Y-30083118D01*
X78110484Y-30128171D01*
X78137585Y-30181359D01*
X78137715Y-30181613D01*
X78258028Y-30347213D01*
X78402786Y-30491971D01*
X78510917Y-30570531D01*
X78568390Y-30612287D01*
X78684607Y-30671503D01*
X78750776Y-30705218D01*
X78750778Y-30705218D01*
X78750781Y-30705220D01*
X78855137Y-30739127D01*
X78945465Y-30768477D01*
X79046557Y-30784488D01*
X79147648Y-30800500D01*
X79147649Y-30800500D01*
X79352351Y-30800500D01*
X79352352Y-30800500D01*
X79554534Y-30768477D01*
X79749219Y-30705220D01*
X79931610Y-30612287D01*
X80068830Y-30512592D01*
X80097213Y-30491971D01*
X80097215Y-30491968D01*
X80097219Y-30491966D01*
X80241966Y-30347219D01*
X80241968Y-30347215D01*
X80241971Y-30347213D01*
X80294732Y-30274590D01*
X80362287Y-30181610D01*
X80455220Y-29999219D01*
X80518477Y-29804534D01*
X80550500Y-29602352D01*
X80550500Y-29397648D01*
X80529734Y-29266539D01*
X80518477Y-29195465D01*
X80467184Y-29037603D01*
X80455220Y-29000781D01*
X80455218Y-29000778D01*
X80455218Y-29000776D01*
X80389980Y-28872741D01*
X80362287Y-28818390D01*
X80330092Y-28774077D01*
X80241971Y-28652786D01*
X80097219Y-28508034D01*
X80076712Y-28493135D01*
X80076710Y-28493132D01*
X79945332Y-28397682D01*
X82390000Y-28397682D01*
X82390000Y-28602317D01*
X82422009Y-28804417D01*
X82485244Y-28999031D01*
X82578141Y-29181350D01*
X82578147Y-29181359D01*
X82610523Y-29225921D01*
X82610524Y-29225922D01*
X83290000Y-28546446D01*
X83290000Y-28552661D01*
X83317259Y-28654394D01*
X83369920Y-28745606D01*
X83444394Y-28820080D01*
X83535606Y-28872741D01*
X83637339Y-28900000D01*
X83643553Y-28900000D01*
X82964076Y-29579474D01*
X83008650Y-29611859D01*
X83190968Y-29704755D01*
X83385582Y-29767990D01*
X83587683Y-29800000D01*
X83792317Y-29800000D01*
X83994417Y-29767990D01*
X84189031Y-29704755D01*
X84371349Y-29611859D01*
X84415921Y-29579474D01*
X83736447Y-28900000D01*
X83742661Y-28900000D01*
X83844394Y-28872741D01*
X83935606Y-28820080D01*
X84010080Y-28745606D01*
X84062741Y-28654394D01*
X84090000Y-28552661D01*
X84090000Y-28546447D01*
X84769474Y-29225921D01*
X84801859Y-29181349D01*
X84894755Y-28999031D01*
X84957990Y-28804417D01*
X84990000Y-28602317D01*
X84990000Y-28397682D01*
X84989995Y-28397648D01*
X90009500Y-28397648D01*
X90009500Y-28602351D01*
X90041522Y-28804534D01*
X90104781Y-28999223D01*
X90156140Y-29100018D01*
X90197712Y-29181609D01*
X90197715Y-29181613D01*
X90318028Y-29347213D01*
X90462786Y-29491971D01*
X90617749Y-29604556D01*
X90628390Y-29612287D01*
X90701780Y-29649681D01*
X90810776Y-29705218D01*
X90810778Y-29705218D01*
X90810781Y-29705220D01*
X90872815Y-29725376D01*
X91005465Y-29768477D01*
X91044282Y-29774625D01*
X91207648Y-29800500D01*
X91207649Y-29800500D01*
X91412351Y-29800500D01*
X91412352Y-29800500D01*
X91614534Y-29768477D01*
X91809219Y-29705220D01*
X91991610Y-29612287D01*
X92084590Y-29544732D01*
X92157213Y-29491971D01*
X92157215Y-29491968D01*
X92157219Y-29491966D01*
X92251537Y-29397648D01*
X94949500Y-29397648D01*
X94949500Y-29602352D01*
X94951074Y-29612287D01*
X94981522Y-29804534D01*
X95044781Y-29999223D01*
X95089833Y-30087641D01*
X95137585Y-30181359D01*
X95137715Y-30181613D01*
X95258028Y-30347213D01*
X95402786Y-30491971D01*
X95510917Y-30570531D01*
X95568390Y-30612287D01*
X95684607Y-30671503D01*
X95750776Y-30705218D01*
X95750778Y-30705218D01*
X95750781Y-30705220D01*
X95855137Y-30739127D01*
X95945465Y-30768477D01*
X96046557Y-30784488D01*
X96147648Y-30800500D01*
X96147649Y-30800500D01*
X96352351Y-30800500D01*
X96352352Y-30800500D01*
X96554534Y-30768477D01*
X96749219Y-30705220D01*
X96931610Y-30612287D01*
X97068830Y-30512592D01*
X97097213Y-30491971D01*
X97097215Y-30491968D01*
X97097219Y-30491966D01*
X97241966Y-30347219D01*
X97241968Y-30347215D01*
X97241971Y-30347213D01*
X97294732Y-30274590D01*
X97362287Y-30181610D01*
X97389515Y-30128171D01*
X97437490Y-30077376D01*
X97505311Y-30060581D01*
X97571446Y-30083118D01*
X97610484Y-30128171D01*
X97637585Y-30181359D01*
X97637715Y-30181613D01*
X97758028Y-30347213D01*
X97902786Y-30491971D01*
X98010917Y-30570531D01*
X98068390Y-30612287D01*
X98184607Y-30671503D01*
X98250776Y-30705218D01*
X98250778Y-30705218D01*
X98250781Y-30705220D01*
X98355137Y-30739127D01*
X98445465Y-30768477D01*
X98546557Y-30784488D01*
X98647648Y-30800500D01*
X98647649Y-30800500D01*
X98852351Y-30800500D01*
X98852352Y-30800500D01*
X99054534Y-30768477D01*
X99249219Y-30705220D01*
X99431610Y-30612287D01*
X99568830Y-30512592D01*
X99597213Y-30491971D01*
X99597215Y-30491968D01*
X99597219Y-30491966D01*
X99741966Y-30347219D01*
X99741968Y-30347215D01*
X99741971Y-30347213D01*
X99794732Y-30274590D01*
X99862287Y-30181610D01*
X99955220Y-29999219D01*
X100018477Y-29804534D01*
X100050500Y-29602352D01*
X100050500Y-29397648D01*
X100029734Y-29266539D01*
X100018477Y-29195465D01*
X99967184Y-29037603D01*
X99955220Y-29000781D01*
X99955218Y-29000778D01*
X99955218Y-29000776D01*
X99889980Y-28872741D01*
X99862287Y-28818390D01*
X99830092Y-28774077D01*
X99741971Y-28652786D01*
X99597213Y-28508028D01*
X99431613Y-28387715D01*
X99431612Y-28387714D01*
X99431610Y-28387713D01*
X99370522Y-28356587D01*
X99249223Y-28294781D01*
X99054534Y-28231522D01*
X98879995Y-28203878D01*
X98852352Y-28199500D01*
X98647648Y-28199500D01*
X98623329Y-28203351D01*
X98445465Y-28231522D01*
X98250776Y-28294781D01*
X98068386Y-28387715D01*
X97902786Y-28508028D01*
X97758028Y-28652786D01*
X97637713Y-28818388D01*
X97610484Y-28871828D01*
X97562510Y-28922623D01*
X97494688Y-28939418D01*
X97428554Y-28916880D01*
X97389516Y-28871828D01*
X97362286Y-28818388D01*
X97241971Y-28652786D01*
X97097213Y-28508028D01*
X96931613Y-28387715D01*
X96931612Y-28387714D01*
X96931610Y-28387713D01*
X96870522Y-28356587D01*
X96749223Y-28294781D01*
X96554534Y-28231522D01*
X96379995Y-28203878D01*
X96352352Y-28199500D01*
X96147648Y-28199500D01*
X96123329Y-28203351D01*
X95945465Y-28231522D01*
X95750776Y-28294781D01*
X95568386Y-28387715D01*
X95402786Y-28508028D01*
X95258028Y-28652786D01*
X95137715Y-28818386D01*
X95044781Y-29000776D01*
X94981522Y-29195465D01*
X94953984Y-29369336D01*
X94949500Y-29397648D01*
X92251537Y-29397648D01*
X92301966Y-29347219D01*
X92422287Y-29181610D01*
X92515220Y-28999219D01*
X92578477Y-28804534D01*
X92610500Y-28602352D01*
X92610500Y-28397648D01*
X92609363Y-28390470D01*
X92578477Y-28195465D01*
X92547458Y-28100000D01*
X92515220Y-28000781D01*
X92515218Y-28000778D01*
X92515218Y-28000776D01*
X92463865Y-27899991D01*
X92422287Y-27818390D01*
X92390092Y-27774077D01*
X92301971Y-27652786D01*
X92157213Y-27508028D01*
X91991613Y-27387715D01*
X91991612Y-27387714D01*
X91991610Y-27387713D01*
X91915182Y-27348771D01*
X91809223Y-27294781D01*
X91614534Y-27231522D01*
X91428799Y-27202105D01*
X91412352Y-27199500D01*
X91207648Y-27199500D01*
X91191201Y-27202105D01*
X91005465Y-27231522D01*
X90810776Y-27294781D01*
X90628386Y-27387715D01*
X90462786Y-27508028D01*
X90318028Y-27652786D01*
X90197715Y-27818386D01*
X90104781Y-28000776D01*
X90041522Y-28195465D01*
X90009500Y-28397648D01*
X84989995Y-28397648D01*
X84957990Y-28195582D01*
X84894755Y-28000968D01*
X84801859Y-27818650D01*
X84769474Y-27774077D01*
X84769474Y-27774076D01*
X84090000Y-28453551D01*
X84090000Y-28447339D01*
X84062741Y-28345606D01*
X84010080Y-28254394D01*
X83935606Y-28179920D01*
X83844394Y-28127259D01*
X83742661Y-28100000D01*
X83736446Y-28100000D01*
X84415922Y-27420524D01*
X84415921Y-27420523D01*
X84371359Y-27388147D01*
X84371350Y-27388141D01*
X84189031Y-27295244D01*
X83994417Y-27232009D01*
X83792317Y-27200000D01*
X83587683Y-27200000D01*
X83385582Y-27232009D01*
X83190968Y-27295244D01*
X83008644Y-27388143D01*
X82964077Y-27420523D01*
X82964077Y-27420524D01*
X83643554Y-28100000D01*
X83637339Y-28100000D01*
X83535606Y-28127259D01*
X83444394Y-28179920D01*
X83369920Y-28254394D01*
X83317259Y-28345606D01*
X83290000Y-28447339D01*
X83290000Y-28453553D01*
X82610524Y-27774077D01*
X82610523Y-27774077D01*
X82578143Y-27818644D01*
X82485244Y-28000968D01*
X82422009Y-28195582D01*
X82390000Y-28397682D01*
X79945332Y-28397682D01*
X79931613Y-28387715D01*
X79931612Y-28387714D01*
X79931610Y-28387713D01*
X79870522Y-28356587D01*
X79749223Y-28294781D01*
X79554534Y-28231522D01*
X79379995Y-28203878D01*
X79352352Y-28199500D01*
X79147648Y-28199500D01*
X79123329Y-28203351D01*
X78945465Y-28231522D01*
X78750776Y-28294781D01*
X78568386Y-28387715D01*
X78402786Y-28508028D01*
X78258028Y-28652786D01*
X78137713Y-28818388D01*
X78110484Y-28871828D01*
X78062510Y-28922623D01*
X77994688Y-28939418D01*
X77928554Y-28916880D01*
X77889516Y-28871828D01*
X77862286Y-28818388D01*
X77741971Y-28652786D01*
X77597213Y-28508028D01*
X77431613Y-28387715D01*
X77431612Y-28387714D01*
X77431610Y-28387713D01*
X77370522Y-28356587D01*
X77249223Y-28294781D01*
X77054534Y-28231522D01*
X76879995Y-28203878D01*
X76852352Y-28199500D01*
X76647648Y-28199500D01*
X76623329Y-28203351D01*
X76445465Y-28231522D01*
X76250776Y-28294781D01*
X76068386Y-28387715D01*
X75902786Y-28508028D01*
X75758028Y-28652786D01*
X75637715Y-28818386D01*
X75544781Y-29000776D01*
X75481522Y-29195465D01*
X75453984Y-29369336D01*
X75449500Y-29397648D01*
X74550500Y-29397648D01*
X74529734Y-29266539D01*
X74518477Y-29195465D01*
X74467184Y-29037603D01*
X74455220Y-29000781D01*
X74455218Y-29000778D01*
X74455218Y-29000776D01*
X74389980Y-28872741D01*
X74362287Y-28818390D01*
X74330092Y-28774077D01*
X74241971Y-28652786D01*
X74097213Y-28508028D01*
X73931613Y-28387715D01*
X73931612Y-28387714D01*
X73931610Y-28387713D01*
X73870522Y-28356587D01*
X73749223Y-28294781D01*
X73554534Y-28231522D01*
X73379995Y-28203878D01*
X73352352Y-28199500D01*
X73147648Y-28199500D01*
X73123329Y-28203351D01*
X72945465Y-28231522D01*
X72750776Y-28294781D01*
X72568386Y-28387715D01*
X72402786Y-28508028D01*
X72258028Y-28652786D01*
X72137714Y-28818386D01*
X72110203Y-28872379D01*
X72062227Y-28923174D01*
X71994406Y-28939968D01*
X71928272Y-28917429D01*
X71889234Y-28872376D01*
X71861861Y-28818652D01*
X71829474Y-28774077D01*
X71829474Y-28774076D01*
X71150000Y-29453551D01*
X71150000Y-29447339D01*
X71122741Y-29345606D01*
X71070080Y-29254394D01*
X70995606Y-29179920D01*
X70904394Y-29127259D01*
X70802661Y-29100000D01*
X70796446Y-29100000D01*
X71475922Y-28420524D01*
X71475921Y-28420523D01*
X71431359Y-28388147D01*
X71431350Y-28388141D01*
X71249031Y-28295244D01*
X71054417Y-28232009D01*
X70852317Y-28200000D01*
X70647683Y-28200000D01*
X70445582Y-28232009D01*
X70250968Y-28295244D01*
X70068644Y-28388143D01*
X70024077Y-28420523D01*
X70024077Y-28420524D01*
X70703554Y-29100000D01*
X70697339Y-29100000D01*
X70595606Y-29127259D01*
X70504394Y-29179920D01*
X70429920Y-29254394D01*
X70377259Y-29345606D01*
X70350000Y-29447339D01*
X70350000Y-29453553D01*
X69670524Y-28774077D01*
X69670523Y-28774077D01*
X69638143Y-28818644D01*
X69545244Y-29000968D01*
X69482009Y-29195582D01*
X69450000Y-29397682D01*
X55028910Y-29397682D01*
X55147815Y-29234022D01*
X55247895Y-29037606D01*
X55316015Y-28827951D01*
X55350500Y-28610222D01*
X55350500Y-28389778D01*
X55316015Y-28172049D01*
X55247895Y-27962394D01*
X55247895Y-27962393D01*
X55213237Y-27894375D01*
X55147815Y-27765978D01*
X55052702Y-27635065D01*
X55018247Y-27587641D01*
X55018243Y-27587636D01*
X54862363Y-27431756D01*
X54862358Y-27431752D01*
X54684025Y-27302187D01*
X54684024Y-27302186D01*
X54684022Y-27302185D01*
X54611406Y-27265185D01*
X54487606Y-27202104D01*
X54487603Y-27202103D01*
X54277952Y-27133985D01*
X54169086Y-27116742D01*
X54060222Y-27099500D01*
X53839778Y-27099500D01*
X53767201Y-27110995D01*
X53622047Y-27133985D01*
X53412396Y-27202103D01*
X53412393Y-27202104D01*
X53215974Y-27302187D01*
X53037641Y-27431752D01*
X53037636Y-27431756D01*
X52881756Y-27587636D01*
X52881752Y-27587641D01*
X52752187Y-27765974D01*
X52652104Y-27962393D01*
X52652103Y-27962396D01*
X52583985Y-28172047D01*
X52579637Y-28199500D01*
X52549500Y-28389778D01*
X52549500Y-28610222D01*
X52556496Y-28654394D01*
X52583985Y-28827952D01*
X52652103Y-29037603D01*
X52652104Y-29037606D01*
X52697786Y-29127259D01*
X52748057Y-29225921D01*
X52752187Y-29234025D01*
X52881752Y-29412358D01*
X52881756Y-29412363D01*
X53037636Y-29568243D01*
X53037641Y-29568247D01*
X53149727Y-29649682D01*
X53192393Y-29705011D01*
X53198372Y-29774625D01*
X53165767Y-29836420D01*
X53149727Y-29850318D01*
X53037641Y-29931752D01*
X53037636Y-29931756D01*
X52881756Y-30087636D01*
X52881752Y-30087641D01*
X52752187Y-30265973D01*
X52732407Y-30304795D01*
X52684433Y-30355591D01*
X52621922Y-30372500D01*
X47628194Y-30372500D01*
X47506970Y-30396613D01*
X47506960Y-30396616D01*
X47392773Y-30443913D01*
X47392760Y-30443920D01*
X47289991Y-30512589D01*
X47289987Y-30512592D01*
X45415269Y-32387310D01*
X45410467Y-32389931D01*
X45407443Y-32394493D01*
X45380125Y-32406499D01*
X45353946Y-32420795D01*
X45347160Y-32420988D01*
X45343479Y-32422607D01*
X45308189Y-32422102D01*
X45304527Y-32421522D01*
X45298220Y-32420523D01*
X45252563Y-32413291D01*
X45189428Y-32383361D01*
X45152498Y-32324049D01*
X45153496Y-32254186D01*
X45184279Y-32203139D01*
X47584730Y-29802687D01*
X47646051Y-29769204D01*
X47691807Y-29767897D01*
X47695463Y-29768476D01*
X47695466Y-29768477D01*
X47897648Y-29800500D01*
X47897649Y-29800500D01*
X48102351Y-29800500D01*
X48102352Y-29800500D01*
X48304534Y-29768477D01*
X48499219Y-29705220D01*
X48681610Y-29612287D01*
X48774590Y-29544732D01*
X48847213Y-29491971D01*
X48847215Y-29491968D01*
X48847219Y-29491966D01*
X48991966Y-29347219D01*
X48991968Y-29347215D01*
X48991971Y-29347213D01*
X49059407Y-29254394D01*
X49112287Y-29181610D01*
X49139515Y-29128171D01*
X49187490Y-29077376D01*
X49255311Y-29060581D01*
X49321446Y-29083118D01*
X49360484Y-29128171D01*
X49387712Y-29181609D01*
X49387715Y-29181613D01*
X49508028Y-29347213D01*
X49652786Y-29491971D01*
X49807749Y-29604556D01*
X49818390Y-29612287D01*
X49891780Y-29649681D01*
X50000776Y-29705218D01*
X50000778Y-29705218D01*
X50000781Y-29705220D01*
X50062815Y-29725376D01*
X50195465Y-29768477D01*
X50234282Y-29774625D01*
X50397648Y-29800500D01*
X50397649Y-29800500D01*
X50602351Y-29800500D01*
X50602352Y-29800500D01*
X50804534Y-29768477D01*
X50999219Y-29705220D01*
X51181610Y-29612287D01*
X51274590Y-29544732D01*
X51347213Y-29491971D01*
X51347215Y-29491968D01*
X51347219Y-29491966D01*
X51491966Y-29347219D01*
X51491968Y-29347215D01*
X51491971Y-29347213D01*
X51559407Y-29254394D01*
X51612287Y-29181610D01*
X51705220Y-28999219D01*
X51768477Y-28804534D01*
X51800500Y-28602352D01*
X51800500Y-28397648D01*
X51799363Y-28390470D01*
X51768477Y-28195465D01*
X51737458Y-28100000D01*
X51705220Y-28000781D01*
X51705218Y-28000778D01*
X51705218Y-28000776D01*
X51653865Y-27899991D01*
X51612287Y-27818390D01*
X51580092Y-27774077D01*
X51491971Y-27652786D01*
X51347213Y-27508028D01*
X51181613Y-27387715D01*
X51181612Y-27387714D01*
X51181610Y-27387713D01*
X51105182Y-27348771D01*
X50999223Y-27294781D01*
X50804534Y-27231522D01*
X50618799Y-27202105D01*
X50602352Y-27199500D01*
X50397648Y-27199500D01*
X50381201Y-27202105D01*
X50195465Y-27231522D01*
X50000776Y-27294781D01*
X49818386Y-27387715D01*
X49652786Y-27508028D01*
X49508028Y-27652786D01*
X49387713Y-27818388D01*
X49360484Y-27871828D01*
X49312510Y-27922623D01*
X49244688Y-27939418D01*
X49178554Y-27916880D01*
X49139516Y-27871828D01*
X49112286Y-27818388D01*
X48991971Y-27652786D01*
X48847213Y-27508028D01*
X48681613Y-27387715D01*
X48681612Y-27387714D01*
X48681610Y-27387713D01*
X48605182Y-27348771D01*
X48499223Y-27294781D01*
X48304534Y-27231522D01*
X48118799Y-27202105D01*
X48102352Y-27199500D01*
X47897648Y-27199500D01*
X47881201Y-27202105D01*
X47695465Y-27231522D01*
X47500776Y-27294781D01*
X47318386Y-27387715D01*
X47152786Y-27508028D01*
X47008028Y-27652786D01*
X46887715Y-27818386D01*
X46794781Y-28000776D01*
X46731522Y-28195465D01*
X46700637Y-28390470D01*
X46699500Y-28397648D01*
X46699500Y-28602352D01*
X46702024Y-28618285D01*
X46732102Y-28808190D01*
X46723147Y-28877483D01*
X46697310Y-28915269D01*
X42776400Y-32836181D01*
X42715077Y-32869666D01*
X42688719Y-32872500D01*
X41214781Y-32872500D01*
X41147742Y-32852815D01*
X41114462Y-32821385D01*
X41112289Y-32818394D01*
X41112287Y-32818390D01*
X40991966Y-32652781D01*
X40847219Y-32508034D01*
X40847213Y-32508028D01*
X40681613Y-32387715D01*
X40681612Y-32387714D01*
X40681610Y-32387713D01*
X40624653Y-32358691D01*
X40499223Y-32294781D01*
X40304534Y-32231522D01*
X40125315Y-32203137D01*
X40102352Y-32199500D01*
X39897648Y-32199500D01*
X39874685Y-32203137D01*
X39695465Y-32231522D01*
X39500776Y-32294781D01*
X39318386Y-32387715D01*
X39152786Y-32508028D01*
X39008028Y-32652786D01*
X38887715Y-32818386D01*
X38840485Y-32911080D01*
X38792510Y-32961876D01*
X38724689Y-32978671D01*
X38658554Y-32956134D01*
X38619515Y-32911080D01*
X38584717Y-32842786D01*
X38572287Y-32818390D01*
X38540092Y-32774077D01*
X38451971Y-32652786D01*
X38307213Y-32508028D01*
X38141613Y-32387715D01*
X38141612Y-32387714D01*
X38141610Y-32387713D01*
X38084653Y-32358691D01*
X37959223Y-32294781D01*
X37764534Y-32231522D01*
X37585315Y-32203137D01*
X37562352Y-32199500D01*
X37357648Y-32199500D01*
X37334685Y-32203137D01*
X37155465Y-32231522D01*
X36960776Y-32294781D01*
X36778386Y-32387715D01*
X36612786Y-32508028D01*
X36468028Y-32652786D01*
X36347715Y-32818386D01*
X36300485Y-32911080D01*
X36252510Y-32961876D01*
X36184689Y-32978671D01*
X36118554Y-32956134D01*
X36079515Y-32911080D01*
X36044717Y-32842786D01*
X36032287Y-32818390D01*
X36000092Y-32774077D01*
X35911971Y-32652786D01*
X35767213Y-32508028D01*
X35601613Y-32387715D01*
X35601612Y-32387714D01*
X35601610Y-32387713D01*
X35544653Y-32358691D01*
X35419223Y-32294781D01*
X35224534Y-32231522D01*
X35045315Y-32203137D01*
X35022352Y-32199500D01*
X34817648Y-32199500D01*
X34794685Y-32203137D01*
X34615465Y-32231522D01*
X34420776Y-32294781D01*
X34238386Y-32387715D01*
X34072786Y-32508028D01*
X33928028Y-32652786D01*
X33807713Y-32818388D01*
X33760203Y-32911630D01*
X33712228Y-32962426D01*
X33644407Y-32979220D01*
X33578272Y-32956682D01*
X33539234Y-32911628D01*
X33491861Y-32818652D01*
X33459474Y-32774077D01*
X33459474Y-32774076D01*
X32780000Y-33453551D01*
X32780000Y-33447339D01*
X32752741Y-33345606D01*
X32700080Y-33254394D01*
X32625606Y-33179920D01*
X32534394Y-33127259D01*
X32432661Y-33100000D01*
X32426446Y-33100000D01*
X33105922Y-32420524D01*
X33105921Y-32420523D01*
X33061359Y-32388147D01*
X33061350Y-32388141D01*
X32879031Y-32295244D01*
X32684417Y-32232009D01*
X32482317Y-32200000D01*
X32277683Y-32200000D01*
X32075582Y-32232009D01*
X31880968Y-32295244D01*
X31698644Y-32388143D01*
X31654077Y-32420523D01*
X31654077Y-32420524D01*
X32333554Y-33100000D01*
X32327339Y-33100000D01*
X32225606Y-33127259D01*
X32134394Y-33179920D01*
X32059920Y-33254394D01*
X32007259Y-33345606D01*
X31980000Y-33447339D01*
X31980000Y-33453553D01*
X31300524Y-32774077D01*
X31300523Y-32774077D01*
X31268143Y-32818644D01*
X31175244Y-33000968D01*
X31112009Y-33195582D01*
X31080000Y-33397682D01*
X26700500Y-33397682D01*
X26700500Y-26881995D01*
X28199500Y-26881995D01*
X28199500Y-27118004D01*
X28199501Y-27118020D01*
X28229881Y-27348783D01*
X28230307Y-27352014D01*
X28252728Y-27435689D01*
X28291394Y-27579993D01*
X28381714Y-27798045D01*
X28381719Y-27798056D01*
X28440572Y-27899991D01*
X28499727Y-28002450D01*
X28499729Y-28002453D01*
X28499730Y-28002454D01*
X28643406Y-28189697D01*
X28643412Y-28189704D01*
X28810295Y-28356587D01*
X28810302Y-28356593D01*
X28869870Y-28402301D01*
X28997550Y-28500273D01*
X29088289Y-28552661D01*
X29201943Y-28618280D01*
X29201948Y-28618282D01*
X29201951Y-28618284D01*
X29420007Y-28708606D01*
X29647986Y-28769693D01*
X29881989Y-28800500D01*
X29881996Y-28800500D01*
X30118004Y-28800500D01*
X30118011Y-28800500D01*
X30352014Y-28769693D01*
X30579993Y-28708606D01*
X30798049Y-28618284D01*
X31002450Y-28500273D01*
X31136149Y-28397682D01*
X33950000Y-28397682D01*
X33950000Y-28602317D01*
X33982009Y-28804417D01*
X34045244Y-28999031D01*
X34138141Y-29181350D01*
X34138147Y-29181359D01*
X34170523Y-29225921D01*
X34170524Y-29225922D01*
X34850000Y-28546446D01*
X34850000Y-28552661D01*
X34877259Y-28654394D01*
X34929920Y-28745606D01*
X35004394Y-28820080D01*
X35095606Y-28872741D01*
X35197339Y-28900000D01*
X35203553Y-28900000D01*
X34524076Y-29579474D01*
X34568650Y-29611859D01*
X34750968Y-29704755D01*
X34945582Y-29767990D01*
X35147683Y-29800000D01*
X35352317Y-29800000D01*
X35554417Y-29767990D01*
X35749031Y-29704755D01*
X35931349Y-29611859D01*
X35975921Y-29579474D01*
X35296447Y-28900000D01*
X35302661Y-28900000D01*
X35404394Y-28872741D01*
X35495606Y-28820080D01*
X35570080Y-28745606D01*
X35622741Y-28654394D01*
X35650000Y-28552661D01*
X35650000Y-28546447D01*
X36329474Y-29225921D01*
X36361859Y-29181349D01*
X36389233Y-29127624D01*
X36437207Y-29076827D01*
X36505028Y-29060031D01*
X36571163Y-29082567D01*
X36610203Y-29127621D01*
X36637713Y-29181611D01*
X36758028Y-29347213D01*
X36902786Y-29491971D01*
X37057749Y-29604556D01*
X37068390Y-29612287D01*
X37141780Y-29649681D01*
X37250776Y-29705218D01*
X37250778Y-29705218D01*
X37250781Y-29705220D01*
X37312815Y-29725376D01*
X37445465Y-29768477D01*
X37484282Y-29774625D01*
X37647648Y-29800500D01*
X37647649Y-29800500D01*
X37852351Y-29800500D01*
X37852352Y-29800500D01*
X38054534Y-29768477D01*
X38249219Y-29705220D01*
X38431610Y-29612287D01*
X38524590Y-29544732D01*
X38597213Y-29491971D01*
X38597215Y-29491968D01*
X38597219Y-29491966D01*
X38741966Y-29347219D01*
X38741968Y-29347215D01*
X38741971Y-29347213D01*
X38809407Y-29254394D01*
X38862287Y-29181610D01*
X38955220Y-28999219D01*
X39018477Y-28804534D01*
X39050500Y-28602352D01*
X39050500Y-28397648D01*
X39049363Y-28390470D01*
X39018477Y-28195465D01*
X38987458Y-28100000D01*
X38955220Y-28000781D01*
X38955218Y-28000778D01*
X38955218Y-28000776D01*
X38930940Y-27953129D01*
X38903861Y-27899983D01*
X40494388Y-27899983D01*
X40494388Y-29100001D01*
X40494389Y-29100018D01*
X40504888Y-29202796D01*
X40504889Y-29202799D01*
X40543690Y-29319891D01*
X40560074Y-29369334D01*
X40652176Y-29518656D01*
X40776232Y-29642712D01*
X40925554Y-29734814D01*
X41092091Y-29789999D01*
X41194879Y-29800500D01*
X42394896Y-29800499D01*
X42497685Y-29789999D01*
X42664222Y-29734814D01*
X42813544Y-29642712D01*
X42882412Y-29573843D01*
X42943731Y-29540361D01*
X43013423Y-29545345D01*
X43042970Y-29561206D01*
X43113278Y-29612287D01*
X43186668Y-29649681D01*
X43295664Y-29705218D01*
X43295666Y-29705218D01*
X43295669Y-29705220D01*
X43357703Y-29725376D01*
X43490353Y-29768477D01*
X43529170Y-29774625D01*
X43692536Y-29800500D01*
X43692537Y-29800500D01*
X43897239Y-29800500D01*
X43897240Y-29800500D01*
X44099422Y-29768477D01*
X44294107Y-29705220D01*
X44476498Y-29612287D01*
X44569478Y-29544732D01*
X44642101Y-29491971D01*
X44642103Y-29491968D01*
X44642107Y-29491966D01*
X44786854Y-29347219D01*
X44786856Y-29347215D01*
X44786859Y-29347213D01*
X44854295Y-29254394D01*
X44907175Y-29181610D01*
X45000108Y-28999219D01*
X45063365Y-28804534D01*
X45095388Y-28602352D01*
X45095388Y-28397648D01*
X45094251Y-28390470D01*
X45063365Y-28195465D01*
X45032346Y-28100000D01*
X45000108Y-28000781D01*
X45000106Y-28000778D01*
X45000106Y-28000776D01*
X44948753Y-27899991D01*
X44907175Y-27818390D01*
X44874980Y-27774077D01*
X44786859Y-27652786D01*
X44642101Y-27508028D01*
X44476501Y-27387715D01*
X44476500Y-27387714D01*
X44476498Y-27387713D01*
X44400070Y-27348771D01*
X44294111Y-27294781D01*
X44099422Y-27231522D01*
X43913687Y-27202105D01*
X43897240Y-27199500D01*
X43692536Y-27199500D01*
X43676089Y-27202105D01*
X43490353Y-27231522D01*
X43295664Y-27294781D01*
X43113279Y-27387712D01*
X43113271Y-27387717D01*
X43042973Y-27438790D01*
X42977167Y-27462269D01*
X42909113Y-27446442D01*
X42882409Y-27426153D01*
X42876779Y-27420523D01*
X42813544Y-27357288D01*
X42712954Y-27295244D01*
X42664224Y-27265187D01*
X42664219Y-27265185D01*
X42662750Y-27264698D01*
X42497685Y-27210001D01*
X42497683Y-27210000D01*
X42394898Y-27199500D01*
X41194886Y-27199500D01*
X41194869Y-27199501D01*
X41092091Y-27210000D01*
X41092088Y-27210001D01*
X40925556Y-27265185D01*
X40925551Y-27265187D01*
X40776230Y-27357289D01*
X40652177Y-27481342D01*
X40560075Y-27630663D01*
X40560074Y-27630666D01*
X40504889Y-27797203D01*
X40504889Y-27797204D01*
X40504888Y-27797204D01*
X40494388Y-27899983D01*
X38903861Y-27899983D01*
X38862284Y-27818385D01*
X38741971Y-27652786D01*
X38597213Y-27508028D01*
X38431613Y-27387715D01*
X38431612Y-27387714D01*
X38431610Y-27387713D01*
X38355182Y-27348771D01*
X38249223Y-27294781D01*
X38054534Y-27231522D01*
X37868799Y-27202105D01*
X37852352Y-27199500D01*
X37647648Y-27199500D01*
X37631201Y-27202105D01*
X37445465Y-27231522D01*
X37250776Y-27294781D01*
X37068386Y-27387715D01*
X36902786Y-27508028D01*
X36758028Y-27652786D01*
X36637714Y-27818386D01*
X36610203Y-27872379D01*
X36562227Y-27923174D01*
X36494406Y-27939968D01*
X36428272Y-27917429D01*
X36389234Y-27872376D01*
X36361861Y-27818652D01*
X36329474Y-27774077D01*
X36329474Y-27774076D01*
X35650000Y-28453551D01*
X35650000Y-28447339D01*
X35622741Y-28345606D01*
X35570080Y-28254394D01*
X35495606Y-28179920D01*
X35404394Y-28127259D01*
X35302661Y-28100000D01*
X35296446Y-28100000D01*
X35975922Y-27420524D01*
X35975921Y-27420523D01*
X35931359Y-27388147D01*
X35931350Y-27388141D01*
X35749031Y-27295244D01*
X35554417Y-27232009D01*
X35352317Y-27200000D01*
X35147683Y-27200000D01*
X34945582Y-27232009D01*
X34750968Y-27295244D01*
X34568644Y-27388143D01*
X34524077Y-27420523D01*
X34524077Y-27420524D01*
X35203554Y-28100000D01*
X35197339Y-28100000D01*
X35095606Y-28127259D01*
X35004394Y-28179920D01*
X34929920Y-28254394D01*
X34877259Y-28345606D01*
X34850000Y-28447339D01*
X34850000Y-28453553D01*
X34170524Y-27774077D01*
X34170523Y-27774077D01*
X34138143Y-27818644D01*
X34045244Y-28000968D01*
X33982009Y-28195582D01*
X33950000Y-28397682D01*
X31136149Y-28397682D01*
X31189699Y-28356592D01*
X31200685Y-28345606D01*
X31241157Y-28305135D01*
X31356587Y-28189704D01*
X31356592Y-28189699D01*
X31500273Y-28002450D01*
X31618284Y-27798049D01*
X31708606Y-27579993D01*
X31769693Y-27352014D01*
X31800500Y-27118011D01*
X31800500Y-26881989D01*
X31769693Y-26647986D01*
X31708606Y-26420007D01*
X31618284Y-26201951D01*
X31618282Y-26201948D01*
X31618280Y-26201943D01*
X31576118Y-26128918D01*
X31500273Y-25997550D01*
X31356592Y-25810301D01*
X31356587Y-25810295D01*
X31189704Y-25643412D01*
X31189697Y-25643406D01*
X31002454Y-25499730D01*
X31002453Y-25499729D01*
X31002450Y-25499727D01*
X30920957Y-25452677D01*
X30798056Y-25381719D01*
X30798045Y-25381714D01*
X30579993Y-25291394D01*
X30352010Y-25230306D01*
X30118020Y-25199501D01*
X30118017Y-25199500D01*
X30118011Y-25199500D01*
X29881989Y-25199500D01*
X29881983Y-25199500D01*
X29881979Y-25199501D01*
X29647989Y-25230306D01*
X29420006Y-25291394D01*
X29201954Y-25381714D01*
X29201943Y-25381719D01*
X28997545Y-25499730D01*
X28810302Y-25643406D01*
X28810295Y-25643412D01*
X28643412Y-25810295D01*
X28643406Y-25810302D01*
X28499730Y-25997545D01*
X28381719Y-26201943D01*
X28381714Y-26201954D01*
X28291394Y-26420006D01*
X28230306Y-26647989D01*
X28199501Y-26881979D01*
X28199500Y-26881995D01*
X26700500Y-26881995D01*
X26700500Y-23824500D01*
X26720185Y-23757461D01*
X26772989Y-23711706D01*
X26824500Y-23700500D01*
X60417072Y-23700500D01*
X60484111Y-23720185D01*
G37*
%TD.AperFunction*%
%TD*%
M02*
