M48
; DRILL file KiCad 10.0.3-10.0.3~ubuntu26.04.1 date 2026-06-21T13:42:23
; FORMAT={-:-/ absolute / metric / decimal}
; #@! TF.CreationDate,2026-06-21T13:42:23-07:00
; #@! TF.GenerationSoftware,Kicad,Pcbnew,10.0.3-10.0.3~ubuntu26.04.1
; #@! TF.FileFunction,Plated,1,2,PTH
FMAT,2
METRIC
; #@! TA.AperFunction,Plated,PTH,ComponentDrill
T1C0.800
; #@! TA.AperFunction,Plated,PTH,ComponentDrill
T2C0.900
; #@! TA.AperFunction,Plated,PTH,ComponentDrill
T3C1.000
; #@! TA.AperFunction,Plated,PTH,ComponentDrill
T4C1.100
; #@! TA.AperFunction,Plated,PTH,ComponentDrill
T5C2.200
%
G90
G05
T1
X32.38Y-33.5
X32.38Y-41.12
X33.795Y-59.5
X34.92Y-33.5
X34.92Y-41.12
X35.25Y-28.5
X36.295Y-59.5
X37.46Y-33.5
X37.46Y-41.12
X37.75Y-28.5
X40.0Y-33.5
X40.0Y-41.12
X41.795Y-28.5
X43.0Y-65.545
X43.0Y-67.545
X43.795Y-28.5
X45.0Y-33.69
X45.0Y-41.31
X48.0Y-28.5
X48.5Y-45.46
X48.5Y-48.0
X48.5Y-50.54
X48.5Y-53.08
X48.5Y-55.62
X48.5Y-58.16
X48.5Y-60.7
X50.0Y-33.38
X50.0Y-41.0
X50.5Y-28.5
X54.75Y-41.5
X55.42Y-66.0
X56.12Y-45.46
X56.12Y-48.0
X56.12Y-50.54
X56.12Y-53.08
X56.12Y-55.62
X56.12Y-58.16
X56.12Y-60.7
X57.25Y-41.5
X57.96Y-66.0
X59.88Y-41.5
X60.5Y-66.0
X60.96Y-52.88
X60.96Y-60.5
X62.0Y-46.5
X63.5Y-52.88
X63.5Y-60.5
X64.54Y-46.5
X66.04Y-52.88
X66.04Y-60.5
X67.08Y-46.5
X67.5Y-41.5
X68.58Y-52.88
X68.58Y-60.5
X70.75Y-29.5
X71.12Y-52.88
X71.12Y-60.5
X71.19Y-33.69
X71.19Y-41.31
X71.75Y-65.5
X72.19Y-46.5
X73.25Y-29.5
X73.66Y-52.88
X73.66Y-60.5
X73.73Y-33.69
X73.73Y-41.31
X74.25Y-65.5
X76.2Y-52.88
X76.2Y-60.5
X76.27Y-33.69
X76.27Y-41.31
X76.75Y-29.5
X77.69Y-65.5
X78.81Y-33.69
X78.81Y-41.31
X79.25Y-29.5
X79.81Y-46.5
X83.5Y-46.5
X83.69Y-28.5
X83.69Y-52.69
X83.69Y-60.31
X84.0Y-36.25
X84.0Y-38.75
X85.31Y-65.5
X88.69Y-33.69
X88.69Y-41.31
X88.75Y-65.5
X91.12Y-46.5
X91.23Y-33.69
X91.23Y-41.31
X91.25Y-65.5
X91.31Y-28.5
X91.31Y-52.69
X91.31Y-60.31
X93.77Y-33.69
X93.77Y-41.31
X96.25Y-29.5
X96.31Y-33.69
X96.31Y-41.31
X98.75Y-29.5
T2
X41.46Y-58.5
X44.0Y-58.5
X65.73Y-65.5
X68.27Y-65.5
X94.46Y-66.0
X97.0Y-66.0
T3
X53.95Y-28.5
X53.95Y-31.0
X53.95Y-33.5
X105.5Y-35.42
X105.5Y-37.96
X105.5Y-40.5
X105.5Y-43.04
X105.5Y-45.58
T4
X98.45Y-52.756
X98.45Y-57.756
X103.45Y-52.756
X103.45Y-57.756
T5
X60.95Y-26.6
X60.95Y-35.4
T3
X35.5Y-47.5G85X35.5Y-49.5
G05
X37.5Y-53.2G85X39.5Y-53.2
G05
X41.5Y-47.5G85X41.5Y-49.5
G05
M30
